<svg width="16" height="16" viewBox="0 0 16 16" fill="none" xmlns="http://www.w3.org/2000/svg">
<path d="M9.68359 6.3877C9.68359 6.07715 9.58984 5.81641 9.40234 5.60547C9.21484 5.39453 8.96289 5.28906 8.64648 5.28906C8.03711 5.28906 7.5127 5.66992 7.07324 6.43164C6.63379 7.1875 6.41406 7.91992 6.41406 8.62891C6.41406 9.05664 6.51074 9.40234 6.7041 9.66602C6.90332 9.92969 7.18164 10.0615 7.53906 10.0615C8.16602 10.0615 8.67871 9.58691 9.07715 8.6377C9.48145 7.68262 9.68359 6.93262 9.68359 6.3877ZM6.97656 11.3535C6.26758 11.3535 5.67578 11.0986 5.20117 10.5889C4.73242 10.0791 4.49805 9.36719 4.49805 8.45312C4.49805 7.39258 4.8584 6.39941 5.5791 5.47363C6.2998 4.54785 7.18457 4.08496 8.2334 4.08496C8.84863 4.08496 9.32617 4.25488 9.66602 4.59473C9.92383 4.8584 10.0967 5.16016 10.1846 5.5L10.501 4.39258H12.1621L11.0371 8.20703C10.9492 8.51758 10.8848 8.74902 10.8438 8.90137C10.8086 9.04785 10.791 9.17676 10.791 9.28809C10.791 9.46387 10.8496 9.63086 10.9668 9.78906C11.084 9.94141 11.2715 10.0176 11.5293 10.0176C12.0332 10.0176 12.5371 9.68945 13.041 9.0332C13.5508 8.37109 13.8057 7.49512 13.8057 6.40527C13.8057 4.79395 13.1143 3.63672 11.7314 2.93359C10.8643 2.48828 9.88867 2.26562 8.80469 2.26562C6.8125 2.26562 5.21289 2.875 4.00586 4.09375C2.91602 5.19531 2.37109 6.5166 2.37109 8.05762C2.37109 9.76855 3.00977 11.125 4.28711 12.127C5.41797 13.0117 6.79785 13.4541 8.42676 13.4541C9.54004 13.4541 10.5801 13.249 11.5469 12.8389C12.0742 12.6221 12.6191 12.3145 13.1816 11.916L13.3926 11.7666L14.0342 12.751C13.2021 13.3955 12.2998 13.8877 11.3271 14.2275C10.3604 14.5615 9.35547 14.7285 8.3125 14.7285C5.88086 14.7285 3.99707 13.9727 2.66113 12.4609C1.55371 11.207 1 9.72168 1 8.00488C1 6.08301 1.69141 4.4541 3.07422 3.11816C4.52734 1.70605 6.3877 1 8.65527 1C10.501 1 12.0303 1.4834 13.2432 2.4502C14.5205 3.46973 15.1592 4.82324 15.1592 6.51074C15.1592 7.84082 14.7549 8.9834 13.9463 9.93848C13.1377 10.8877 12.2148 11.3623 11.1777 11.3623C10.6387 11.3623 10.2227 11.21 9.92969 10.9053C9.64258 10.6006 9.49902 10.2871 9.49902 9.96484C9.49902 9.92383 9.49902 9.87988 9.49902 9.83301C9.50488 9.78027 9.51074 9.72461 9.5166 9.66602C9.29395 10.0879 9.04492 10.4248 8.76953 10.6768C8.27148 11.1279 7.67383 11.3535 6.97656 11.3535Z" fill="currentColor"/>
</svg>
