<svg width="16" height="16" viewBox="0 0 16 16" fill="none" xmlns="http://www.w3.org/2000/svg">
<path d="M0.646446 9.64645C0.451184 9.84171 0.451184 10.1583 0.646446 10.3536L3.82843 13.5355C4.02369 13.7308 4.34027 13.7308 4.53553 13.5355C4.7308 13.3403 4.7308 13.0237 4.53553 12.8284L1.70711 10L4.53553 7.17157C4.7308 6.97631 4.7308 6.65973 4.53553 6.46447C4.34027 6.2692 4.02369 6.2692 3.82843 6.46447L0.646446 9.64645ZM10.1067 3.83458C9.83056 3.83089 9.60373 4.05174 9.60004 4.32786C9.59636 4.60397 9.8172 4.8308 10.0933 4.83449L10.1067 3.83458ZM12.2191 4.36285L12.2258 3.86289L12.2258 3.86289L12.2191 4.36285ZM12.1813 9.5L1 9.5L1 10.5L12.1813 10.5L12.1813 9.5ZM10.0933 4.83449L12.2124 4.8628L12.2258 3.86289L10.1067 3.83458L10.0933 4.83449ZM12.2124 4.8628C13.4808 4.87975 14.5 5.91275 14.5 7.1813L15.5 7.1813C15.5 5.36576 14.0413 3.88715 12.2258 3.86289L12.2124 4.8628ZM12.1813 10.5C14.0142 10.5 15.5 9.01417 15.5 7.1813L14.5 7.1813C14.5 8.46188 13.4619 9.5 12.1813 9.5L12.1813 10.5Z" fill="currentColor"/>
</svg>
