<svg width="16" height="16" viewBox="0 0 16 16" fill="none" xmlns="http://www.w3.org/2000/svg">
<path d="M13.6588 9.14167C13.324 10.6808 12.3663 12.0787 10.8948 12.9283C8.12458 14.5277 4.58236 13.5785 2.983 10.8084L4.36677 10.0094" stroke="currentColor" stroke-linecap="round" stroke-linejoin="round"/>
<path d="M2.34122 6.68255C2.67597 5.14339 3.63366 3.74552 5.10523 2.89591C7.87542 1.29654 11.4176 2.24568 13.017 5.01586L11.7197 5.76485" stroke="currentColor" stroke-linecap="round" stroke-linejoin="round"/>
<mask id="path-3-inside-1_6398_111297" fill="white">
<path d="M4.5625 8.74609L5.56109 10.4757V10.4757C5.08347 10.7515 4.47274 10.5878 4.19699 10.1102V10.1102C3.92124 9.63257 4.08488 9.02185 4.5625 8.74609V8.74609Z"/>
</mask>
<path d="M3.69647 9.24609L4.69506 10.9757L6.42712 9.9757L5.42853 8.24609L3.69647 9.24609ZM5.06302 9.61019C5.06241 9.60914 5.06243 9.60896 5.06262 9.60953C5.06279 9.61004 5.06292 9.61065 5.06299 9.61119C5.06311 9.61216 5.06294 9.61208 5.06316 9.61126C5.06338 9.61044 5.06356 9.61047 5.06298 9.61124C5.06265 9.61168 5.06223 9.61214 5.06182 9.6125C5.06137 9.61289 5.06145 9.61273 5.0625 9.61212L4.0625 7.88007C3.10659 8.43196 2.77907 9.65428 3.33097 10.6102L5.06302 9.61019ZM5.06109 9.60968C5.06004 9.61028 5.05986 9.61027 5.06042 9.61008C5.06094 9.6099 5.06154 9.60977 5.06209 9.6097C5.06305 9.60958 5.06298 9.60975 5.06216 9.60954C5.06134 9.60932 5.06136 9.60913 5.06214 9.60971C5.06258 9.61005 5.06303 9.61047 5.06339 9.61087C5.06379 9.61132 5.06362 9.61125 5.06302 9.61019L3.33097 10.6102C3.88286 11.5661 5.10518 11.8936 6.06109 11.3417L5.06109 9.60968Z" fill="currentColor" mask="url(#path-3-inside-1_6398_111297)"/>
<mask id="path-5-inside-2_6398_111297" fill="white">
<path d="M11.4375 7.07812L10.4389 5.34852V5.34852C10.9165 5.07276 11.5273 5.23641 11.803 5.71403V5.71403C12.0788 6.19164 11.9151 6.80237 11.4375 7.07812V7.07812Z"/>
</mask>
<path d="M12.3035 6.57813L11.3049 4.84852L9.57289 5.84852L10.5715 7.57812L12.3035 6.57813ZM10.937 6.21403C10.9376 6.21508 10.9376 6.21526 10.9374 6.21469C10.9372 6.21418 10.9371 6.21357 10.937 6.21302C10.9369 6.21206 10.9371 6.21214 10.9368 6.21296C10.9366 6.21377 10.9364 6.21375 10.937 6.21298C10.9374 6.21254 10.9378 6.21208 10.9382 6.21172C10.9386 6.21133 10.9386 6.21149 10.9375 6.2121L11.9375 7.94415C12.8934 7.39226 13.2209 6.16994 12.669 5.21403L10.937 6.21403ZM10.9389 6.21454C10.94 6.21393 10.9401 6.21395 10.9396 6.21414C10.9391 6.21431 10.9385 6.21445 10.9379 6.21452C10.9369 6.21464 10.937 6.21446 10.9378 6.21468C10.9387 6.2149 10.9386 6.21509 10.9379 6.21451C10.9374 6.21417 10.937 6.21375 10.9366 6.21335C10.9362 6.2129 10.9364 6.21297 10.937 6.21403L12.669 5.21403C12.1171 4.25812 10.8948 3.9306 9.93891 4.48249L10.9389 6.21454Z" fill="currentColor" mask="url(#path-5-inside-2_6398_111297)"/>
<path d="M9.84708 8.11386L8.74933 6.21251L9.35408 5.86336C9.87913 5.56023 10.5505 5.74012 10.8536 6.26516C11.1568 6.79021 10.9769 7.46158 10.4518 7.76471L9.84708 8.11386Z" stroke="currentColor"/>
<path d="M6.76172 8.16406L6.46214 7.64518L7.24047 7.19581C7.38375 7.11309 7.56697 7.16218 7.6497 7.30547V7.30547C7.73242 7.44875 7.68333 7.63197 7.54004 7.7147L6.76172 8.16406Z" fill="currentColor"/>
<path d="M7.46094 9.375L7.16136 8.85612L7.93968 8.40675C8.08297 8.32403 8.26619 8.37312 8.34891 8.51641V8.51641C8.43164 8.65969 8.38255 8.84291 8.23926 8.92563L7.46094 9.375Z" fill="currentColor"/>
<path d="M6.15292 7.71036L7.25067 9.6117L6.64592 9.96086C6.12087 10.264 5.4495 10.0841 5.14637 9.55906C4.84324 9.03401 5.02313 8.36264 5.54817 8.05951L6.15292 7.71036Z" stroke="currentColor"/>
</svg>
