<svg width="16" height="16" viewBox="0 0 16 16" fill="none" xmlns="http://www.w3.org/2000/svg">
<path d="M11.6024 13.8635C12.0749 13.7551 12.5399 13.4663 12.5399 12.9103C12.5399 12.6865 12.4724 12.5204 12.3899 12.3904C12.3449 12.3182 12.3599 12.2605 12.4199 12.2316C12.8024 12.0727 13.1174 11.7478 13.1174 11.2785C13.1174 11.0185 13.0499 10.773 12.9074 10.6142C12.8324 10.5275 12.8549 10.4553 12.9599 10.3976C13.2449 10.2459 13.4249 9.90656 13.4249 9.53109C13.4249 9.25671 13.3349 8.96066 13.1699 8.82347C13.0799 8.74404 13.0949 8.67906 13.1999 8.60685C13.3949 8.46244 13.4999 8.17362 13.4999 7.84869C13.4999 7.28548 13.0499 6.81614 12.4499 6.81614H10.3049C9.76488 6.81614 9.39738 6.5562 9.39738 6.12296C9.39738 5.3287 10.4174 3.8918 10.4174 2.85203C10.4174 2.31771 10.0574 2 9.57738 2C9.14988 2 8.92488 2.28882 8.69238 2.72206C7.79988 4.4189 6.59238 5.79082 5.66238 6.975C4.88323 7.88203 4.46336 9.02565 4.47738 10.2026C4.44738 12.3399 6.24738 13.9645 9.07488 13.9862L9.89988 13.9934C10.4708 14.0178 11.0426 13.9742 11.6024 13.8635ZM6.03729 13.4302C5.00782 12.6793 4.40878 11.4371 4.47729 10.1954C4.48239 9.04718 4.89226 7.93466 5.63979 7.03998H4.74729C3.38229 7.03998 2.33979 8.448 2.33979 10.2459C2.33979 11.9861 3.44979 13.4374 4.96479 13.4374L6.03729 13.4302Z" stroke="currentColor"/>
</svg>
