<svg width="17" height="16" viewBox="0 0 17 16" fill="none" xmlns="http://www.w3.org/2000/svg">
<path d="M0.646447 7.64645C0.451184 7.84171 0.451184 8.15829 0.646447 8.35355L3.82843 11.5355C4.02369 11.7308 4.34027 11.7308 4.53553 11.5355C4.7308 11.3403 4.7308 11.0237 4.53553 10.8284L1.70711 8L4.53553 5.17157C4.7308 4.97631 4.7308 4.65973 4.53553 4.46447C4.34027 4.2692 4.02369 4.2692 3.82843 4.46447L0.646447 7.64645ZM16.5 8V8.5H17V8H16.5ZM1 8.5H16.5V7.5H1V8.5ZM17 8V0H16V8H17Z" fill="currentColor"/>
</svg>
