<svg width="16" height="17" viewBox="0 0 16 17" fill="none" xmlns="http://www.w3.org/2000/svg">
<path d="M8 0.5L8.5 0.5L8.5 2.18557e-08L8 0L8 0.5ZM7.64645 16.3536C7.84171 16.5488 8.15829 16.5488 8.35355 16.3536L11.5355 13.1716C11.7308 12.9763 11.7308 12.6597 11.5355 12.4645C11.3403 12.2692 11.0237 12.2692 10.8284 12.4645L8 15.2929L5.17157 12.4645C4.97631 12.2692 4.65973 12.2692 4.46447 12.4645C4.2692 12.6597 4.2692 12.9763 4.46447 13.1716L7.64645 16.3536ZM7.5 0.5L7.5 16L8.5 16L8.5 0.5L7.5 0.5ZM8 0L2.18557e-08 -3.49691e-07L-2.18557e-08 1L8 1L8 0Z" fill="currentColor"/>
</svg>
