<svg width="16" height="18" viewBox="0 0 16 18" fill="none" xmlns="http://www.w3.org/2000/svg">
<path d="M13.9462 13.7942C14.3999 13.6584 14.7404 13.4241 14.9355 13.0868C15.7992 11.5939 13.4876 8.64913 9.77292 6.50965C8.7299 5.90898 7.68688 5.43505 6.70703 5.09766" stroke="currentColor" stroke-miterlimit="10" stroke-linecap="round" stroke-linejoin="round"/>
<path d="M5.6426 4.77523C3.61994 4.26128 2.01239 4.41689 1.48171 5.33443C0.854075 6.41909 1.90318 8.27102 3.94974 10.0237" stroke="currentColor" stroke-miterlimit="10" stroke-linecap="round" stroke-linejoin="round"/>
<path d="M13.3395 9.21269C14.7967 7.72169 15.4659 6.25549 14.9346 5.33795C14.3067 4.25317 12.1742 4.23417 9.62891 5.12648" stroke="currentColor" stroke-miterlimit="10" stroke-linecap="round" stroke-linejoin="round"/>
<path d="M1.42415 11.6563C1.24705 12.2056 1.25575 12.6953 1.48194 13.0859C2.34568 14.5788 6.0573 14.0536 9.77264 11.9142C10.7587 11.3462 11.6459 10.7214 12.4013 10.082" stroke="currentColor" stroke-miterlimit="10" stroke-linecap="round" stroke-linejoin="round"/>
<path d="M5.64453 13.6451C6.21 15.6494 7.14832 16.9607 8.21029 16.9607C9.47573 16.9607 10.5655 15.0997 11.0583 12.4219" stroke="currentColor" stroke-miterlimit="10" stroke-linecap="round" stroke-linejoin="round"/>
<path d="M9.46289 2.10755C9.07949 1.69156 8.6557 1.46094 8.21015 1.46094C6.48266 1.46094 5.08203 4.93023 5.08203 9.21042C5.08203 10.3863 5.18776 11.501 5.37676 12.4996" stroke="currentColor" stroke-miterlimit="10" stroke-linecap="round" stroke-linejoin="round"/>
<path d="M13.4556 13.9362C13.4556 14.2537 13.1973 14.5131 12.8762 14.5131C12.5552 14.5131 12.2969 14.2537 12.2969 13.9362C12.2969 13.6187 12.5552 13.3594 12.8762 13.3594C13.1973 13.3594 13.4556 13.6187 13.4556 13.9362Z" stroke="currentColor" stroke-miterlimit="10" stroke-linecap="round" stroke-linejoin="round"/>
<path d="M8.21132 11.0275C9.21687 11.0275 10.032 10.2142 10.032 9.21101C10.032 8.2078 9.21687 7.39453 8.21132 7.39453C7.20578 7.39453 6.39062 8.2078 6.39062 9.21101C6.39062 10.2142 7.20578 11.0275 8.21132 11.0275Z" stroke="currentColor" stroke-miterlimit="10" stroke-linecap="round" stroke-linejoin="round"/>
<path d="M10.7017 2.95968C10.7017 3.27718 10.4434 3.53655 10.1223 3.53655C9.80127 3.53655 9.54297 3.27718 9.54297 2.95968C9.54297 2.64218 9.80127 2.38281 10.1223 2.38281C10.4434 2.38281 10.7017 2.64218 10.7017 2.95968Z" stroke="currentColor" stroke-miterlimit="10" stroke-linecap="round" stroke-linejoin="round"/>
<path d="M2.5689 10.737C2.5689 11.0545 2.3106 11.3139 1.98953 11.3139C1.66845 11.3139 1.41016 11.0545 1.41016 10.737C1.41016 10.4195 1.66845 10.1602 1.98953 10.1602C2.3106 10.1602 2.5689 10.4195 2.5689 10.737Z" stroke="currentColor" stroke-miterlimit="10" stroke-linecap="round" stroke-linejoin="round"/>
</svg>
