<svg width="16" height="11" viewBox="0 0 16 11" fill="none" xmlns="http://www.w3.org/2000/svg">
<rect x="0.5" y="0.5" width="15" height="10" rx="0.5" stroke="currentColor"/>
<path d="M7.97363 7.5H7.03027L6.65527 6.52441H4.93848L4.58398 7.5H3.66406L5.33691 3.20508H6.25391L7.97363 7.5ZM6.37695 5.80078L5.78516 4.20703L5.20508 5.80078H6.37695ZM8.43359 3.20508H10.0186C10.376 3.20508 10.6484 3.23242 10.8359 3.28711C11.0879 3.36133 11.3037 3.49316 11.4834 3.68262C11.6631 3.87207 11.7998 4.10449 11.8936 4.37988C11.9873 4.65332 12.0342 4.99121 12.0342 5.39355C12.0342 5.74707 11.9902 6.05176 11.9023 6.30762C11.7949 6.62012 11.6416 6.87305 11.4424 7.06641C11.292 7.21289 11.0889 7.32715 10.833 7.40918C10.6416 7.46973 10.3857 7.5 10.0654 7.5H8.43359V3.20508ZM9.30078 3.93164V6.77637H9.94824C10.1904 6.77637 10.3652 6.7627 10.4727 6.73535C10.6133 6.7002 10.7295 6.64062 10.8213 6.55664C10.915 6.47266 10.9912 6.33496 11.0498 6.14355C11.1084 5.9502 11.1377 5.6875 11.1377 5.35547C11.1377 5.02344 11.1084 4.76855 11.0498 4.59082C10.9912 4.41309 10.9092 4.27441 10.8037 4.1748C10.6982 4.0752 10.5645 4.00781 10.4023 3.97266C10.2812 3.94531 10.0439 3.93164 9.69043 3.93164H9.30078Z" fill="currentColor"/>
</svg>
