<svg width="16" height="16" viewBox="0 0 16 16" fill="none" xmlns="http://www.w3.org/2000/svg">
<path d="M12.8606 10.6636C11.183 9.24691 10.9779 7.60657 9.6358 3.8785C8.57238 0.924539 6.67148 0.920694 5.87458 1.29519C5.8591 1.30246 5.84528 1.3118 5.83235 1.323L1.63888 4.95358M10.4374 14.3022C10.5705 13.583 10.4757 12.9609 10.4451 12.6325C10.439 12.5668 10.4681 12.5045 10.521 12.4651C11.7723 11.5333 14.063 9.95253 15.0453 8.15214C15.1355 7.98696 15.3805 8.00451 15.415 8.18949C15.5424 8.87365 15.6293 10.0331 14.9483 10.6636C14.1261 11.4249 11.2704 13.5773 10.0067 14.6754C9.99525 14.6853 9.98366 14.6934 9.97017 14.7002C9.39912 14.9913 8.05487 15.1165 7.0821 13.3478C6.21584 11.7728 5.71901 8.1401 4.19947 6.20854M1.63888 4.95358L1.09852 5.38837C0.699708 5.71467 -0.12218 7.3279 1.2902 8.47934C1.36186 8.53775 1.46507 8.53365 1.5355 8.47376L4.19947 6.20854M1.63888 4.95358C2.74185 4.88561 3.56095 5.39689 4.19947 6.20854" stroke="currentColor"/>
<path d="M7.2013 7.94682C7.26846 7.9628 7.32287 7.97278 7.36406 7.97642L7.36406 7.97642L7.36465 7.97646C7.48907 7.98596 7.6047 7.96045 7.71006 7.89962C7.7375 7.88378 7.76405 7.86644 7.7897 7.84759C7.80392 7.8379 7.81995 7.82676 7.83779 7.81419L8.01524 8.12155L8.04024 8.16485L8.08354 8.13985L8.25211 8.04253L8.29541 8.01753L8.27041 7.97423L8.04543 7.58456C8.13878 7.45411 8.2026 7.36823 8.23759 7.32569C8.274 7.28207 8.31193 7.24952 8.35111 7.2269C8.41517 7.18992 8.48369 7.17954 8.55932 7.19628L8.55932 7.19629L8.55975 7.19638C8.63215 7.21175 8.69142 7.25595 8.7376 7.33593C8.80157 7.44675 8.80466 7.53901 8.75983 7.62054C8.75266 7.63283 8.74726 7.6424 8.74286 7.65019C8.73318 7.66736 8.72841 7.67582 8.72035 7.68549C8.70966 7.69832 8.69276 7.71297 8.6456 7.7467L8.60872 7.77309L8.63139 7.81237L8.85902 8.20664L8.88488 8.25142L8.92877 8.22407C9.05812 8.14346 9.14486 8.07056 9.20244 7.98845C9.26066 7.90544 9.28615 7.8172 9.30062 7.71182C9.33103 7.49713 9.28779 7.28948 9.17288 7.09044C9.03628 6.85386 8.86384 6.70163 8.65349 6.64368L8.65349 6.64368L8.65331 6.64363C8.44867 6.58811 8.26067 6.60692 8.09315 6.70364C8.00997 6.75167 7.93785 6.80824 7.87724 6.87353L7.8771 6.87368C7.83248 6.92216 7.78574 6.98106 7.73687 7.05011L7.68075 6.95292L7.65575 6.90962L7.61245 6.93462L7.44389 7.03194L7.40059 7.05694L7.42559 7.10024L7.5577 7.32906C7.52579 7.36706 7.49951 7.39637 7.47868 7.41735L7.47854 7.41749C7.43353 7.46321 7.39134 7.49679 7.35211 7.51945C7.28251 7.55963 7.18893 7.5722 7.06588 7.54931C6.94 7.52512 6.84166 7.4906 6.76884 7.44731L6.72688 7.42235L6.70093 7.46371L6.49299 7.79521L6.4675 7.83584L6.50704 7.863C6.59964 7.92658 6.66065 7.97019 6.6914 7.99451C6.73484 8.03145 6.76673 8.06882 6.78838 8.10633C6.81004 8.14383 6.82744 8.18242 6.84067 8.22212C6.84755 8.24712 6.85521 8.28018 6.86362 8.32168C6.86364 8.32175 6.86365 8.32182 6.86366 8.32189L6.88287 8.42092L6.88286 8.42092L6.88297 8.42146C6.89651 8.48737 6.91143 8.54766 6.92776 8.60224C6.94458 8.65845 6.96628 8.70989 6.99308 8.75631C7.04282 8.84245 7.11074 8.92166 7.19595 8.99415C7.27907 9.06486 7.35408 9.11721 7.42061 9.1492L7.45534 9.16589L7.48033 9.13656L7.74707 8.82349L7.78651 8.77721L7.73348 8.74746C7.67304 8.71355 7.62683 8.68442 7.59405 8.66L7.59396 8.65993C7.53629 8.61718 7.49876 8.57715 7.47764 8.54056C7.47174 8.53034 7.46481 8.51649 7.45688 8.49859C7.45126 8.48298 7.44547 8.46103 7.43982 8.43186L7.43982 8.43186L7.43967 8.43112L7.4248 8.36017L7.42482 8.36016L7.42443 8.35856C7.41326 8.31285 7.40056 8.27028 7.38629 8.23094L7.33929 8.248M7.2013 7.94682C7.25412 7.9994 7.29807 8.05575 7.33282 8.11594C7.35442 8.15336 7.3723 8.19178 7.38637 8.23118L7.33929 8.248M7.2013 7.94682C7.2013 7.94682 7.2013 7.94682 7.20129 7.94682C7.20139 7.94692 7.20149 7.94703 7.20159 7.94713L7.16548 7.98172C7.2157 8.03161 7.25704 8.08469 7.28952 8.14094C7.30968 8.17586 7.32627 8.21155 7.33929 8.248M7.33929 8.248C7.35287 8.28542 7.36506 8.32623 7.37586 8.37043" fill="currentColor" stroke="currentColor" stroke-width="0.1"/>
<circle cx="7.99741" cy="7.7733" r="2.63399" transform="rotate(60 7.99741 7.7733)" stroke="currentColor"/>
</svg>
