<svg width="17" height="16" viewBox="0 0 17 16" fill="none" xmlns="http://www.w3.org/2000/svg">
<rect x="0.773438" y="4.83984" width="15" height="2" rx="0.5" stroke="currentColor"/>
<path d="M2.48533 6.83984H14.0615C14.3758 6.83984 14.6121 7.12626 14.5524 7.43477L13.3922 13.4348C13.3468 13.67 13.1409 13.8398 12.9013 13.8398H3.64555C3.40601 13.8398 3.20012 13.67 3.15465 13.4348L1.99443 7.43477C1.93477 7.12626 2.17111 6.83984 2.48533 6.83984Z" stroke="currentColor"/>
<path fill-rule="evenodd" clip-rule="evenodd" d="M4.36917 4.90361C4.07724 4.86361 3.93584 4.64653 4.05335 4.41877L5.85519 0.926229C5.9727 0.698462 6.30461 0.546252 6.59654 0.586257C6.88847 0.626263 7.02987 0.843336 6.91236 1.0711L5.11052 4.56364C4.99301 4.79141 4.6611 4.94362 4.36917 4.90361Z" fill="currentColor"/>
<path fill-rule="evenodd" clip-rule="evenodd" d="M12.1035 4.90361C12.3954 4.86361 12.5368 4.64653 12.4193 4.41877L10.6175 0.92623C10.5 0.698463 10.168 0.546253 9.87611 0.586259C9.58418 0.626264 9.44279 0.843337 9.56029 1.0711L11.3621 4.56364C11.4797 4.79141 11.8116 4.94362 12.1035 4.90361Z" fill="currentColor"/>
<path fill-rule="evenodd" clip-rule="evenodd" d="M11.8215 7.85421C12.0898 7.91966 12.2542 8.19019 12.1888 8.45847L11.1934 12.5385C11.1279 12.8067 10.8574 12.9712 10.5891 12.9057C10.3208 12.8403 10.1564 12.5697 10.2219 12.3015L11.2173 8.22145C11.2827 7.95318 11.5532 7.78876 11.8215 7.85421Z" fill="currentColor"/>
<path fill-rule="evenodd" clip-rule="evenodd" d="M8.27344 8C8.54958 8 8.77344 8.22386 8.77344 8.5L8.77344 12C8.77344 12.2761 8.54958 12.5 8.27344 12.5C7.99729 12.5 7.77344 12.2761 7.77344 12L7.77344 8.5C7.77344 8.22386 7.9973 8 8.27344 8Z" fill="currentColor"/>
<path fill-rule="evenodd" clip-rule="evenodd" d="M4.58083 7.85421C4.31255 7.91966 4.14813 8.19019 4.21358 8.45847L5.20898 12.5385C5.27443 12.8067 5.54496 12.9712 5.81324 12.9057C6.08151 12.8403 6.24593 12.5697 6.18048 12.3015L5.18509 8.22145C5.11964 7.95318 4.8491 7.78876 4.58083 7.85421Z" fill="currentColor"/>
</svg>
