<svg width="18" height="16" viewBox="0 0 18 16" fill="none" xmlns="http://www.w3.org/2000/svg">
<path d="M16.5447 7.17188C16.5447 7.17188 16.5164 7.31776 16.46 7.55776C16.2576 8.43776 15.6835 10.5648 14.78 11.3742L15.4623 12.0566C15.5847 12.1789 15.5847 12.3719 15.4623 12.4942C15.34 12.6166 15.147 12.6166 15.0247 12.4942L14.2106 11.6801C14.1588 11.6895 14.1023 11.6942 14.0459 11.6942C12.9588 11.6942 5.29291 11.6942 4.20585 11.6942C4.14938 11.6942 4.09291 11.6895 4.04115 11.6801L3.22703 12.4942C3.10468 12.6166 2.91174 12.6166 2.78938 12.4942C2.66703 12.3719 2.66703 12.1789 2.78938 12.0566L3.47174 11.3742C2.3188 10.3436 1.70703 7.17188 1.70703 7.17188H5.80585H16.5447Z" fill="currentColor"/>
<path d="M1.20921 6.20385H1.74568V4.6462C1.74568 3.96856 2.29627 3.41797 2.97392 3.41797C3.65156 3.41797 4.20215 3.96856 4.20215 4.6462H3.8445C3.8445 4.1662 3.45392 3.77091 2.96921 3.77091C2.48921 3.77091 2.09392 4.1615 2.09392 4.6462V5.46973H2.3998V5.25326H2.65392V5.94032H2.3998V5.72385H2.09392V6.20385H6.51744H11.501H16.8139C17.0116 6.20385 17.1716 6.36385 17.1716 6.5615C17.1716 6.75915 17.0116 6.91915 16.8139 6.91915H12.108H11.9998H6.02803H5.9198H1.20921C1.01156 6.91915 0.851562 6.75915 0.851562 6.5615C0.851562 6.36385 1.01156 6.20385 1.20921 6.20385Z" fill="currentColor"/>
</svg>
