<svg width="16" height="16" viewBox="0 0 16 16" fill="none" xmlns="http://www.w3.org/2000/svg">
<path fill-rule="evenodd" clip-rule="evenodd" d="M1.72578 10.1524C1.72578 9.84183 1.9799 9.58771 2.29049 9.58771H13.707C14.0175 9.58771 14.2717 9.84183 14.2717 10.1524V11.3948C14.2717 11.5124 14.3705 11.6112 14.4881 11.6112H14.8646C14.9823 11.6112 15.0764 11.5124 15.0764 11.3948V9.74771C15.0764 9.39006 14.954 9.0183 14.747 8.72654L13.7211 7.31006C13.5375 7.05595 13.2175 6.90065 12.9258 6.82536C11.7823 6.52418 10.0034 6.32654 7.99872 6.32654C5.99402 6.32654 4.21519 6.51948 3.07637 6.82536C2.78461 6.90065 2.4646 7.06065 2.28108 7.31006L1.25519 8.72654C1.04343 9.01359 0.925781 9.39006 0.925781 9.74771V11.3948C0.925781 11.5124 1.0199 11.6112 1.13755 11.6112H1.51402C1.63166 11.6112 1.73049 11.5124 1.73049 11.3948L1.72578 10.1524ZM12.6858 11.8559H3.31166V12.8018C3.31166 12.9477 3.18931 13.0701 3.04343 13.0701H2.29049C2.1399 13.0701 2.02225 12.9477 2.02225 12.8018V10.1524C2.02225 10.0018 2.14461 9.88418 2.29049 9.88418H13.707C13.8528 9.88418 13.9752 10.0065 13.9752 10.1524V12.8018C13.9752 12.9477 13.8528 13.0701 13.707 13.0701H12.954C12.8081 13.0701 12.6858 12.9477 12.6858 12.8018V11.8559ZM12.634 2.93359H3.36343C2.94931 2.93359 2.61049 3.27242 2.61049 3.68654V6.68418C2.73755 6.62301 2.86931 6.57595 2.99637 6.54301C3.25049 6.47712 3.50931 6.42065 3.77284 6.36889V5.67242C3.77284 5.31006 3.99402 5.07477 4.25755 5.01359C4.72343 4.91477 5.19872 4.86771 5.67872 4.86771C6.16343 4.86771 6.63402 4.91477 7.0999 5.01359C7.36343 5.07006 7.58461 5.31006 7.58461 5.67242V6.03948C7.72108 6.03477 7.85755 6.03477 7.99402 6.03477C8.13049 6.03477 8.26696 6.03477 8.40343 6.03948V5.67242C8.40343 5.31006 8.6246 5.07477 8.88813 5.01359C9.35402 4.91477 9.82931 4.86771 10.3093 4.86771C10.7893 4.86771 11.2646 4.91477 11.7305 5.01359C11.994 5.07006 12.2152 5.31006 12.2152 5.67242V6.36889C12.4787 6.41595 12.7375 6.47242 12.9917 6.54301C13.1234 6.57595 13.2552 6.62301 13.3823 6.68418V3.68654C13.387 3.27242 13.0481 2.93359 12.634 2.93359Z" fill="currentColor"/>
</svg>
