<svg width="16" height="16" viewBox="0 0 16 16" fill="none" xmlns="http://www.w3.org/2000/svg">
<path d="M7.99994 13.5313V5C7.99994 5 6.57546 2.52272 3.14337 2.0914C3.08424 2.08397 3.03125 2.13026 3.03125 2.18986V10.9146C3.03125 11.0362 3.12128 11.1405 3.24087 11.1626C7.3849 11.9288 7.99994 13.5313 7.99994 13.5313Z" stroke="currentColor"/>
<path d="M8.00006 13.5313V5C8.00006 5 9.42454 2.52272 12.8566 2.0914C12.9158 2.08397 12.9688 2.13026 12.9688 2.18986V10.9146C12.9688 11.0362 12.8787 11.1405 12.7591 11.1626C8.6151 11.9288 8.00006 13.5313 8.00006 13.5313Z" stroke="currentColor"/>
<path d="M3.28125 3.70312H1.625C1.48693 3.70312 1.375 3.81505 1.375 3.95313V12.4659C1.375 12.611 1.49709 12.7255 1.64203 12.7195C3.28371 12.6505 6.47512 12.8998 8 14.0938V10.5625" stroke="currentColor" stroke-linejoin="round"/>
<path d="M12.7188 3.70312H14.375C14.5131 3.70312 14.625 3.81505 14.625 3.95313V12.4659C14.625 12.611 14.5029 12.7255 14.358 12.7195C12.7163 12.6505 9.52488 12.8998 8 14.0938V10.5625" stroke="currentColor" stroke-linejoin="round"/>
</svg>
