<svg width="18" height="16" viewBox="0 0 18 16" fill="none" xmlns="http://www.w3.org/2000/svg">
<path d="M15 4.75758L9 2L3 4.75758M3 8.30303V11.8485L9 15L15 11.8485V8.30303" stroke="currentColor"/>
<path d="M3 5L9 7.69231M9 7.69231L15 5M9 7.69231V15" stroke="currentColor" stroke-linecap="round"/>
<path d="M1.25889 3.69416L2.81552 4.86164C2.91289 4.93466 2.923 5.077 2.83694 5.16306L1.19621 6.80379C1.09968 6.90032 1.12609 7.06305 1.24819 7.12409L6.85539 9.92769C6.93974 9.96987 7.04209 9.94739 7.101 9.87375L8.84383 7.69522C8.92389 7.59514 9.07611 7.59514 9.15617 7.69522L10.899 9.87375C10.9579 9.94739 11.0603 9.96987 11.1446 9.92769L16.7518 7.1241C16.8739 7.06305 16.9003 6.90032 16.8038 6.80379L15.1631 5.16306C15.077 5.077 15.0871 4.93466 15.1845 4.86164L16.7411 3.69416C16.8601 3.60496 16.8435 3.42177 16.7106 3.35528L11.1106 0.555279C11.0428 0.5214 10.9617 0.528711 10.9011 0.574164L9.12 1.91C9.04889 1.96333 8.95111 1.96333 8.88 1.91L7.09889 0.574164C7.03828 0.528711 6.9572 0.5214 6.88944 0.555279L1.28944 3.35528C1.15646 3.42177 1.13994 3.60496 1.25889 3.69416Z" stroke="currentColor" stroke-linecap="round"/>
</svg>
