<svg width="18" height="16" viewBox="0 0 18 16" fill="none" xmlns="http://www.w3.org/2000/svg">
<path d="M4.46875 4.03773C4.63067 2.33911 7.01926 1.64581 8.48991 2.77373" stroke="currentColor" stroke-miterlimit="10" stroke-linecap="round" stroke-linejoin="round"/>
<path d="M8.27734 3.19309C8.7704 2.02166 11.7592 2.04127 12.3916 3.41684" stroke="currentColor" stroke-miterlimit="10" stroke-linecap="round" stroke-linejoin="round"/>
<path d="M11.7578 3.94124C13.4056 1.93919 16.1125 4.72832 15.4284 6.69972" stroke="currentColor" stroke-miterlimit="10" stroke-linecap="round" stroke-linejoin="round"/>
<path d="M15.4983 6.5C19.4983 8.5 15.2114 13.8603 13.3281 10.0842" stroke="currentColor" stroke-miterlimit="10" stroke-linecap="round" stroke-linejoin="round"/>
<path d="M4.44268 3.84421C2.86307 3.52054 1.78443 6.10433 2.66159 7.37078" stroke="currentColor" stroke-miterlimit="10" stroke-linecap="round" stroke-linejoin="round"/>
<path d="M2.39939 7.00391C0.678562 7.71743 1.27267 10.2448 2.72323 10.1228C2.72323 10.1228 2.83828 11.1833 3.82804 10.7205C4.11049 11.7326 5.79114 11.8294 6.00419 10.8266" stroke="currentColor" stroke-miterlimit="10" stroke-linecap="round" stroke-linejoin="round"/>
<path d="M7.25311 4.13844C6.29986 4.06672 5.57549 6.25635 6.98223 6.6364" stroke="currentColor" stroke-miterlimit="10" stroke-linecap="round" stroke-linejoin="round"/>
<path d="M7.41115 9.1748C6.45304 9.2833 6.03485 7.39466 6.87122 6.71484" stroke="currentColor" stroke-miterlimit="10" stroke-linecap="round" stroke-linejoin="round"/>
<path d="M3.74219 8.76029C4.14029 7.87021 5.43563 7.50303 6.38035 7.97871" stroke="currentColor" stroke-miterlimit="10" stroke-linecap="round" stroke-linejoin="round"/>
<path d="M3.82814 5.6875C3.82145 6.59106 5.87281 6.7676 6.18325 5.69424" stroke="currentColor" stroke-miterlimit="10" stroke-linecap="round" stroke-linejoin="round"/>
<path d="M10.7972 7.94531C1.50462 9.94859 7.64653 16.3213 13.0939 11.0213" stroke="currentColor" stroke-miterlimit="10" stroke-linecap="round" stroke-linejoin="round"/>
<path d="M8.53125 10.7364C8.6256 10.1523 11.1493 9.28241 11.5066 9.7581" stroke="currentColor" stroke-miterlimit="10" stroke-linecap="round" stroke-linejoin="round"/>
<path d="M14.888 8.94201C13.9938 7.81287 11.6661 8.67107 11.5078 9.7573" stroke="currentColor" stroke-miterlimit="10" stroke-linecap="round" stroke-linejoin="round"/>
<path d="M13.35 8.28902C13.9977 7.74529 13.5308 6.1705 12.7425 6.20973C12.7425 6.20973 12.9252 6.14843 12.8844 5.25162C12.5289 3.60449 10.3132 3.35316 9.16027 4.78267C8.54608 5.54402 9.16027 6.84173 9.16027 6.84173C8.53269 7.07957 8.89075 8.28902 8.89075 8.28902" stroke="currentColor" stroke-miterlimit="10" stroke-linecap="round" stroke-linejoin="round"/>
<path d="M10.7182 6.00781C11.0342 6.3658 10.9989 7.83271 10.6172 8.31146" stroke="currentColor" stroke-miterlimit="10" stroke-linecap="round" stroke-linejoin="round"/>
<path d="M10.4766 12.8016C11.2825 14.9814 15.9162 13.6357 15.5011 11.5" stroke="currentColor" stroke-miterlimit="10" stroke-linecap="round" stroke-linejoin="round"/>
</svg>
