<svg width="18" height="16" viewBox="0 0 18 16" fill="none" xmlns="http://www.w3.org/2000/svg">
<path d="M5.56073 8.88882L7.33835 9.53648C8.4022 9.92408 9.56611 9.93913 10.6396 9.57915L12.1857 9.0607M4.02948 8.54507L2.02997 7.89341C1.61838 7.75927 1.33984 7.37553 1.33984 6.94263V5.03516C1.33984 4.48287 1.78756 4.03516 2.33984 4.03516H15.6232C16.1755 4.03516 16.6232 4.48287 16.6232 5.03516V6.94047C16.6232 7.37441 16.3433 7.75883 15.9304 7.89212L13.8107 8.57632" stroke="currentColor"/>
<path d="M1.83984 7.80469V12.7714C1.83984 13.3236 2.28756 13.7714 2.83984 13.7714H15.1232C15.6755 13.7714 16.1232 13.3236 16.1232 12.7714V7.80469" stroke="currentColor"/>
<path d="M12.1602 4.03516L12.1602 2.84195C12.1602 2.28966 11.7124 1.84195 11.1602 1.84195L6.80266 1.84195C6.25038 1.84195 5.80266 2.28966 5.80266 2.84195L5.80266 4.03516" stroke="currentColor"/>
<path d="M10.9023 4.03516L10.9023 2.00481L7.05976 2.00481L7.05976 4.03516" stroke="currentColor"/>
<rect x="4.24609" y="7.08594" width="1.19109" height="2.50832" rx="0.595546" stroke="currentColor"/>
<rect x="12.3398" y="7.08594" width="1.19109" height="2.50832" rx="0.595546" stroke="currentColor"/>
<path d="M4.90625 6.8732L4.90625 4.03516" stroke="currentColor"/>
<path d="M13 6.8732L13 4.03516" stroke="currentColor"/>
<rect x="8.51953" y="11.3984" width="0.953491" height="1.05487" rx="0.25" fill="currentColor"/>
<rect x="5.75781" y="11.3984" width="0.953491" height="1.05487" rx="0.25" fill="currentColor"/>
<rect x="11.2812" y="11.3984" width="0.953491" height="1.05487" rx="0.25" fill="currentColor"/>
</svg>
