<svg width="16" height="16" viewBox="0 0 16 16" fill="none" xmlns="http://www.w3.org/2000/svg">
<path d="M11.5484 7.51442C11.5484 8.02507 11.4854 8.33683 11.333 8.66053C11.1675 9.01189 10.8893 9.39608 10.396 10.0431C9.7281 10.9193 9.4731 12.0021 9.37246 12.683C9.34713 12.8545 9.21045 12.9525 9.10209 12.9525H7.34862C7.24026 12.9525 7.10358 12.8545 7.07824 12.683C6.97761 12.0021 6.72261 10.9193 6.05467 10.0431C5.56137 9.39608 5.28317 9.01189 5.11775 8.66053C4.96536 8.33683 4.90234 8.02507 4.90234 7.51442C4.90234 5.67917 6.39011 4.19141 8.22535 4.19141C10.0606 4.19141 11.5484 5.67917 11.5484 7.51442Z" stroke="currentColor" stroke-linecap="round"/>
<path d="M6.5 7C6.5 6.44772 6.94772 6 7.5 6" stroke="currentColor" stroke-linecap="round"/>
<line x1="7.02734" y1="14.25" x2="9.56717" y2="14.25" stroke="currentColor" stroke-linecap="round"/>
<line x1="7.5" y1="15.3984" x2="9" y2="15.3984" stroke="currentColor" stroke-linecap="round"/>
<path d="M8.15487 2.55617L8.15487 0.998647M10.8451 3.12254L11.6947 1.56502M5.4646 3.12254L4.61505 1.56502M12.5443 5.24644L13.9602 4.11369M3.76549 5.24644L2.34956 4.11369M13.3938 7.65352L14.8097 7.65352M2.91593 7.65352L1.5 7.65352M12.8274 10.0606L13.8186 10.9102M3.4823 10.0606L2.49115 10.9102" stroke="currentColor" stroke-linecap="round"/>
<path d="M7.5 8.5L7.98342 8.37229C7.91924 8.12937 7.68477 7.97181 7.43561 8.00416C7.18645 8.03652 7 8.24875 7 8.5H7.5ZM9 9H9.5C9.5 8.78689 9.36492 8.5972 9.16353 8.5275C8.96214 8.4578 8.7387 8.52341 8.60697 8.69093L9 9ZM8.25 9.5L8.24123 9.99992L8.25 9.5ZM8 13V8.5H7V13H8ZM8.5 9V12.5H9.5V9H8.5ZM7.5 8.5C7.01658 8.62771 7.01661 8.62782 7.01665 8.62794C7.01666 8.62798 7.01669 8.6281 7.01671 8.62819C7.01676 8.62836 7.01681 8.62855 7.01686 8.62876C7.01697 8.62917 7.0171 8.62965 7.01724 8.63018C7.01753 8.63125 7.01788 8.63257 7.01831 8.63411C7.01915 8.63721 7.02026 8.64125 7.02164 8.64618C7.0244 8.65603 7.02825 8.66944 7.03318 8.68592C7.04302 8.71881 7.0573 8.76434 7.076 8.81842C7.11288 8.92511 7.16936 9.07204 7.24622 9.22329C7.32097 9.3704 7.4271 9.54595 7.57154 9.69187C7.71552 9.83734 7.94026 9.99464 8.24123 9.99992L8.25877 9.00008C8.3157 9.00108 8.32467 9.03124 8.28226 8.9884C8.24032 8.94602 8.18946 8.87211 8.13772 8.77029C8.08809 8.67261 8.04858 8.57115 8.02111 8.49167C8.00762 8.45267 7.99762 8.42068 7.99123 8.39931C7.98805 8.38867 7.98579 8.38077 7.98448 8.37609C7.98382 8.37376 7.98341 8.37223 7.98323 8.37157C7.98314 8.37125 7.98311 8.37114 7.98314 8.37125C7.98316 8.37131 7.98319 8.37143 7.98323 8.3716C7.98326 8.37169 7.98328 8.37179 7.98331 8.3719C7.98333 8.37196 7.98335 8.37206 7.98336 8.37209C7.98339 8.37219 7.98342 8.37229 7.5 8.5ZM8.24123 9.99992C8.44663 10.0035 8.6243 9.93363 8.7521 9.86505C8.88359 9.79449 8.99789 9.70603 9.08654 9.62834C9.17676 9.54926 9.25144 9.47156 9.3032 9.41431C9.32939 9.38534 9.35052 9.36072 9.36567 9.34261C9.37327 9.33353 9.37941 9.32603 9.384 9.32036C9.38629 9.31753 9.3882 9.31515 9.38971 9.31326C9.39047 9.31231 9.39112 9.31149 9.39168 9.31079C9.39195 9.31044 9.39221 9.31012 9.39243 9.30983C9.39254 9.30969 9.39265 9.30956 9.39275 9.30943C9.3928 9.30936 9.39287 9.30927 9.3929 9.30924C9.39297 9.30916 9.39303 9.30907 9 9C8.60697 8.69093 8.60703 8.69085 8.60709 8.69077C8.60711 8.69074 8.60717 8.69067 8.60721 8.69062C8.60729 8.69052 8.60736 8.69043 8.60742 8.69035C8.60755 8.69019 8.60766 8.69005 8.60774 8.68994C8.60791 8.68973 8.60799 8.68963 8.60798 8.68964C8.60796 8.68967 8.6076 8.69013 8.60689 8.691C8.60547 8.69275 8.60272 8.69612 8.59875 8.70087C8.59076 8.71042 8.57804 8.72529 8.56142 8.74367C8.52754 8.78114 8.48071 8.8296 8.42743 8.87629C8.37257 8.92437 8.32137 8.9613 8.27924 8.98391C8.23342 9.0085 8.22935 8.99956 8.25877 9.00008L8.24123 9.99992Z" fill="currentColor"/>
</svg>
