<svg width="16" height="16" viewBox="0 0 16 16" fill="none" xmlns="http://www.w3.org/2000/svg">
<path d="M4.23468 11.6603L4.14751 11.6648L4.06703 11.6986L3.05458 12.1236C3.00862 12.1429 2.88178 12.1724 2.65455 11.9966C2.41758 11.8132 2.11499 11.4304 1.8201 10.7279C1.52522 10.0254 1.46386 9.5413 1.49894 9.24372C1.53258 8.95838 1.64253 8.88855 1.68848 8.86926L2.70093 8.44425L2.76744 8.41634L2.82334 8.37076L10.7339 1.9216C10.8026 1.91159 10.9229 1.92332 11.1172 2.02519C11.365 2.15515 11.6661 2.40003 11.9974 2.76754C12.6566 3.49891 13.36 4.63164 13.932 5.99442C14.5041 7.35719 14.82 8.65255 14.8804 9.63532C14.9107 10.1292 14.8746 10.5156 14.7938 10.7835C14.7337 10.9826 14.6624 11.0775 14.6081 11.1226L4.23468 11.6603Z" stroke="currentColor"/>
<path d="M10.5912 11.3468C10.9539 12.4936 10.2717 13.7319 9.0676 14.1127C7.86347 14.4935 6.59333 13.8725 6.23067 12.7257C6.11107 12.3475 6.1051 11.9593 6.19403 11.5953" stroke="currentColor"/>
</svg>
