<svg width="16" height="16" viewBox="0 0 16 16" fill="none" xmlns="http://www.w3.org/2000/svg">
<path d="M2.22867 12.1815L2.12891 13.3552L12.9136 14.2726L13.8153 3.67146L3.03063 2.75391L2.36911 10.5307" stroke="currentColor" stroke-linecap="round" stroke-linejoin="round"/>
<path d="M12.9102 14.273L14.2528 12.1705L15.321 13.2958L13.8119 3.67188" stroke="currentColor" stroke-linecap="round" stroke-linejoin="round"/>
<path d="M11.3964 12.965C11.3964 12.965 3.91311 12.3283 2.22566 12.1849C0.538203 12.0414 0.678641 10.3906 0.678641 10.3906L9.77583 11.1645C9.77583 11.1645 9.74538 12.8245 11.3962 12.965C12.57 13.0647 13.0977 12.0751 13.0977 12.0751L14.2532 12.1734" stroke="currentColor" stroke-linecap="round" stroke-linejoin="round"/>
<path d="M2.83594 5.03125L13.6208 5.9486" stroke="currentColor" stroke-linecap="round" stroke-linejoin="round"/>
<path d="M6.51566 2.55961C6.40387 2.11606 6.02122 1.77147 5.53981 1.7306C4.93318 1.67892 4.39948 2.12908 4.34779 2.7357C4.2961 3.34233 4.74627 3.87603 5.35289 3.92772" stroke="currentColor" stroke-linecap="round" stroke-linejoin="round"/>
<path d="M9.71488 2.82914C9.60309 2.38559 9.22044 2.041 8.73903 2.00013C8.1324 1.94845 7.5987 2.39861 7.54701 3.00524C7.49532 3.61186 7.94548 4.14556 8.55211 4.19725" stroke="currentColor" stroke-linecap="round" stroke-linejoin="round"/>
<path d="M12.9102 3.10258C12.7984 2.65902 12.4158 2.31464 11.9343 2.27357C11.3277 2.22188 10.794 2.67205 10.7423 3.27867C10.6906 3.8853 11.1408 4.419 11.7474 4.47069" stroke="currentColor" stroke-linecap="round" stroke-linejoin="round"/>
<path d="M3.73828 10.5002L6.12893 8.89311L8.30579 9.5994L10.9355 6.91797M10.9355 6.91797L8.80579 7.0994M10.9355 6.91797L10.8756 9.10707" stroke="currentColor" stroke-linecap="round" stroke-linejoin="round"/>
</svg>
