<svg width="16" height="16" viewBox="0 0 16 16" fill="none" xmlns="http://www.w3.org/2000/svg">
<path d="M5.63417 3.33784C5.70346 3.13574 5.8935 3 6.10714 3H9.55952C9.77317 3 9.96321 3.13574 10.0325 3.33784L10.6896 5.2545C10.8009 5.57904 10.5597 5.91667 10.2167 5.91667H5.45C5.10692 5.91667 4.86576 5.57904 4.97703 5.2545L5.63417 3.33784Z" fill="currentColor"/>
<path fill-rule="evenodd" clip-rule="evenodd" d="M13.6667 5.16797C13.6667 4.89183 13.4428 4.66797 13.1667 4.66797H2.5C2.22386 4.66797 2 4.89183 2 5.16797V12.5013C2 12.7774 2.22386 13.0013 2.5 13.0013H13.1667C13.4428 13.0013 13.6667 12.7774 13.6667 12.5013V5.16797ZM9.33203 8.83594C9.33203 9.66436 8.66046 10.3359 7.83203 10.3359C7.0036 10.3359 6.33203 9.66436 6.33203 8.83594C6.33203 8.00751 7.0036 7.33594 7.83203 7.33594C8.66046 7.33594 9.33203 8.00751 9.33203 8.83594ZM10.332 8.83594C10.332 10.2166 9.21274 11.3359 7.83203 11.3359C6.45132 11.3359 5.33203 10.2166 5.33203 8.83594C5.33203 7.45523 6.45132 6.33594 7.83203 6.33594C9.21274 6.33594 10.332 7.45523 10.332 8.83594Z" fill="currentColor"/>
</svg>
