<svg width="18" height="17" viewBox="0 0 18 17" fill="none" xmlns="http://www.w3.org/2000/svg">
<path fill-rule="evenodd" clip-rule="evenodd" d="M16.0647 8.125H6.92188V7.125H16.0647V8.125Z" fill="currentColor"/>
<path fill-rule="evenodd" clip-rule="evenodd" d="M1.13672 7.05469C1.13672 6.77855 1.36058 6.55469 1.63672 6.55469H4.63672C4.91286 6.55469 5.13672 6.77855 5.13672 7.05469C5.13672 7.33083 4.91286 7.55469 4.63672 7.55469H1.63672C1.36058 7.55469 1.13672 7.33083 1.13672 7.05469Z" fill="currentColor"/>
<path fill-rule="evenodd" clip-rule="evenodd" d="M0.136719 9.05469C0.136719 8.77855 0.360576 8.55469 0.636719 8.55469H4.63672C4.91286 8.55469 5.13672 8.77855 5.13672 9.05469C5.13672 9.33083 4.91286 9.55469 4.63672 9.55469H0.636719C0.360576 9.55469 0.136719 9.33083 0.136719 9.05469Z" fill="currentColor"/>
<path fill-rule="evenodd" clip-rule="evenodd" d="M2.13672 11.0547C2.13672 10.7785 2.36058 10.5547 2.63672 10.5547H5.63672C5.91286 10.5547 6.13672 10.7785 6.13672 11.0547C6.13672 11.3308 5.91286 11.5547 5.63672 11.5547H2.63672C2.36058 11.5547 2.13672 11.3308 2.13672 11.0547Z" fill="currentColor"/>
<path fill-rule="evenodd" clip-rule="evenodd" d="M2.70703 3.05469C2.70703 2.77855 2.93089 2.55469 3.20703 2.55469H5.58028C5.92856 2.55469 6.23102 2.79445 6.31049 3.13354L8.31768 11.6975H15.207C15.4832 11.6975 15.707 11.9214 15.707 12.1975C15.707 12.4737 15.4832 12.6975 15.207 12.6975H8.1195C7.77121 12.6975 7.46876 12.4578 7.38929 12.1187L5.3821 3.55469H3.20703C2.93089 3.55469 2.70703 3.33083 2.70703 3.05469Z" fill="currentColor"/>
<path fill-rule="evenodd" clip-rule="evenodd" d="M15.98 5.26953H6.06641V4.26953H16.3089C16.8049 4.26953 17.1643 4.74237 17.0316 5.22026L15.7419 9.86312C15.6517 10.1877 15.3561 10.4124 15.0192 10.4124H7.49498V9.41239H14.8292L15.98 5.26953Z" fill="currentColor"/>
<path fill-rule="evenodd" clip-rule="evenodd" d="M11.4922 4.26953C11.7683 4.26953 11.9922 4.49339 11.9922 4.76953V9.91239C11.9922 10.1885 11.7683 10.4124 11.4922 10.4124C11.216 10.4124 10.9922 10.1885 10.9922 9.91239V4.76953C10.9922 4.49339 11.216 4.26953 11.4922 4.26953Z" fill="currentColor"/>
<path fill-rule="evenodd" clip-rule="evenodd" d="M14.1189 4.27263C14.3933 4.30313 14.5911 4.55034 14.5606 4.82479L13.9892 9.96765C13.9587 10.2421 13.7115 10.4399 13.437 10.4094C13.1626 10.3789 12.9648 10.1317 12.9953 9.85722L13.5667 4.71436C13.5972 4.43991 13.8444 4.24214 14.1189 4.27263Z" fill="currentColor"/>
<path fill-rule="evenodd" clip-rule="evenodd" d="M8.58034 4.27263C8.30589 4.30313 8.10812 4.55034 8.13862 4.82479L8.71005 9.96765C8.74054 10.2421 8.98775 10.4399 9.2622 10.4094C9.53666 10.3789 9.73442 10.1317 9.70393 9.85722L9.1325 4.71436C9.10201 4.43991 8.8548 4.24214 8.58034 4.27263Z" fill="currentColor"/>
<path d="M9.78069 14.197C9.78069 14.6704 9.39694 15.0541 8.92355 15.0541C8.45016 15.0541 8.06641 14.6704 8.06641 14.197C8.06641 13.7236 8.45016 13.3398 8.92355 13.3398C9.39694 13.3398 9.78069 13.7236 9.78069 14.197Z" fill="currentColor"/>
<circle cx="14.0642" cy="14.197" r="0.857143" fill="currentColor"/>
</svg>
