<svg width="18" height="18" viewBox="0 0 18 18" fill="none" xmlns="http://www.w3.org/2000/svg">
<path d="M11.6661 12.9033C12.1899 12.3753 11.1362 10.4573 9.31248 8.61924C7.48876 6.7812 5.58567 5.71918 5.06181 6.24715C4.53795 6.77512 5.5917 8.69315 7.41542 10.5312C9.23914 12.3692 11.1422 13.4312 11.6661 12.9033Z" stroke="currentColor" stroke-linecap="round" stroke-linejoin="round"/>
<path d="M5.06301 6.25L1.23977 14.6142C1.23977 14.6142 0.707461 15.6386 1.52972 16.4679C2.35199 17.2966 3.35148 16.7633 3.35148 16.7633L11.6674 12.9069" stroke="currentColor" stroke-linecap="round" stroke-linejoin="round"/>
<path d="M4.08984 8.56641C4.28085 9.41595 4.77872 10.6335 6.04123 11.9059C7.35572 13.2307 8.62388 13.7331 9.48058 13.9193" stroke="currentColor" stroke-miterlimit="10"/>
<path d="M2.85938 10.9648C3.06416 11.7784 3.50128 12.705 4.37552 13.5861C5.22471 14.4419 6.1215 14.8875 6.91809 15.1078" stroke="currentColor" stroke-miterlimit="10"/>
<path d="M1.66016 13.6875C1.87621 14.2253 2.20938 14.7643 2.70724 15.2654C3.20699 15.7691 3.74556 16.1068 4.28413 16.3277" stroke="currentColor" stroke-miterlimit="10"/>
<path d="M4.37109 4.10938C4.64724 4.10938 4.87109 3.88552 4.87109 3.60938C4.87109 3.33323 4.64724 3.10938 4.37109 3.10938C4.09495 3.10938 3.87109 3.33323 3.87109 3.60938C3.87109 3.88552 4.09495 4.10938 4.37109 4.10938Z" fill="currentColor"/>
<path d="M14.2783 4.11924C14.555 4.11924 14.7793 3.89317 14.7793 3.61431C14.7793 3.33544 14.555 3.10938 14.2783 3.10938C14.0016 3.10938 13.7773 3.33544 13.7773 3.61431C13.7773 3.89317 14.0016 4.11924 14.2783 4.11924Z" fill="currentColor"/>
<path d="M10.4229 7.72861C10.6996 7.72861 10.9239 7.50255 10.9239 7.22368C10.9239 6.94482 10.6996 6.71875 10.4229 6.71875C10.1462 6.71875 9.92188 6.94482 9.92188 7.22368C9.92188 7.50255 10.1462 7.72861 10.4229 7.72861Z" fill="currentColor"/>
<path d="M13.0557 13.7325C13.3324 13.7325 13.5567 13.5065 13.5567 13.2276C13.5567 12.9487 13.3324 12.7227 13.0557 12.7227C12.779 12.7227 12.5547 12.9487 12.5547 13.2276C12.5547 13.5065 12.779 13.7325 13.0557 13.7325Z" fill="currentColor"/>
<path d="M16.8549 7.34375C16.2243 7.58359 15.8704 6.63937 15.2392 6.87921C14.6079 7.11906 14.9624 8.06391 14.3317 8.30438C13.7011 8.54485 13.3467 7.6 12.716 7.83985C12.0854 8.07969 12.4392 9.02454 11.8086 9.26501" stroke="currentColor" stroke-linecap="round" stroke-linejoin="round"/>
<path d="M10.6887 1.07031C10.4657 1.71157 9.52011 1.37769 9.29716 2.01895C9.07422 2.66021 10.0199 2.9941 9.79691 3.63536C9.57396 4.27662 8.62833 3.94274 8.40538 4.584C8.18244 5.22526 9.12807 5.55915 8.90513 6.20104" stroke="currentColor" stroke-linecap="round" stroke-linejoin="round"/>
<path d="M8.36328 11.433C8.36328 11.433 11.8903 8.70381 14.8687 12.581" stroke="currentColor" stroke-linecap="round" stroke-linejoin="round"/>
<path d="M6.35716 9.35372C6.35716 9.35372 8.42064 7.00642 6.13672 3.61328" stroke="currentColor" stroke-linecap="round" stroke-linejoin="round"/>
<path d="M10.9531 5.46485C10.9531 5.46485 12.0534 4.55409 12.3985 2.34375" stroke="currentColor" stroke-linecap="round" stroke-linejoin="round"/>
<path d="M12.0508 6.60252C12.0508 6.60252 13.3164 5.33641 16.1396 5" stroke="currentColor" stroke-linecap="round" stroke-linejoin="round"/>
</svg>
