<svg width="16" height="16" viewBox="0 0 16 16" fill="none" xmlns="http://www.w3.org/2000/svg">
<path d="M8 0.868207L9.14415 2.49239L9.38438 2.83341L9.76294 2.6582L11.5659 1.82369L11.7447 3.80235L11.7822 4.2178L12.1976 4.25533L14.1763 4.4341L13.3418 6.23706L13.1666 6.61562L13.5076 6.85585L15.1318 8L13.5076 9.14415L13.1666 9.38438L13.3418 9.76294L14.1763 11.5659L12.1976 11.7447L11.7822 11.7822L11.7447 12.1976L11.5659 14.1763L9.76294 13.3418L9.38438 13.1666L9.14415 13.5076L8 15.1318L6.85585 13.5076L6.61562 13.1666L6.23706 13.3418L4.4341 14.1763L4.25533 12.1976L4.2178 11.7822L3.80235 11.7447L1.82369 11.5659L2.6582 9.76294L2.83341 9.38438L2.49239 9.14415L0.868207 8L2.49239 6.85585L2.83341 6.61562L2.6582 6.23706L1.82369 4.4341L3.80235 4.25533L4.2178 4.2178L4.25533 3.80235L4.4341 1.82369L6.23706 2.6582L6.61562 2.83341L6.85585 2.49239L8 0.868207Z" stroke="currentColor"/>
</svg>
