<svg width="16" height="16" viewBox="0 0 16 16" fill="none" xmlns="http://www.w3.org/2000/svg">
<mask id="path-1-inside-1_336_170" fill="white">
<path d="M11.9497 12.9497C11.1358 13.7637 10.1336 14.3644 9.03199 14.6986C7.93041 15.0327 6.76341 15.0901 5.63437 14.8655C4.50533 14.6409 3.44911 14.1414 2.55925 13.4111C1.66939 12.6808 0.973374 11.7423 0.532845 10.6788C0.0923159 9.61526 -0.0791257 8.4595 0.0337063 7.31389C0.146538 6.16827 0.540161 5.06817 1.17971 4.11101C1.81926 3.15386 2.68499 2.36921 3.70022 1.82656C4.71544 1.2839 5.84883 1 6.99999 1L7 8L11.9497 12.9497Z"/>
</mask>
<path d="M11.9497 12.9497C11.1358 13.7637 10.1336 14.3644 9.03199 14.6986C7.93041 15.0327 6.76341 15.0901 5.63437 14.8655C4.50533 14.6409 3.44911 14.1414 2.55925 13.4111C1.66939 12.6808 0.973374 11.7423 0.532845 10.6788C0.0923159 9.61526 -0.0791257 8.4595 0.0337063 7.31389C0.146538 6.16827 0.540161 5.06817 1.17971 4.11101C1.81926 3.15386 2.68499 2.36921 3.70022 1.82656C4.71544 1.2839 5.84883 1 6.99999 1L7 8L11.9497 12.9497Z" stroke="currentColor" stroke-width="2" mask="url(#path-1-inside-1_336_170)"/>
<mask id="path-2-inside-2_336_170" fill="white">
<path d="M8 0C8.91925 1.0962e-08 9.8295 0.18106 10.6788 0.532843C11.5281 0.884626 12.2997 1.40024 12.9497 2.05025C13.5998 2.70026 14.1154 3.47194 14.4672 4.32122C14.8189 5.1705 15 6.08075 15 7L8 7V0Z"/>
</mask>
<path d="M8 0C8.91925 1.0962e-08 9.8295 0.18106 10.6788 0.532843C11.5281 0.884626 12.2997 1.40024 12.9497 2.05025C13.5998 2.70026 14.1154 3.47194 14.4672 4.32122C14.8189 5.1705 15 6.08075 15 7L8 7V0Z" stroke="currentColor" stroke-width="2" mask="url(#path-2-inside-2_336_170)"/>
<mask id="path-3-inside-3_336_170" fill="white">
<path d="M16 8C16 8.91925 15.8189 9.8295 15.4672 10.6788C15.1154 11.5281 14.5998 12.2997 13.9497 12.9497L9 8H16Z"/>
</mask>
<path d="M16 8C16 8.91925 15.8189 9.8295 15.4672 10.6788C15.1154 11.5281 14.5998 12.2997 13.9497 12.9497L9 8H16Z" stroke="currentColor" stroke-width="2" mask="url(#path-3-inside-3_336_170)"/>
</svg>
