<svg width="17" height="16" viewBox="0 0 17 16" fill="none" xmlns="http://www.w3.org/2000/svg">
<g clip-path="url(#clip0_6414_111185)">
<path d="M7.00404 1.00016V8.00724L11.9381 12.9464C11.9418 12.968 11.9068 12.9933 11.8925 13.007C9.45419 15.3537 5.73523 15.6786 2.95398 13.7148C0.27987 11.8265 -0.724678 8.32002 0.546626 5.28159C1.62208 2.71061 4.20217 0.980788 7.00404 1.00016ZM5.98887 2.0938C3.3941 2.49876 1.33721 4.68322 1.03984 7.29044C0.491338 12.099 5.54282 15.5786 9.8312 13.2883C9.98301 13.2073 10.3132 13.0283 10.4297 12.9186C10.4409 12.908 10.4606 12.9052 10.455 12.883L5.98887 8.39783V2.0938Z" fill="currentColor"/>
<path d="M15.0008 6.99935H7.98828V8.25264e-05C9.30706 -0.00647929 10.619 0.378481 11.7291 1.07778C13.1075 1.94613 14.1664 3.30568 14.6612 4.8627C14.8814 5.55513 14.987 6.27193 15.0008 6.99935ZM13.9075 5.99946C13.5139 3.52628 11.4823 1.47462 9.00345 1.09372V5.99946H13.9075Z" fill="currentColor"/>
<path d="M16.0008 8C15.987 8.72742 15.8814 9.44422 15.6612 10.1367C15.3239 11.1981 14.7238 12.1602 13.947 12.9523L9.00391 8H16.0008ZM14.9075 8.9999H11.4247L13.8845 11.4681C14.409 10.741 14.7598 9.88699 14.9075 8.9999Z" fill="currentColor"/>
</g>
<defs>
<clipPath id="clip0_6414_111185">
<rect width="16" height="15" fill="white"/>
</clipPath>
</defs>
</svg>
