<svg width="16" height="16" viewBox="0 0 16 16" fill="none" xmlns="http://www.w3.org/2000/svg">
<path d="M10.8377 6.02563C10.6458 6.22422 10.6458 6.54619 10.8377 6.74478C11.0295 6.94337 11.3406 6.94337 11.5325 6.74478L10.8377 6.02563ZM12.299 6.86587L11.9743 7.20197L12.6691 7.92112L12.9939 7.58502L12.299 6.86587ZM11.5325 6.74478L11.8573 6.40868L11.1624 5.68953L10.8377 6.02563L11.5325 6.74478ZM12.299 6.40868C12.421 6.53493 12.421 6.73962 12.299 6.86587L12.9939 7.58502C13.4996 7.0616 13.4996 6.21296 12.9939 5.68953L12.299 6.40868ZM12.9939 5.68953C12.4881 5.16611 11.6681 5.16611 11.1624 5.68953L11.8573 6.40868C11.9792 6.28243 12.177 6.28243 12.299 6.40868L12.9939 5.68953Z" fill="currentColor"/>
<path d="M10.5346 11.762L13.2949 8.90514C13.6087 8.5803 13.6087 8.05363 13.2949 7.7288V7.7288C12.981 7.40396 12.4721 7.40396 12.1583 7.7288L9.39796 10.5856" stroke="currentColor" stroke-linecap="round"/>
<path d="M12.5637 9.66359L12.6449 9.57957C12.9588 9.25473 13.4676 9.25473 13.7815 9.57957V9.57957C14.0954 9.90441 14.0959 10.4305 13.782 10.7554C12.9296 11.6376 11.3572 13.265 10.7776 13.8648C9.96577 14.7051 6.92943 15.9318 5.17583 14.1169C4.12041 13.0246 3.87685 12.4364 4.2016 10.7559C4.50325 9.1949 4.38459 7.05387 4.36619 6.75732C4.36471 6.73344 4.36195 6.71077 4.36011 6.68692C4.31578 6.11452 5.10787 5.64412 5.74413 6.30263C6.27722 6.85436 6.05963 7.74677 6.09349 8.36791C6.11731 8.80498 6.59534 8.78261 6.89443 8.47306L9.88458 5.37835C10.1984 5.05351 10.7073 5.05351 11.0212 5.37835C11.335 5.70319 11.335 6.22985 11.0212 6.55469L8.34206 9.32749" stroke="currentColor" stroke-linecap="round"/>
<path d="M6.2441 14.8608C5.24736 14.9699 4.18682 14.7729 3.39067 13.9489C2.33526 12.8566 2.0917 12.2684 2.41644 10.5879C2.71809 9.02693 2.59943 6.8859 2.58104 6.58935C2.57955 6.56547 2.5768 6.5428 2.57495 6.51895C2.53062 5.94655 3.32272 5.47615 3.95898 6.13466C4.19233 6.37618 4.33517 6.57012 4.36489 6.89087M6.15097 7.22696L8.09943 5.21038C8.41329 4.88554 8.92216 4.88554 9.23602 5.21038C9.39504 5.37496 9.47349 5.59134 9.47138 5.80704" stroke="currentColor"/>
<path d="M11.7519 3.78109L12.6449 1.51244M12.4826 4.53731L14.5934 3.52902M10.6153 3.61305L9.96581 1.26036" stroke="currentColor" stroke-linecap="round"/>
</svg>
