<svg width="16" height="16" viewBox="0 0 16 16" fill="none" xmlns="http://www.w3.org/2000/svg">
<path d="M10 3.53125H11.625C12.0737 3.53125 12.4375 3.89502 12.4375 4.34375V13.6875C12.4375 14.1362 12.0737 14.5 11.625 14.5H4.3125C3.86377 14.5 3.5 14.1362 3.5 13.6875V4.34375C3.5 3.89502 3.86377 3.53125 4.3125 3.53125H5.9375" stroke="currentColor"/>
<path d="M9.1875 2.71875C9.1875 2.04565 8.64185 1.5 7.96875 1.5C7.29565 1.5 6.75 2.04565 6.75 2.71875" stroke="currentColor"/>
<path d="M5.7551 4.65625L6.09051 3.21875H9.84699L10.1824 4.65625H5.7551ZM9.83008 3.1463L9.83014 3.14655C9.83012 3.14647 9.8301 3.14639 9.83008 3.1463L9.92138 3.125L9.83008 3.1463Z" stroke="currentColor"/>
</svg>
