<svg width="16" height="11" viewBox="0 0 16 11" fill="none" xmlns="http://www.w3.org/2000/svg">
<rect x="0.5" y="0.5" width="15" height="10" rx="0.5" stroke="currentColor"/>
<path d="M6.84863 5.9209L7.68945 6.1875C7.56055 6.65625 7.3457 7.00488 7.04492 7.2334C6.74609 7.45996 6.36621 7.57324 5.90527 7.57324C5.33496 7.57324 4.86621 7.37891 4.49902 6.99023C4.13184 6.59961 3.94824 6.06641 3.94824 5.39062C3.94824 4.67578 4.13281 4.12109 4.50195 3.72656C4.87109 3.33008 5.35645 3.13184 5.95801 3.13184C6.4834 3.13184 6.91016 3.28711 7.23828 3.59766C7.43359 3.78125 7.58008 4.04492 7.67773 4.38867L6.81934 4.59375C6.76855 4.37109 6.66211 4.19531 6.5 4.06641C6.33984 3.9375 6.14453 3.87305 5.91406 3.87305C5.5957 3.87305 5.33691 3.9873 5.1377 4.21582C4.94043 4.44434 4.8418 4.81445 4.8418 5.32617C4.8418 5.86914 4.93945 6.25586 5.13477 6.48633C5.33008 6.7168 5.58398 6.83203 5.89648 6.83203C6.12695 6.83203 6.3252 6.75879 6.49121 6.6123C6.65723 6.46582 6.77637 6.23535 6.84863 5.9209ZM11.1846 5.9209L12.0254 6.1875C11.8965 6.65625 11.6816 7.00488 11.3809 7.2334C11.082 7.45996 10.7021 7.57324 10.2412 7.57324C9.6709 7.57324 9.20215 7.37891 8.83496 6.99023C8.46777 6.59961 8.28418 6.06641 8.28418 5.39062C8.28418 4.67578 8.46875 4.12109 8.83789 3.72656C9.20703 3.33008 9.69238 3.13184 10.2939 3.13184C10.8193 3.13184 11.2461 3.28711 11.5742 3.59766C11.7695 3.78125 11.916 4.04492 12.0137 4.38867L11.1553 4.59375C11.1045 4.37109 10.998 4.19531 10.8359 4.06641C10.6758 3.9375 10.4805 3.87305 10.25 3.87305C9.93164 3.87305 9.67285 3.9873 9.47363 4.21582C9.27637 4.44434 9.17773 4.81445 9.17773 5.32617C9.17773 5.86914 9.27539 6.25586 9.4707 6.48633C9.66602 6.7168 9.91992 6.83203 10.2324 6.83203C10.4629 6.83203 10.6611 6.75879 10.8271 6.6123C10.9932 6.46582 11.1123 6.23535 11.1846 5.9209Z" fill="currentColor"/>
</svg>
