<svg width="16" height="16" viewBox="0 0 16 16" fill="none" xmlns="http://www.w3.org/2000/svg">
<mask id="path-1-inside-1_328_215" fill="white">
<path fill-rule="evenodd" clip-rule="evenodd" d="M9.68104 4.5387C9.02287 3.97046 8.15416 3.625 7.20192 3.625C5.28095 3.625 3.69993 5.03086 3.50146 6.83549C2.09574 6.98256 1 8.1713 1 9.61597C1 11.16 2.25171 12.4118 3.79579 12.4118H8.12809C8.16191 12.4118 8.1956 12.4112 8.22913 12.41H12.6642C13.9877 12.41 15.0606 11.3371 15.0606 10.0136C15.0606 8.93192 14.344 8.01764 13.3596 7.71964C13.3902 7.55679 13.4061 7.38903 13.4061 7.21766C13.4061 5.67359 12.1102 4.42188 10.5117 4.42188C10.223 4.42188 9.94414 4.4627 9.68104 4.5387Z"/>
</mask>
<path d="M9.68104 4.5387L9.02754 5.29562L9.43782 5.64984L9.95855 5.49942L9.68104 4.5387ZM3.50146 6.83549L3.60552 7.83006L4.40734 7.74617L4.49547 6.9448L3.50146 6.83549ZM8.22913 12.41V11.41H8.21138L8.19363 11.4106L8.22913 12.41ZM13.3596 7.71964L12.3767 7.53517L12.2113 8.41682L13.0698 8.67674L13.3596 7.71964ZM10.3345 3.78177C9.4987 3.06013 8.39926 2.625 7.20192 2.625V4.625C7.90906 4.625 8.54705 4.88078 9.02754 5.29562L10.3345 3.78177ZM7.20192 2.625C4.7932 2.625 2.76406 4.39282 2.50746 6.72618L4.49547 6.9448C4.63579 5.66889 5.7687 4.625 7.20192 4.625V2.625ZM3.39741 5.84092C1.48781 6.04071 0 7.65394 0 9.61597H2C2 8.68867 2.70366 7.92442 3.60552 7.83006L3.39741 5.84092ZM0 9.61597C0 11.7123 1.69943 13.4118 3.79579 13.4118V11.4118C2.804 11.4118 2 10.6078 2 9.61597H0ZM3.79579 13.4118H8.12809V11.4118H3.79579V13.4118ZM8.12809 13.4118C8.17375 13.4118 8.21927 13.4109 8.26463 13.4093L8.19363 11.4106C8.17192 11.4114 8.15007 11.4118 8.12809 11.4118V13.4118ZM8.22913 13.41H12.6642V11.41H8.22913V13.41ZM12.6642 13.41C14.54 13.41 16.0606 11.8894 16.0606 10.0136H14.0606C14.0606 10.7848 13.4354 11.41 12.6642 11.41V13.41ZM16.0606 10.0136C16.0606 8.47906 15.0437 7.18466 13.6493 6.76253L13.0698 8.67674C13.6442 8.85062 14.0606 9.38478 14.0606 10.0136H16.0606ZM12.4061 7.21766C12.4061 7.32678 12.396 7.43279 12.3767 7.53517L14.3424 7.9041C14.3843 7.68079 14.4061 7.45128 14.4061 7.21766H12.4061ZM10.5117 5.42188C11.5909 5.42188 12.4061 6.25829 12.4061 7.21766H14.4061C14.4061 5.0889 12.6295 3.42188 10.5117 3.42188V5.42188ZM9.95855 5.49942C10.1322 5.44927 10.3176 5.42188 10.5117 5.42188V3.42188C10.1283 3.42188 9.75612 3.47613 9.40354 3.57797L9.95855 5.49942Z" fill="currentColor" mask="url(#path-1-inside-1_328_215)"/>
</svg>
