<svg width="16" height="17" viewBox="0 0 16 17" fill="none" xmlns="http://www.w3.org/2000/svg">
<mask id="path-1-inside-1_6414_111126" fill="white">
<path fill-rule="evenodd" clip-rule="evenodd" d="M9.68104 5.40979C9.02287 4.84155 8.15416 4.49609 7.20192 4.49609C5.28091 4.49609 3.69985 5.90202 3.50145 7.70672C2.09573 7.85379 1 9.04253 1 10.4872C1 12.0313 2.25171 13.283 3.79579 13.283H8.12809C8.16312 13.283 8.198 13.2823 8.23272 13.2811H12.6642C13.9877 13.2811 15.0606 12.2082 15.0606 10.8847C15.0606 9.80301 14.344 8.88874 13.3596 8.59073C13.3902 8.42788 13.4061 8.26012 13.4061 8.08876C13.4061 6.54469 12.1102 5.29297 10.5117 5.29297C10.223 5.29297 9.94414 5.33379 9.68104 5.40979Z"/>
</mask>
<path d="M9.68104 5.40979L9.02754 6.16672L9.43782 6.52093L9.95855 6.37051L9.68104 5.40979ZM3.50145 7.70672L3.60551 8.70129L4.40736 8.61739L4.49546 7.81599L3.50145 7.70672ZM8.23272 13.2811V12.2811H8.21433L8.19596 12.2817L8.23272 13.2811ZM13.3596 8.59073L12.3767 8.40626L12.2113 9.28791L13.0698 9.54783L13.3596 8.59073ZM10.3345 4.65287C9.4987 3.93123 8.39926 3.49609 7.20192 3.49609V5.49609C7.90906 5.49609 8.54705 5.75187 9.02754 6.16672L10.3345 4.65287ZM7.20192 3.49609C4.79315 3.49609 2.76396 5.264 2.50744 7.59744L4.49546 7.81599C4.63573 6.54003 5.76866 5.49609 7.20192 5.49609V3.49609ZM3.39739 6.71214C1.4878 6.91194 0 8.52517 0 10.4872H2C2 9.5599 2.70366 8.79565 3.60551 8.70129L3.39739 6.71214ZM0 10.4872C0 12.5836 1.69943 14.283 3.79579 14.283V12.283C2.804 12.283 2 11.479 2 10.4872H0ZM3.79579 14.283H8.12809V12.283H3.79579V14.283ZM8.12809 14.283C8.17539 14.283 8.22252 14.2821 8.26947 14.2804L8.19596 12.2817C8.17347 12.2826 8.15085 12.283 8.12809 12.283V14.283ZM8.23272 14.2811H12.6642V12.2811H8.23272V14.2811ZM12.6642 14.2811C14.54 14.2811 16.0606 12.7604 16.0606 10.8847H14.0606C14.0606 11.6559 13.4354 12.2811 12.6642 12.2811V14.2811ZM16.0606 10.8847C16.0606 9.35016 15.0437 8.05576 13.6493 7.63363L13.0698 9.54783C13.6442 9.72171 14.0606 10.2559 14.0606 10.8847H16.0606ZM12.4061 8.08876C12.4061 8.19787 12.396 8.30388 12.3767 8.40626L14.3424 8.7752C14.3843 8.55188 14.4061 8.32237 14.4061 8.08876H12.4061ZM10.5117 6.29297C11.5909 6.29297 12.4061 7.12938 12.4061 8.08876H14.4061C14.4061 5.95999 12.6295 4.29297 10.5117 4.29297V6.29297ZM9.95855 6.37051C10.1322 6.32036 10.3176 6.29297 10.5117 6.29297V4.29297C10.1283 4.29297 9.75612 4.34722 9.40354 4.44907L9.95855 6.37051Z" fill="currentColor" mask="url(#path-1-inside-1_6414_111126)"/>
</svg>
