<svg width="16" height="16" viewBox="0 0 16 16" fill="none" xmlns="http://www.w3.org/2000/svg">
<path d="M13.1562 11.5312V13.25C13.1562 13.9231 10.7498 14.4688 7.78125 14.4688C4.81272 14.4688 2.40625 13.9231 2.40625 13.25V11.5312" stroke="currentColor"/>
<path d="M7.16366 10.9297C4.486 10.8602 2.40625 10.3446 2.40625 9.7189C2.40625 9.41602 2.89351 9.13895 3.69999 8.92578" stroke="currentColor"/>
<path d="M13.1562 10.5V11.4375C13.1562 12.1106 10.7498 12.6562 7.78125 12.6562C4.81272 12.6562 2.40625 12.1106 2.40625 11.4375V9.71875" stroke="currentColor"/>
<path d="M3.75 8.06359C3.75 8.73668 6.15647 9.28234 9.125 9.28234C12.0935 9.28234 14.5 8.73668 14.5 8.06359C14.5 7.74139 13.9486 7.44839 13.0481 7.23047" stroke="currentColor"/>
<path d="M14.5 8.0625V9.78125C14.5 10.4543 12.0935 11 9.125 11C6.15647 11 3.75 10.4543 3.75 9.78125V8.0625" stroke="currentColor"/>
<path d="M2.40625 5.38642C2.40625 6.05951 4.81272 6.60517 7.78125 6.60517C10.7498 6.60517 13.1562 6.05951 13.1562 5.38642C13.1562 5.09292 12.6987 4.82365 11.9365 4.61328" stroke="currentColor"/>
<path d="M13.1562 5.38672V7.10547C13.1562 7.77857 10.7498 8.32422 7.78125 8.32422C4.81272 8.32422 2.40625 7.77857 2.40625 7.10547V5.38672" stroke="currentColor"/>
<ellipse cx="6.65625" cy="2.73047" rx="5.375" ry="1.21875" stroke="currentColor"/>
<path d="M12.0312 2.73047V4.44922C12.0312 5.12232 9.62478 5.66797 6.65625 5.66797C3.68772 5.66797 1.28125 5.12232 1.28125 4.44922V2.73047" stroke="currentColor"/>
</svg>
