<svg width="16" height="16" viewBox="0 0 16 16" fill="none" xmlns="http://www.w3.org/2000/svg">
<path d="M6.3125 9.8229C6.46827 9.73562 6.62945 9.59574 6.79603 9.40327C6.96262 9.20855 7.04591 9.01832 7.04591 8.83256C7.04591 8.73408 7.02861 8.62218 6.99399 8.49685C6.97452 8.42523 6.94207 8.329 6.89663 8.20814H6.31899V7.83215H6.68894C6.58942 7.63072 6.51587 7.45391 6.46827 7.30172C6.42067 7.1473 6.39688 6.98168 6.39688 6.80487C6.39688 6.46021 6.53425 6.15136 6.80901 5.87832C7.08594 5.60527 7.47969 5.46875 7.99026 5.46875C8.4143 5.46875 8.78209 5.59072 9.09363 5.83467C9.40517 6.07638 9.53498 6.30131 9.55445 6.87873H8.675C8.65337 6.65716 8.6393 6.66276 8.56142 6.52624C8.44675 6.336 8.25312 6.24088 7.98053 6.24088C7.77933 6.24088 7.62031 6.30579 7.50349 6.43559C7.38666 6.56316 7.32825 6.71088 7.32825 6.87873C7.32825 6.97944 7.3488 7.08575 7.3899 7.19765C7.43101 7.30732 7.52296 7.51882 7.66575 7.83215H8.59712V8.20814H7.80529C7.81394 8.29542 7.82043 8.36816 7.82476 8.42635C7.83125 8.48454 7.8345 8.54273 7.8345 8.60092C7.8345 8.81577 7.77175 9.01496 7.64627 9.19848C7.56623 9.31262 7.40397 9.48607 7.1595 9.71883C7.33257 9.65393 7.46022 9.61141 7.54243 9.59126C7.6744 9.55545 7.80313 9.53755 7.92861 9.53755C8.00649 9.53755 8.08221 9.54426 8.15577 9.55769C8.23149 9.57112 8.31154 9.59014 8.39591 9.61476L8.52897 9.65841C8.58738 9.67855 8.63606 9.69198 8.675 9.69869C8.71611 9.70317 8.75072 9.7054 8.77885 9.7054C8.87837 9.7054 8.99519 9.67631 9.12933 9.61812C9.20721 9.58455 9.30457 9.53307 9.42139 9.46369L9.6875 10.2123C9.57933 10.2862 9.42788 10.3578 9.23317 10.4272C9.03846 10.4966 8.85132 10.5312 8.67175 10.5312C8.57656 10.5312 8.47704 10.5189 8.3732 10.4943C8.26935 10.4697 8.15685 10.4373 8.0357 10.397L7.85072 10.3332C7.77067 10.3063 7.70469 10.2862 7.65276 10.2728C7.56623 10.2548 7.47752 10.2459 7.38666 10.2459C7.2893 10.2459 7.18438 10.266 7.07188 10.3063C6.99832 10.3354 6.8631 10.397 6.66623 10.491L6.3125 9.8229Z" fill="currentColor"/>
<circle cx="8" cy="8" r="6.25" stroke="currentColor"/>
<circle cx="8" cy="8" r="4.5625" stroke="currentColor"/>
<path fill-rule="evenodd" clip-rule="evenodd" d="M8.5 1.99609V3.5H7.5V1.99609H8.5Z" fill="currentColor"/>
<path fill-rule="evenodd" clip-rule="evenodd" d="M8.5 13V14.5039H7.5V13H8.5Z" fill="currentColor"/>
<path fill-rule="evenodd" clip-rule="evenodd" d="M6.42309 2.18532L6.91379 3.5335L5.9741 3.87552L5.4834 2.52734L6.42309 2.18532ZM10.06 12.1778L10.518 13.4359L9.57829 13.778L9.12035 12.5198L10.06 12.1778Z" fill="currentColor"/>
<path fill-rule="evenodd" clip-rule="evenodd" d="M4.53558 3.07596L5.46141 4.17933L4.69536 4.82211L3.76953 3.71875L4.53558 3.07596ZM11.3351 11.1793L12.2315 12.2475L11.4654 12.8903L10.5691 11.8221L11.3351 11.1793Z" fill="currentColor"/>
<path fill-rule="evenodd" clip-rule="evenodd" d="M3.06641 4.55585L4.32426 5.28207L3.82426 6.1481L2.56641 5.42188L3.06641 4.55585ZM12.2509 9.85849L13.435 10.5422L12.935 11.4082L11.7509 10.7245L12.2509 9.85849Z" fill="currentColor"/>
<path fill-rule="evenodd" clip-rule="evenodd" d="M2.1922 6.44879L3.58771 6.69485L3.41406 7.67966L2.01855 7.43359L2.1922 6.44879ZM12.5877 8.28179L13.983 8.52782L13.8093 9.51262L12.4141 9.2666L12.5877 8.28179Z" fill="currentColor"/>
<path fill-rule="evenodd" clip-rule="evenodd" d="M2.01873 8.53082L3.41424 8.28475L3.58789 9.26956L2.19238 9.51562L2.01873 8.53082ZM12.4142 6.69781L13.8095 6.45179L13.9831 7.4366L12.5879 7.68262L12.4142 6.69781Z" fill="currentColor"/>
<path fill-rule="evenodd" clip-rule="evenodd" d="M2.56641 10.5441L3.83248 9.81316L4.33248 10.6792L3.06641 11.4102L2.56641 10.5441ZM11.7509 5.24149L12.935 4.5578L13.435 5.42383L12.2509 6.10751L11.7509 5.24149Z" fill="currentColor"/>
<path fill-rule="evenodd" clip-rule="evenodd" d="M5.48316 13.4392L5.96121 12.1258L6.9009 12.4678L6.42285 13.7812L5.48316 13.4392ZM9.0901 3.52923L9.57805 2.18861L10.5177 2.53063L10.0298 3.87125L9.0901 3.52923Z" fill="currentColor"/>
<path fill-rule="evenodd" clip-rule="evenodd" d="M3.76911 12.2439L4.66544 11.1757L5.43149 11.8185L4.53516 12.8867L3.76911 12.2439ZM10.5391 4.17572L11.465 3.07234L12.231 3.71513L11.3052 4.81851L10.5391 4.17572Z" fill="currentColor"/>
</svg>
