<svg width="16" height="16" viewBox="0 0 16 16" fill="none" xmlns="http://www.w3.org/2000/svg">
<path d="M15.5 7.47826C15.5 8.78372 14.7468 10.0162 13.4268 10.9427C12.1082 11.8682 10.2601 12.4565 8.19513 12.4565C7.26777 12.4565 6.38236 12.3378 5.56821 12.1221C5.30506 12.0525 5.03362 12.1288 4.84419 12.3049C4.54422 12.584 3.46274 13.4824 1.6252 13.8562C2.77822 12.7964 3.10832 12.0275 3.19997 11.634C3.27573 11.3087 3.10334 11.043 2.91593 10.909C1.62522 9.98616 0.890257 8.76804 0.890257 7.47826C0.890257 6.1728 1.64344 4.94035 2.9635 4.0138C4.28207 3.08829 6.13017 2.5 8.19513 2.5C10.2601 2.5 12.1082 3.08829 13.4268 4.0138C14.7468 4.94035 15.5 6.1728 15.5 7.47826Z" stroke="currentColor"/>
</svg>
