<svg width="16" height="16" viewBox="0 0 16 16" fill="none" xmlns="http://www.w3.org/2000/svg">
<rect x="-0.5" y="0.5" width="3.69565" height="3.69565" transform="matrix(-1 0 0 1 9.34766 5.65234)" stroke="currentColor"/>
<path d="M4.30961 10.0995C3.43316 10.0995 2.72266 10.81 2.72266 11.6865C2.72266 12.5629 3.43316 13.2734 4.30961 13.2734C5.18606 13.2734 5.89657 12.5629 5.89657 11.6865L5.89657 10.0995L4.30961 10.0995Z" stroke="currentColor"/>
<path d="M5.90048 4.31352C5.90048 3.43707 5.18997 2.72656 4.31352 2.72656C3.43707 2.72656 2.72656 3.43707 2.72656 4.31352C2.72656 5.18997 3.43707 5.90047 4.31352 5.90047L5.90048 5.90047L5.90048 4.31352Z" stroke="currentColor"/>
<path d="M10.1034 11.6904C10.1034 12.5668 10.8139 13.2773 11.6904 13.2773C12.5668 13.2773 13.2773 12.5668 13.2773 11.6904C13.2773 10.8139 12.5668 10.1034 11.6904 10.1034L10.1034 10.1034L10.1034 11.6904Z" stroke="currentColor"/>
<path d="M11.6904 5.90048C12.5668 5.90048 13.2773 5.18997 13.2773 4.31352C13.2773 3.43707 12.5668 2.72656 11.6904 2.72656C10.8139 2.72656 10.1034 3.43707 10.1034 4.31352V5.90048H11.6904Z" stroke="currentColor"/>
</svg>
