<svg width="16" height="17" viewBox="0 0 16 17" fill="none" xmlns="http://www.w3.org/2000/svg">
<g clip-path="url(#clip0_6414_111229)">
<path d="M8.55107 0.018568C8.55843 0.0460463 8.54004 0.0497101 8.52717 0.0661971C7.85062 0.940007 7.41124 1.63612 7.17591 2.74442C6.13903 7.6209 11.1267 11.5668 15.6659 9.44912L16.0005 9.28242C15.7964 10.5281 15.3074 11.706 14.5665 12.7245C11.9687 16.304 6.93508 17.1174 3.32805 14.518C-0.264279 11.9295 -1.08055 6.91379 1.52821 3.3178C3.12766 1.11587 5.80627 -0.171948 8.55107 0.018568ZM6.65012 1.14701C3.852 1.69108 1.63116 3.95896 1.12375 6.75075C0.224748 11.6914 4.63334 15.9358 9.56038 14.877C11.7224 14.4117 13.5811 12.8986 14.4764 10.889C12.4633 11.3103 10.3215 10.7882 8.71653 9.52606C6.45708 7.74547 5.50293 4.78331 6.32655 2.00983C6.4148 1.71673 6.52327 1.42729 6.64828 1.14884L6.65012 1.14701Z" fill="currentColor"/>
</g>
<defs>
<clipPath id="clip0_6414_111229">
<rect width="16" height="16.04" fill="white"/>
</clipPath>
</defs>
</svg>
