<svg width="16" height="17" viewBox="0 0 16 17" fill="none" xmlns="http://www.w3.org/2000/svg">
<mask id="path-1-inside-1_327_159" fill="white">
<path fill-rule="evenodd" clip-rule="evenodd" d="M15.9025 9.25249C15.0424 9.72882 14.0529 10 13 10C9.68629 10 7 7.31372 7 4.00001C7 2.4711 7.57185 1.07576 8.51334 0.0162052C8.34361 0.00545625 8.17244 0 8 0C3.58172 0 0 3.58172 0 8C0 12.4183 3.58172 16 8 16C11.9922 16 15.3014 13.0758 15.9025 9.25249Z"/>
</mask>
<path d="M15.9025 9.25249L16.8904 9.40782L17.2082 7.38632L15.4181 8.37768L15.9025 9.25249ZM8.51334 0.0162052L9.26087 0.680435L10.6227 -0.852213L8.57654 -0.981796L8.51334 0.0162052ZM15.4181 8.37768C14.7024 8.774 13.8791 9.00001 13 9.00001V11C14.2266 11 15.3824 10.6836 16.387 10.1273L15.4181 8.37768ZM13 9.00001C10.2386 9.00001 8 6.76143 8 4.00001H6C6 7.866 9.13401 11 13 11V9.00001ZM8 4.00001C8 2.72526 8.47573 1.56403 9.26087 0.680435L7.76581 -0.648025C6.66797 0.58749 6 2.21695 6 4.00001H8ZM8 1C8.15134 1 8.30143 1.00479 8.45014 1.01421L8.57654 -0.981796C8.38579 -0.993876 8.19354 -1 8 -1V1ZM1 8C1 4.13401 4.13401 1 8 1V-1C3.02944 -1 -1 3.02944 -1 8H1ZM8 15C4.13401 15 1 11.866 1 8H-1C-1 12.9706 3.02944 17 8 17V15ZM14.9147 9.09717C14.3888 12.4417 11.4922 15 8 15V17C12.4921 17 16.214 13.7099 16.8904 9.40782L14.9147 9.09717Z" fill="currentColor" mask="url(#path-1-inside-1_327_159)"/>
</svg>
