<svg width="16" height="16" viewBox="0 0 16 16" fill="none" xmlns="http://www.w3.org/2000/svg">
<path d="M4.39762 2.13655C3.92512 2.24486 3.46012 2.53368 3.46012 3.08967C3.46012 3.31351 3.52762 3.47958 3.61012 3.60955C3.65512 3.68176 3.64012 3.73952 3.58012 3.7684C3.19762 3.92726 2.88262 4.25218 2.88262 4.72152C2.88262 4.98147 2.95012 5.22697 3.09262 5.38582C3.16762 5.47247 3.14512 5.54467 3.04012 5.60244C2.75512 5.75407 2.57512 6.09344 2.57512 6.46891C2.57512 6.74329 2.66512 7.03934 2.83012 7.17653C2.92012 7.25596 2.90512 7.32094 2.80012 7.39315C2.60512 7.53756 2.50012 7.82638 2.50012 8.15131C2.50012 8.71452 2.95012 9.18386 3.55012 9.18386L5.69512 9.18386C6.23512 9.18386 6.60262 9.4438 6.60262 9.87703C6.60262 10.6713 5.58262 12.1082 5.58262 13.148C5.58262 13.6823 5.94262 14 6.42262 14C6.85012 14 7.07512 13.7112 7.30762 13.2779C8.20012 11.5811 9.40762 10.2092 10.3376 9.025C11.1168 8.11797 11.5366 6.97435 11.5226 5.79739C11.5526 3.6601 9.75262 2.03546 6.92512 2.0138L6.10012 2.00658C5.52922 1.98216 4.95738 2.02581 4.39762 2.13655ZM9.96271 2.56978C10.9922 3.32072 11.5912 4.56289 11.5227 5.80461C11.5176 6.95282 11.1077 8.06534 10.3602 8.96002L11.2527 8.96002C12.6177 8.96002 13.6602 7.552 13.6602 5.75407C13.6602 4.0139 12.5502 2.56256 11.0352 2.56256L9.96271 2.56978Z" stroke="currentColor"/>
</svg>
