<svg width="16" height="16" viewBox="0 0 16 16" fill="none" xmlns="http://www.w3.org/2000/svg">
<rect x="9.52734" y="1.39844" width="4.52865" height="4.53221" rx="0.5" stroke="currentColor"/>
<rect y="0.707334" width="4.53043" height="4.53043" rx="0.5" transform="matrix(0.706879 0.707334 -0.706879 0.707334 12.293 7.48045)" stroke="currentColor"/>
<path d="M3.67434 8.72629L0.550749 13.5486C0.443009 13.715 0.562398 13.9346 0.760577 13.9346H7.00775C7.20593 13.9346 7.32532 13.715 7.21758 13.5486L4.09399 8.72629C3.99546 8.57417 3.77287 8.57417 3.67434 8.72629Z" fill="currentColor"/>
<path d="M6.14974 3.66454C6.14974 4.91638 5.13567 5.93064 3.88542 5.93064C2.63517 5.93064 1.62109 4.91638 1.62109 3.66454C1.62109 2.4127 2.63517 1.39844 3.88542 1.39844C5.13567 1.39844 6.14974 2.4127 6.14974 3.66454Z" stroke="currentColor"/>
<line x1="1.86527" y1="2.78317" x2="4.85746" y2="5.77535" stroke="currentColor"/>
<line x1="11.793" y1="10.5859" x2="11.793" y2="11.7851" stroke="currentColor" stroke-linecap="round"/>
<line x1="2.7598" y1="1.51363" x2="5.99418" y2="4.74801" stroke="currentColor"/>
</svg>
