<svg width="16" height="16" viewBox="0 0 16 16" fill="none" xmlns="http://www.w3.org/2000/svg">
<path d="M10 10.5C10.2761 10.5 10.5 10.2761 10.5 10L10.5 5.5C10.5 5.22386 10.2761 5 9.99998 5C9.72384 5 9.49998 5.22386 9.49998 5.5L9.5 9.5L5.5 9.50002C5.22386 9.50002 5 9.72388 5 10C5 10.2762 5.22386 10.5 5.5 10.5L10 10.5ZM10.3536 9.64645L2.35355 1.6465L1.64645 2.35361L9.64645 10.3536L10.3536 9.64645Z" fill="currentColor"/>
<path d="M3.71484 8.85667L3.71484 14L14.0015 14L14.0015 3.71333L8.85818 3.71333" stroke="currentColor"/>
</svg>
