<svg width="16" height="16" viewBox="0 0 16 16" fill="none" xmlns="http://www.w3.org/2000/svg">
<path d="M6.96484 4.83593C7.06043 4.78237 7.15933 4.69653 7.26156 4.57842C7.36378 4.45894 7.41489 4.34221 7.41489 4.22822C7.41489 4.16779 7.40427 4.09912 7.38303 4.02221C7.37108 3.97827 7.35117 3.91921 7.32329 3.84505H6.96883V3.61433H7.19584C7.13477 3.49073 7.08964 3.38223 7.06043 3.28884C7.03122 3.19408 7.01662 3.09245 7.01662 2.98396C7.01662 2.77246 7.10092 2.58294 7.26952 2.41539C7.43945 2.24784 7.68107 2.16406 7.99438 2.16406C8.25459 2.16406 8.48027 2.23891 8.67145 2.38861C8.86262 2.53693 8.94227 2.67495 8.95422 3.02928H8.41456C8.40128 2.89332 8.39265 2.89675 8.34486 2.81297C8.2745 2.69624 8.15568 2.63787 7.98841 2.63787C7.86494 2.63787 7.76737 2.6777 7.69568 2.75735C7.62399 2.83563 7.58814 2.92628 7.58814 3.02928C7.58814 3.09108 7.60075 3.15631 7.62598 3.22498C7.6512 3.29228 7.70762 3.42206 7.79524 3.61433H8.36677V3.84505H7.88087C7.88618 3.89861 7.89017 3.94325 7.89282 3.97895C7.8968 4.01466 7.8988 4.05037 7.8988 4.08608C7.8988 4.21792 7.8603 4.34015 7.7833 4.45276C7.73418 4.5228 7.63461 4.62924 7.48459 4.77207C7.5908 4.73224 7.66912 4.70615 7.71957 4.69379C7.80055 4.67181 7.87955 4.66083 7.95654 4.66083C8.00434 4.66083 8.0508 4.66495 8.09594 4.67319C8.14241 4.68143 8.19153 4.6931 8.2433 4.70821L8.32495 4.73499C8.36079 4.74735 8.39066 4.75559 8.41456 4.75971C8.43978 4.76245 8.46102 4.76383 8.47828 4.76383C8.53935 4.76383 8.61104 4.74597 8.69335 4.71027C8.74114 4.68967 8.80089 4.65808 8.87257 4.61551L9.03587 5.07489C8.96949 5.12021 8.87656 5.16416 8.75707 5.20674C8.63759 5.24931 8.52276 5.2706 8.41257 5.2706C8.35415 5.2706 8.29309 5.26304 8.22936 5.24794C8.16564 5.23283 8.0966 5.21292 8.02226 5.1882L7.90875 5.14905C7.85963 5.13257 7.81914 5.12021 7.78728 5.11197C7.73418 5.10099 7.67974 5.09549 7.62399 5.09549C7.56425 5.09549 7.49986 5.10785 7.43082 5.13257C7.38569 5.15043 7.30271 5.1882 7.1819 5.24588L6.96484 4.83593Z" fill="currentColor"/>
<circle cx="8" cy="3.71875" r="2.875" stroke="currentColor"/>
<path d="M3.07422 9.5C3.61057 9.03333 4.99022 8.1 6.21805 8.1C7.75283 8.1 7.85185 8.7125 10.9709 9.17917C11.9041 9.31879 11.9116 10.8417 10.7729 10.8417C9.31236 10.8417 7.67856 9.87917 6.44084 11.1917M11.4953 9.5L14.0532 7.65956C14.344 7.45031 14.7335 7.44099 15.034 7.63608V7.63608C15.4309 7.89377 15.5486 8.42282 15.2411 8.78248C13.9999 10.2339 11.7255 11.7925 9.88172 13.1458C8.37169 14.2542 7.85172 13.6389 7.23298 13.525C6.44084 13.3792 5.27737 12.5333 3.19799 13.3792" stroke="currentColor" stroke-linecap="round"/>
<rect x="0.75" y="8.28125" width="2.07325" height="6.11248" rx="1" stroke="currentColor"/>
</svg>
