<svg width="16" height="16" viewBox="0 0 16 16" fill="none" xmlns="http://www.w3.org/2000/svg">
<path d="M14 8.75L14 13C14 13.5523 13.5523 14 13 14L3.625 14C3.07271 14 2.625 13.5523 2.625 13L2.625 8.75" stroke="currentColor" stroke-linecap="square"/>
<path d="M7.6875 1.66406C7.6875 1.38792 7.91136 1.16406 8.1875 1.16406C8.46364 1.16406 8.6875 1.38792 8.6875 1.66406L7.6875 1.66406ZM8.54105 11.8759C8.34579 12.0712 8.02921 12.0712 7.83395 11.8759L4.65197 8.69397C4.4567 8.49871 4.4567 8.18212 4.65197 7.98686C4.84723 7.7916 5.16381 7.7916 5.35907 7.98686L8.1875 10.8153L11.0159 7.98686C11.2112 7.7916 11.5278 7.7916 11.723 7.98686C11.9183 8.18212 11.9183 8.49871 11.723 8.69397L8.54105 11.8759ZM8.6875 1.66406L8.6875 11.5224L7.6875 11.5224L7.6875 1.66406L8.6875 1.66406Z" fill="currentColor"/>
</svg>
