<svg width="16" height="16" viewBox="0 0 16 16" fill="none" xmlns="http://www.w3.org/2000/svg">
<path d="M12.5 9.78151C12.5 12.1308 10.5057 14.0714 8 14.0714C5.49427 14.0714 3.5 12.1308 3.5 9.78151C3.5 9.24433 3.76458 8.45442 4.22938 7.51513C4.68451 6.5954 5.29626 5.60062 5.91532 4.67714C6.53318 3.75544 7.15197 2.91413 7.61679 2.3027C7.76109 2.11289 7.89038 1.94545 8 1.80489C8.10962 1.94545 8.23891 2.11289 8.38321 2.3027C8.84803 2.91413 9.46682 3.75544 10.0847 4.67714C10.7037 5.60062 11.3155 6.5954 11.7706 7.51513C12.2354 8.45442 12.5 9.24433 12.5 9.78151Z" stroke="currentColor"/>
<path d="M8 14.5712C10.7614 14.5712 13 12.4266 13 9.78125H3C3 12.4266 5.23858 14.5712 8 14.5712Z" fill="currentColor"/>
</svg>
