<svg width="16" height="16" viewBox="0 0 16 16" fill="none" xmlns="http://www.w3.org/2000/svg">
<path d="M10.2418 1.29116C9.46786 1.00434 8.63072 0.847656 7.75698 0.847656C3.80731 0.847656 0.605469 4.0495 0.605469 7.99917C0.605469 11.9488 3.80731 15.1507 7.75698 15.1507C11.7067 15.1507 14.9085 11.9488 14.9085 7.99917C14.9085 7.39272 14.833 6.8039 14.6909 6.2416" stroke="currentColor" stroke-linecap="round"/>
<path d="M15.6974 2.30078C11.3338 2.30078 8.72775 2.71934 6.42471 4.4826C3.66615 6.59463 3.99216 10.0765 4.65208 12.0584C4.73449 12.3058 5.75805 5.63411 11.9399 4.05836C7.21259 6.17957 5.57623 12.2393 5.57623 12.2393C7.47869 11.1645 10.1848 11.7335 11.6368 8.66442C14.3322 2.96745 16.4853 2.30078 15.6974 2.30078Z" fill="currentColor"/>
</svg>
