<svg width="16" height="16" viewBox="0 0 16 16" fill="none" xmlns="http://www.w3.org/2000/svg">
<path d="M7.14333 3.71484H2V14.0015H12.2867V8.85818" stroke="currentColor"/>
<path d="M7.67896 10.5105L15.0627 3.12675C15.1829 3.00659 15.1829 2.81177 15.0627 2.69161L13.159 0.787881C13.0388 0.667721 12.844 0.667721 12.7238 0.787881L5.3401 8.17162" stroke="currentColor"/>
<path d="M5.33984 8.17188L5.6934 7.81832C5.57086 7.69579 5.39362 7.64544 5.22497 7.68525C5.05631 7.72506 4.9203 7.84936 4.8655 8.01376L5.33984 8.17188ZM7.67871 10.5107L7.83682 10.9851C8.00122 10.9303 8.12552 10.7943 8.16533 10.6256C8.20515 10.457 8.15479 10.2797 8.03226 10.1572L7.67871 10.5107ZM4.17041 11.6802L3.69607 11.5221L3.37984 12.4707L4.32853 12.1545L4.17041 11.6802ZM4.8655 8.01376L3.69607 11.5221L4.64475 11.8383L5.81419 8.32999L4.8655 8.01376ZM4.32853 12.1545L7.83682 10.9851L7.52059 10.0364L4.0123 11.2058L4.32853 12.1545ZM4.98629 8.52543L7.32515 10.8643L8.03226 10.1572L5.6934 7.81832L4.98629 8.52543Z" fill="currentColor"/>
<line x1="12.6478" y1="2.61658" x2="6.21595" y2="9.04845" stroke="currentColor" stroke-width="0.826913"/>
<line x1="14.3418" y1="3.84574" x2="12.0029" y2="1.50688" stroke="currentColor"/>
<line x1="13.2338" y1="3.20251" x2="6.80189" y2="9.63439" stroke="currentColor" stroke-width="0.826913"/>
</svg>
