<svg width="16" height="16" viewBox="0 0 16 16" fill="none" xmlns="http://www.w3.org/2000/svg">
<path d="M1 0.5C0.723858 0.5 0.5 0.723858 0.5 1V5.5C0.5 5.77614 0.723858 6 1 6C1.27614 6 1.5 5.77614 1.5 5.5V1.5H5.5C5.77614 1.5 6 1.27614 6 1C6 0.723858 5.77614 0.5 5.5 0.5H1ZM9.35355 8.64645L1.35355 0.646447L0.646447 1.35355L8.64645 9.35355L9.35355 8.64645Z" fill="currentColor"/>
<path d="M2 8C2 11.3137 4.68629 14 8 14C11.3137 14 14 11.3137 14 8C14 4.68629 11.3137 2 8 2" stroke="currentColor"/>
</svg>
