<svg width="23" height="16" viewBox="0 0 23 16" fill="none" xmlns="http://www.w3.org/2000/svg">
<rect x="0.5" y="0.5" width="22" height="15" rx="1.5" stroke="currentColor"/>
<path d="M5.7666 10V5.70508H8.95117V6.43164H6.63379V7.38379H8.79004V8.10742H6.63379V9.27637H9.0332V10H5.7666ZM9.54883 8.60254L10.3926 8.52051C10.4434 8.80371 10.5459 9.01172 10.7002 9.14453C10.8564 9.27734 11.0664 9.34375 11.3301 9.34375C11.6094 9.34375 11.8193 9.28516 11.96 9.16797C12.1025 9.04883 12.1738 8.91016 12.1738 8.75195C12.1738 8.65039 12.1436 8.56445 12.083 8.49414C12.0244 8.42188 11.9209 8.35938 11.7725 8.30664C11.6709 8.27148 11.4395 8.20898 11.0781 8.11914C10.6133 8.00391 10.2871 7.8623 10.0996 7.69434C9.83594 7.45801 9.7041 7.16992 9.7041 6.83008C9.7041 6.61133 9.76562 6.40723 9.88867 6.21777C10.0137 6.02637 10.1924 5.88086 10.4248 5.78125C10.6592 5.68164 10.9414 5.63184 11.2715 5.63184C11.8105 5.63184 12.2158 5.75 12.4873 5.98633C12.7607 6.22266 12.9043 6.53809 12.918 6.93262L12.0508 6.9707C12.0137 6.75 11.9336 6.5918 11.8105 6.49609C11.6895 6.39844 11.5068 6.34961 11.2627 6.34961C11.0107 6.34961 10.8135 6.40137 10.6709 6.50488C10.5791 6.57129 10.5332 6.66016 10.5332 6.77148C10.5332 6.87305 10.5762 6.95996 10.6621 7.03223C10.7715 7.12402 11.0371 7.21973 11.459 7.31934C11.8809 7.41895 12.1924 7.52246 12.3936 7.62988C12.5967 7.73535 12.7549 7.88086 12.8682 8.06641C12.9834 8.25 13.041 8.47754 13.041 8.74902C13.041 8.99512 12.9727 9.22559 12.8359 9.44043C12.6992 9.65527 12.5059 9.81543 12.2559 9.9209C12.0059 10.0244 11.6943 10.0762 11.3213 10.0762C10.7783 10.0762 10.3613 9.95117 10.0703 9.70117C9.7793 9.44922 9.60547 9.08301 9.54883 8.60254ZM16.5186 8.4209L17.3594 8.6875C17.2305 9.15625 17.0156 9.50488 16.7148 9.7334C16.416 9.95996 16.0361 10.0732 15.5752 10.0732C15.0049 10.0732 14.5361 9.87891 14.1689 9.49023C13.8018 9.09961 13.6182 8.56641 13.6182 7.89062C13.6182 7.17578 13.8027 6.62109 14.1719 6.22656C14.541 5.83008 15.0264 5.63184 15.6279 5.63184C16.1533 5.63184 16.5801 5.78711 16.9082 6.09766C17.1035 6.28125 17.25 6.54492 17.3477 6.88867L16.4893 7.09375C16.4385 6.87109 16.332 6.69531 16.1699 6.56641C16.0098 6.4375 15.8145 6.37305 15.584 6.37305C15.2656 6.37305 15.0068 6.4873 14.8076 6.71582C14.6104 6.94434 14.5117 7.31445 14.5117 7.82617C14.5117 8.36914 14.6094 8.75586 14.8047 8.98633C15 9.2168 15.2539 9.33203 15.5664 9.33203C15.7969 9.33203 15.9951 9.25879 16.1611 9.1123C16.3271 8.96582 16.4463 8.73535 16.5186 8.4209Z" fill="currentColor"/>
</svg>
