<svg width="16" height="16" viewBox="0 0 16 16" fill="none" xmlns="http://www.w3.org/2000/svg">
<path d="M8.00001 0L7.74659 0.779937H6.9264L7.59002 1.26195L7.33661 2.04188L8.00001 1.55987L8.66341 2.04188L8.41 1.26195L9.07362 0.779937H8.25343L8.00001 0Z" fill="currentColor"/>
<path d="M4.00437 1.11319L4.1748 1.9155L3.46465 2.32549L4.28015 2.41115L4.45081 3.21346L4.7843 2.46416L5.5998 2.54983L4.99052 2.00116L5.32402 1.25187L4.61386 1.66208L4.00437 1.11319Z" fill="currentColor"/>
<path d="M1.11322 4.00437L1.66211 4.61387L1.2519 5.32402L2.00119 4.99053L2.54985 5.59981L2.46419 4.78431L3.21348 4.45082L2.41118 4.28016L2.32551 3.46466L1.91553 4.17481L1.11322 4.00437Z" fill="currentColor"/>
<path d="M-5.6176e-07 8L0.779937 8.25342V9.07362L1.26194 8.40999L2.04188 8.6634L1.55987 8L2.04188 7.33659L1.26194 7.59001L0.779937 6.92638V7.74658L-5.6176e-07 8Z" fill="currentColor"/>
<path d="M1.11322 11.9957L1.91553 11.8252L2.32551 12.5354L2.41118 11.7199L3.21348 11.5492L2.46419 11.2157L2.54985 10.4002L2.00119 11.0095L1.2519 10.676L1.66211 11.3862L1.11322 11.9957Z" fill="currentColor"/>
<path d="M4.00437 14.8868L4.61386 14.3379L5.32402 14.7481L4.99052 13.9988L5.5998 13.4502L4.7843 13.5358L4.45081 12.7865L4.28015 13.5888L3.46465 13.6745L4.1748 14.0845L4.00437 14.8868Z" fill="currentColor"/>
<path d="M8.00001 16L8.25343 15.2201H9.07362L8.41 14.7381L8.66341 13.9581L8.00001 14.4401L7.33661 13.9581L7.59002 14.7381L6.9264 15.2201H7.74659L8.00001 16Z" fill="currentColor"/>
<path d="M11.9956 14.8868L11.8252 14.0845L12.5353 13.6745L11.7198 13.5888L11.5492 12.7865L11.2157 13.5358L10.4002 13.4502L11.0095 13.9988L10.676 14.7481L11.3861 14.3379L11.9956 14.8868Z" fill="currentColor"/>
<path d="M14.8868 11.9957L14.3379 11.3862L14.7481 10.676L13.9988 11.0095L13.4502 10.4002L13.5358 11.2157L12.7865 11.5492L13.5889 11.7199L13.6745 12.5354L14.0845 11.8252L14.8868 11.9957Z" fill="currentColor"/>
<path d="M16 8L15.2201 7.74658V6.92638L14.7381 7.59001L13.9581 7.33659L14.4401 8L13.9581 8.6634L14.7381 8.40999L15.2201 9.07362V8.25342L16 8Z" fill="currentColor"/>
<path d="M14.8868 4.00437L14.0845 4.17481L13.6745 3.46466L13.5889 4.28016L12.7865 4.45082L13.5358 4.78431L13.4502 5.59981L13.9988 4.99053L14.7481 5.32402L14.3379 4.61387L14.8868 4.00437Z" fill="currentColor"/>
<path d="M11.9956 1.11319L11.3861 1.66208L10.676 1.25187L11.0095 2.00116L10.4002 2.54983L11.2157 2.46416L11.5492 3.21346L11.7198 2.41115L12.5353 2.32549L11.8252 1.9155L11.9956 1.11319Z" fill="currentColor"/>
</svg>
