<svg width="16" height="16" viewBox="0 0 16 16" fill="none" xmlns="http://www.w3.org/2000/svg">
<path d="M6.21676 9.07613C6.0215 9.2714 6.0215 9.58798 6.21676 9.78324C6.41202 9.9785 6.7286 9.9785 6.92387 9.78324L6.21676 9.07613ZM14.4996 2.00042C14.4996 1.72428 14.2757 1.50042 13.9996 1.50042L9.49958 1.50043C9.22343 1.50042 8.99958 1.72428 8.99958 2.00042C8.99958 2.27657 9.22343 2.50042 9.49958 2.50042L13.4996 2.50042L13.4996 6.50042C13.4996 6.77657 13.7234 7.00042 13.9996 7.00042C14.2757 7.00042 14.4996 6.77657 14.4996 6.50042L14.4996 2.00042ZM6.92387 9.78324L14.3531 2.35398L13.646 1.64687L6.21676 9.07613L6.92387 9.78324Z" fill="currentColor"/>
<path d="M7.14333 3.71484H2V14.0015H12.2867V8.85818" stroke="currentColor"/>
</svg>
