<svg width="18" height="16" viewBox="0 0 18 16" fill="none" xmlns="http://www.w3.org/2000/svg">
<path d="M2.05057 9.21506C2.59988 9.66865 3.35118 10.1583 4.24637 10.5808C5.5725 11.2067 7.21616 11.6865 8.99449 11.6865C10.7728 11.6865 12.4703 11.2039 13.8071 10.5737C14.6995 10.1533 15.4444 9.66724 15.9859 9.21365C16.5607 8.73251 16.9215 8.38631 16.9215 8.03093C16.9215 7.67555 16.56 7.26647 15.9859 6.78533C15.4444 6.33174 14.6987 5.84565 13.8071 5.42527C12.4703 4.79505 10.8033 4.3125 8.99449 4.3125C7.18568 4.3125 5.5725 4.79223 4.24637 5.41821C3.35047 5.84071 2.59988 6.33033 2.05057 6.78392C1.4552 7.27495 1.07812 7.70098 1.07812 7.96805C1.07812 8.23511 1.4552 8.72403 2.05057 9.21506V9.21506Z" stroke="currentColor" stroke-miterlimit="10"/>
<path d="M9.05767 4.3125C9.69769 4.3125 10.3136 4.48701 10.8488 4.80212C11.3853 5.11794 11.841 5.57576 12.1614 6.14169C12.8029 7.27495 12.8029 8.67174 12.1614 9.80501C11.841 10.3709 11.3846 10.8288 10.8488 11.1446C10.3129 11.4604 9.69769 11.6342 9.05767 11.6342C8.06821 11.6342 7.17231 11.2244 6.52378 10.5631C5.87383 9.90039 5.47266 8.98473 5.47266 7.97299C5.47266 6.96125 5.87453 6.0456 6.52378 5.38288C7.1716 4.72228 8.0675 4.3125 9.05767 4.3125Z" stroke="currentColor" stroke-miterlimit="10"/>
<path d="M8.52674 6.4832C8.73866 6.397 8.96831 6.3645 9.19866 6.39276C9.08455 6.57292 9.01792 6.77994 9.0002 6.99189C8.9761 7.29005 9.05053 7.59738 9.22701 7.85173C9.40775 8.11173 9.66433 8.27352 9.93721 8.32793C10.1229 8.36467 10.3178 8.35266 10.5021 8.28695C10.4653 8.54554 10.3738 8.78787 10.2392 8.99559C10.062 9.2676 9.81034 9.48097 9.50769 9.59331C9.20858 9.70494 8.89459 9.70494 8.60683 9.60885C8.31623 9.51135 8.05327 9.31565 7.85978 9.03657C7.66344 8.75396 7.56067 8.41766 7.55146 8.07923C7.54224 7.7401 7.6273 7.39814 7.80874 7.10282C7.98736 6.81173 8.23968 6.59907 8.52532 6.4832H8.52674Z" stroke="currentColor" stroke-miterlimit="10" stroke-linejoin="round"/>
</svg>
