<svg width="16" height="18" viewBox="0 0 16 18" fill="none" xmlns="http://www.w3.org/2000/svg">
<path d="M12.2051 0.949219H2V16.9492H12.2051V13.4912H12.7436C13.2959 13.4912 13.7436 13.0434 13.7436 12.4912V9.69115C13.7436 9.13887 13.2959 8.69115 12.7436 8.69115H12.2051V0.949219Z" stroke="currentColor"/>
<path d="M10.5 0.949219H13.7308V3.52986H14.2692C14.8215 3.52986 15.2692 3.97758 15.2692 4.52986V7.32986C15.2692 7.88215 14.8215 8.32986 14.2692 8.32986H13.7308V10.001M10.5 16.9492H13.7308V12.501" stroke="currentColor"/>
<path d="M13.1016 0.949219H15.3067V16.9492H13.1016" stroke="currentColor"/>
<path d="M1 3H3M1 4.98387H3M1 7.01613H3M1 9H3M1 10.9839H3M1 12.9677H3M1 15H3" stroke="currentColor" stroke-linecap="round"/>
<path d="M5.08984 6.4549V4.63672H9.81712V6.4549H5.08984Z" stroke="currentColor"/>
</svg>
