<svg width="16" height="17" viewBox="0 0 16 17" fill="none" xmlns="http://www.w3.org/2000/svg">
<g clip-path="url(#clip0_6402_111809)">
<path fill-rule="evenodd" clip-rule="evenodd" d="M7.34844 1.14889C8.72121 1.06308 10.0008 1.25114 11.2787 1.76053C11.5054 1.84999 12.3333 2.19506 12.4528 2.3539C12.6919 2.66976 12.4704 3.12986 12.0943 3.09151C11.9676 3.07922 11.7398 2.95766 11.5422 2.85224C11.4463 2.8011 11.3576 2.75376 11.291 2.72453C9.1747 1.8153 6.95647 1.76783 4.8314 2.68802C4.76679 2.71618 4.66109 2.77188 4.54283 2.8342C4.30076 2.96175 4.00606 3.11705 3.90333 3.12073C3.48851 3.13533 3.2811 2.55291 3.68361 2.27722C4.55544 1.68384 6.31139 1.21279 7.34844 1.14889ZM2.75066 6.13441C5.32043 3.14379 10.2121 2.97034 12.9542 5.80942H12.9559C13.116 5.97473 13.2534 6.16039 13.3886 6.34316L13.3886 6.34318L13.3886 6.34319C13.4998 6.49347 13.6096 6.64179 13.7293 6.77525C14.0703 7.15319 14.5818 6.87932 14.4886 6.40462C14.457 6.2403 13.9965 5.67066 13.8647 5.51912C10.8432 2.03372 5.21497 2.00268 2.17413 5.47713C2.03352 5.6378 1.54487 6.23117 1.50972 6.40462C1.4359 6.78073 1.79623 7.08381 2.12843 6.90853C2.22269 6.85898 2.40246 6.60857 2.55451 6.39676C2.63214 6.28863 2.70254 6.19056 2.75066 6.13441ZM7.69634 4.63513C11.0272 4.43977 14.3756 7.25876 14.0891 10.8847C13.8817 13.5193 10.0271 14.0141 9.17105 11.4507C9.10536 11.2535 9.08043 11.0442 9.05617 10.8407C8.99737 10.3472 8.94255 9.8871 8.32032 9.7126C7.53814 9.49351 6.99501 10.0577 7.03016 10.8574C7.09696 12.4403 8.14631 13.8443 9.51732 14.4633C9.58817 14.4951 9.70244 14.5332 9.82737 14.5748C10.0744 14.6571 10.3631 14.7533 10.4401 14.843C10.6528 15.0913 10.521 15.5204 10.2046 15.5752C9.97784 15.6153 9.48568 15.4127 9.25894 15.3159C7.51529 14.5765 6.24271 12.8055 6.17064 10.83C6.081 8.37796 9.32046 8.12783 9.8302 10.1526C9.86849 10.3045 9.87875 10.4516 9.88904 10.5992C9.90237 10.7902 9.91576 10.982 9.99015 11.186C10.4472 12.4293 12.1222 12.6302 12.9079 11.6096C13.6444 10.6565 13.0222 8.80154 12.4369 7.89048C10.688 5.17373 6.8456 4.73554 4.49555 6.88448C2.75014 8.47838 2.5814 10.5835 3.18605 12.8164C3.20333 12.8808 3.23288 12.9566 3.26232 13.032L3.26233 13.032C3.2988 13.1255 3.33512 13.2186 3.34776 13.2893C3.44971 13.8388 2.7642 14.1401 2.5023 13.4992C2.09979 12.5188 1.93632 10.9651 2.04354 9.91343C2.34587 6.94838 4.90685 4.79762 7.69809 4.63513H7.69634ZM7.69771 6.61677C10.0232 6.42871 12.0006 8.10477 12.1324 10.5531C12.15 10.8945 12.1201 11.351 11.6701 11.3145C11.2857 11.2824 11.2708 10.8967 11.2581 10.5668C11.2549 10.4835 11.2519 10.4037 11.243 10.334C10.7983 6.92349 6.25463 6.44879 5.12618 9.63294C4.45825 11.5153 5.30371 13.7099 6.50774 15.1395C6.55 15.1896 6.60358 15.2429 6.66011 15.2991L6.66012 15.2992C6.89983 15.5375 7.19236 15.8284 6.89795 16.1564C6.56442 16.528 6.2043 16.1125 5.96653 15.8381C5.94492 15.8132 5.92432 15.7894 5.90484 15.7675C4.67093 14.3836 3.945 12.514 4.05222 10.6079C4.16823 8.55391 5.69392 6.77926 7.69771 6.61677ZM8.53089 10.8052C8.49573 10.535 8.24262 10.3779 7.98951 10.4327V10.4345C7.68191 10.5003 7.66082 10.849 7.67488 11.1101C7.75398 12.5214 8.80509 13.814 10.097 14.1993C10.5909 14.3472 11.5524 14.4421 12.0305 14.2413C12.4629 14.0587 12.324 13.3795 11.8741 13.3795C11.7549 13.3795 11.6286 13.4004 11.4987 13.4218C11.3489 13.4465 11.1944 13.472 11.0409 13.4671C9.90014 13.4325 8.86661 12.6218 8.59944 11.4588C8.56564 11.3093 8.55821 11.1802 8.55074 11.05C8.54616 10.9704 8.54156 10.8904 8.53089 10.8052Z" fill="currentColor"/>
</g>
<defs>
<clipPath id="clip0_6402_111809">
<rect width="16" height="16" fill="white" transform="translate(0 0.714844)"/>
</clipPath>
</defs>
</svg>
