<svg width="17" height="18" viewBox="0 0 17 18" fill="none" xmlns="http://www.w3.org/2000/svg">
<path d="M2.78906 12.5554C2.78906 15.0807 5.15656 16.6232 6.3281 17.0788C5.27046 15.1995 4.98571 13.6944 6.6454 12.0998C7.97315 10.8241 8.08542 9.97635 7.93084 9.04074C8.11525 9.01905 8.60611 9.48821 8.94781 10.2611C9.53186 11.5822 7.72316 13.0409 8.85018 13.5561C9.41968 13.8164 10.1112 12.4659 10.3797 11.9859C11.6814 14.1988 10.5587 16.2897 9.53358 17.0788C10.7919 16.7317 13.4306 15.3931 13.4306 12.8157C13.4306 9.85432 12.1563 7.97682 10.1763 5.62373C7.93084 2.95522 8.63052 2.27995 8.77696 1.13281C5.34043 2.25229 5.21893 5.43932 5.58775 6.89291C4.96944 6.19324 4.51384 5.81899 3.99315 5.81899C5.19724 9.52888 2.78906 9.39871 2.78906 12.5554Z" stroke="currentColor" stroke-linejoin="round"/>
</svg>
