<svg width="16" height="16" viewBox="0 0 16 16" fill="none" xmlns="http://www.w3.org/2000/svg">
<line x1="5.57513" y1="14.6464" x2="2.92735" y2="4.76481" stroke="currentColor" stroke-linecap="round"/>
<circle cx="2.70755" cy="3.82075" r="1.40378" transform="rotate(-15 2.70755 3.82075)" fill="currentColor"/>
<path d="M3.20055 5.54367C3.14365 5.33132 3.23218 5.13176 3.39459 5.04006C3.93542 4.73469 4.76136 4.3141 5.6052 4.05224C6.4777 3.78149 7.23597 3.72309 7.73159 3.96992C8.46998 4.33765 9.3675 4.26546 10.1621 4.0698C10.9739 3.86987 11.7792 3.51543 12.402 3.19924C12.7564 3.01931 13.1679 3.21586 13.2538 3.53625L14.5953 8.54274C14.6482 8.74026 14.5735 8.90996 14.4462 8.99028C13.5661 9.54554 11.7779 10.4319 9.93498 10.0085C8.19176 9.60796 6.55102 10.1647 5.48127 10.6973C5.06052 10.9068 4.57447 10.6712 4.48484 10.3367L3.20055 5.54367Z" stroke="currentColor" stroke-linecap="round"/>
</svg>
