<svg width="17" height="17" viewBox="0 0 17 17" fill="none" xmlns="http://www.w3.org/2000/svg">
<mask id="path-1-inside-1_6398_111295" fill="white">
<path fill-rule="evenodd" clip-rule="evenodd" d="M8.32999 0.190082C8.26742 -0.063361 7.90713 -0.0633603 7.84456 0.190082L6.65114 5.02434L3.40253 3.06211C3.17907 2.92714 2.92431 3.18191 3.05928 3.40536L5.02039 6.65212L0.190082 7.84456C-0.063361 7.90713 -0.0633603 8.26742 0.190082 8.32999L5.02196 9.52282L3.05928 12.7722C2.92431 12.9956 3.17907 13.2504 3.40253 13.1154L6.65178 11.1528L7.84456 15.9845C7.90713 16.2379 8.26742 16.2379 8.32999 15.9845L9.52242 11.1542L12.7693 13.1154C12.9928 13.2504 13.2476 12.9956 13.1126 12.7722L11.1503 9.5234L15.9845 8.32999C16.2379 8.26742 16.2379 7.90713 15.9845 7.84456L11.1518 6.65154L13.1126 3.40536C13.2476 3.18191 12.9928 2.92714 12.7693 3.06211L9.52306 5.02293L8.32999 0.190082Z"/>
</mask>
<path d="M7.84456 0.190082L6.87371 -0.0495898L6.87371 -0.0495895L7.84456 0.190082ZM8.32999 0.190082L9.30084 -0.0495903L9.30084 -0.0495906L8.32999 0.190082ZM6.65114 5.02434L6.13412 5.88031L7.29652 6.58243L7.622 5.26401L6.65114 5.02434ZM3.40253 3.06211L3.91955 2.20614L3.91955 2.20614L3.40253 3.06211ZM3.05928 3.40536L3.91525 2.88834L3.91525 2.88834L3.05928 3.40536ZM5.02039 6.65212L5.26006 7.62297L6.57847 7.2975L5.87636 6.1351L5.02039 6.65212ZM0.190082 7.84456L-0.0495903 6.87371L-0.0495906 6.87371L0.190082 7.84456ZM0.190082 8.32999L0.429754 7.35914L0.429751 7.35913L0.190082 8.32999ZM5.02196 9.52282L5.87793 10.0398L6.58004 8.87744L5.26163 8.55197L5.02196 9.52282ZM3.05928 12.7722L2.20331 12.2552L2.20331 12.2552L3.05928 12.7722ZM3.40253 13.1154L3.91955 13.9714L3.91955 13.9714L3.40253 13.1154ZM6.65178 11.1528L7.62264 10.9131L7.29717 9.59472L6.13476 10.2968L6.65178 11.1528ZM7.84456 15.9845L6.87371 16.2241L6.87371 16.2241L7.84456 15.9845ZM8.32999 15.9845L7.35914 15.7448L7.35913 15.7448L8.32999 15.9845ZM9.52242 11.1542L10.0394 10.2982L8.87704 9.59613L8.55157 10.9145L9.52242 11.1542ZM12.7693 13.1154L12.2523 13.9714L12.2523 13.9714L12.7693 13.1154ZM13.1126 12.7722L13.9686 12.2552L13.9686 12.2552L13.1126 12.7722ZM11.1503 9.5234L10.9106 8.55254L9.59218 8.87802L10.2943 10.0404L11.1503 9.5234ZM15.9845 8.32999L16.2241 9.30084L16.2241 9.30084L15.9845 8.32999ZM15.9845 7.84456L16.2241 6.87371L16.2241 6.87371L15.9845 7.84456ZM11.1518 6.65154L10.2959 6.13452L9.59375 7.29692L10.9122 7.6224L11.1518 6.65154ZM13.1126 3.40536L13.9686 3.92238L13.9686 3.92238L13.1126 3.40536ZM12.7693 3.06211L12.2523 2.20614L12.2523 2.20614L12.7693 3.06211ZM9.52306 5.02293L8.55221 5.2626L8.87768 6.58102L10.0401 5.8789L9.52306 5.02293ZM8.81542 0.429755C8.62772 1.19007 7.54684 1.19009 7.35914 0.429754L9.30084 -0.0495906C8.98801 -1.31681 7.18654 -1.31679 6.87371 -0.0495898L8.81542 0.429755ZM7.622 5.26401L8.81542 0.429754L6.87371 -0.0495895L5.68029 4.78467L7.622 5.26401ZM2.8855 3.91808L6.13412 5.88031L7.16817 4.16837L3.91955 2.20614L2.8855 3.91808ZM3.91525 2.88834C4.32016 3.55869 3.55587 4.32299 2.8855 3.91808L3.91955 2.20614C2.80228 1.53129 1.52846 2.80513 2.20331 3.92238L3.91525 2.88834ZM5.87636 6.1351L3.91525 2.88834L2.20331 3.92238L4.16442 7.16914L5.87636 6.1351ZM0.429754 8.81542L5.26006 7.62297L4.78071 5.68127L-0.0495903 6.87371L0.429754 8.81542ZM0.429751 7.35913C1.19008 7.54683 1.19008 8.62772 0.429754 8.81542L-0.0495906 6.87371C-1.31681 7.18654 -1.3168 8.98801 -0.0495864 9.30084L0.429751 7.35913ZM5.26163 8.55197L0.429754 7.35914L-0.0495896 9.30084L4.78228 10.4937L5.26163 8.55197ZM3.91525 13.2892L5.87793 10.0398L4.16599 9.0058L2.20331 12.2552L3.91525 13.2892ZM2.8855 12.2595C3.55585 11.8546 4.32016 12.6188 3.91525 13.2892L2.20331 12.2552C1.52845 13.3724 2.80229 14.6462 3.91955 13.9714L2.8855 12.2595ZM6.13476 10.2968L2.8855 12.2595L3.91955 13.9714L7.16881 12.0088L6.13476 10.2968ZM8.81542 15.7448L7.62264 10.9131L5.68093 11.3925L6.87371 16.2241L8.81542 15.7448ZM7.35913 15.7448C7.54684 14.9845 8.62772 14.9845 8.81542 15.7448L6.87371 16.2241C7.18654 17.4913 8.98801 17.4914 9.30084 16.2241L7.35913 15.7448ZM8.55157 10.9145L7.35914 15.7448L9.30084 16.2241L10.4933 11.3939L8.55157 10.9145ZM13.2864 12.2595L10.0394 10.2982L9.0054 12.0102L12.2523 13.9714L13.2864 12.2595ZM12.2566 13.2892C11.8517 12.6189 12.616 11.8545 13.2864 12.2595L12.2523 13.9714C13.3696 14.6463 14.6434 13.3724 13.9686 12.2552L12.2566 13.2892ZM10.2943 10.0404L12.2566 13.2892L13.9686 12.2552L12.0062 9.00637L10.2943 10.0404ZM15.7448 7.35914L10.9106 8.55254L11.3899 10.4943L16.2241 9.30084L15.7448 7.35914ZM15.7448 8.81542C14.9845 8.62772 14.9845 7.54684 15.7448 7.35914L16.2241 9.30084C17.4914 8.98801 17.4914 7.18654 16.2241 6.87371L15.7448 8.81542ZM10.9122 7.6224L15.7448 8.81542L16.2241 6.87371L11.3915 5.68069L10.9122 7.6224ZM12.2566 2.88834L10.2959 6.13452L12.0078 7.16857L13.9686 3.92238L12.2566 2.88834ZM13.2864 3.91808C12.616 4.32299 11.8517 3.5587 12.2566 2.88834L13.9686 3.92238C14.6434 2.80511 13.3696 1.5313 12.2523 2.20614L13.2864 3.91808ZM10.0401 5.8789L13.2864 3.91808L12.2523 2.20614L9.00604 4.16696L10.0401 5.8789ZM7.35914 0.429754L8.55221 5.2626L10.4939 4.78326L9.30084 -0.0495903L7.35914 0.429754Z" fill="currentColor" mask="url(#path-1-inside-1_6398_111295)"/>
</svg>
