<svg width="17" height="17" viewBox="0 0 17 17" fill="none" xmlns="http://www.w3.org/2000/svg">
<g clip-path="url(#clip0_6414_111209)">
<path d="M9.51394 5.01355L12.7802 3.05521C12.9999 2.94837 13.2266 3.16642 13.1248 3.38415L11.154 6.65357L16.0084 7.85188C16.2368 7.93685 16.2199 8.27829 15.9806 8.33296L11.1696 9.51971L11.1671 9.55345L13.1095 12.7657C13.2388 12.9669 13.0395 13.2152 12.8143 13.139L9.51457 11.1675L8.33188 15.9748C8.26221 16.2444 7.89641 16.2322 7.83518 15.963L6.65624 11.1519L3.44929 13.0915C3.2175 13.2655 2.92074 13.035 3.05538 12.7757L5.01591 9.53533L0.11177 8.30047C-0.0647275 8.17239 -0.0263041 7.90561 0.185493 7.8447L5.01528 6.65326L3.04444 3.38384C2.94261 3.16642 3.1694 2.94806 3.389 3.05489L6.65499 5.02886L7.83456 0.218123C7.87986 -0.0186646 8.17537 -0.0823912 8.3022 0.125657L9.51394 5.01355ZM8.87355 6.57548L8.07697 3.40477L7.29663 6.56829L5.49979 5.51337L6.57721 7.28615L3.40681 8.07493L6.57752 8.87151L5.49979 10.6674L7.29569 9.58999L8.07697 12.7763L8.87355 9.58999L10.6695 10.6674L9.59173 8.87151L12.7624 8.08242L9.59204 7.28584L10.6695 5.51305L8.87355 6.57485V6.57548Z" fill="currentColor"/>
</g>
<defs>
<clipPath id="clip0_6414_111209">
<rect width="16.17" height="16.1709" fill="white"/>
</clipPath>
</defs>
</svg>
