<svg width="16" height="16" viewBox="0 0 16 16" fill="none" xmlns="http://www.w3.org/2000/svg">
<rect x="0.5" y="0.5" width="15" height="15" rx="1.5" stroke="currentColor"/>
<path d="M5.2373 6.88867H5.69434V6.6543C5.69434 6.39258 5.72168 6.19727 5.77637 6.06836C5.83301 5.93945 5.93555 5.83496 6.08398 5.75488C6.23438 5.67285 6.42383 5.63184 6.65234 5.63184C6.88672 5.63184 7.11621 5.66699 7.34082 5.7373L7.22949 6.31152C7.09863 6.28027 6.97266 6.26465 6.85156 6.26465C6.73242 6.26465 6.64648 6.29297 6.59375 6.34961C6.54297 6.4043 6.51758 6.51074 6.51758 6.66895V6.88867H7.13281V7.53613H6.51758V10H5.69434V7.53613H5.2373V6.88867ZM10.4258 10H9.60254V8.41211C9.60254 8.07617 9.58496 7.85938 9.5498 7.76172C9.51465 7.66211 9.45703 7.58496 9.37695 7.53027C9.29883 7.47559 9.2041 7.44824 9.09277 7.44824C8.9502 7.44824 8.82227 7.4873 8.70898 7.56543C8.5957 7.64355 8.51758 7.74707 8.47461 7.87598C8.43359 8.00488 8.41309 8.24316 8.41309 8.59082V10H7.58984V6.88867H8.35449V7.3457C8.62598 6.99414 8.96777 6.81836 9.37988 6.81836C9.56152 6.81836 9.72754 6.85156 9.87793 6.91797C10.0283 6.98242 10.1416 7.06543 10.2178 7.16699C10.2959 7.26855 10.3496 7.38379 10.3789 7.5127C10.4102 7.6416 10.4258 7.82617 10.4258 8.06641V10Z" fill="currentColor"/>
</svg>
