<svg width="16" height="16" viewBox="0 0 16 16" fill="none" xmlns="http://www.w3.org/2000/svg">
<path d="M9.25866 7.21393L13.9986 2C13.9986 2 14.9986 1 7.9986 1C0.998601 1 1.9986 2 1.9986 2L6.61886 7.11694C6.78479 7.30071 6.87665 7.5395 6.87665 7.7871V14.7116C6.87665 15.0783 7.25815 15.3202 7.5898 15.1639L8.71175 14.6352C8.88686 14.5527 8.9986 14.3765 8.9986 14.1829V7.88661C8.9986 7.63784 9.09132 7.39801 9.25866 7.21393Z" stroke="currentColor"/>
<path d="M2 2C2 2 4 3.5 8 3.5C12 3.5 14 2 14 2" stroke="currentColor"/>
</svg>
