<svg width="17" height="17" viewBox="0 0 17 17" fill="none" xmlns="http://www.w3.org/2000/svg">
<path fill-rule="evenodd" clip-rule="evenodd" d="M2.65926 13.2748C3.42179 12.1486 4.1198 10.6387 3.69442 8.61151C3.3295 6.87237 3.58273 4.86682 4.53106 3.39088C5.45725 1.94939 7.07216 0.96708 9.58285 1.25804C11.1501 1.43966 12.2482 2.05144 13.003 2.92077C13.7655 3.79903 14.2121 4.9806 14.3925 6.35159C14.7381 8.97796 14.0895 12.1785 13.0078 14.8661C12.8973 14.7966 12.7914 14.6788 12.641 14.4999C12.6341 14.4917 12.6271 14.4834 12.6201 14.475C12.3653 14.1712 11.9675 13.6967 11.2079 13.6967C10.4482 13.6967 10.0504 14.1712 9.79571 14.475C9.78864 14.4835 9.78167 14.4918 9.77481 14.5C9.50348 14.8228 9.37685 14.9465 9.10734 14.9465C8.83783 14.9465 8.71121 14.8228 8.43988 14.5C8.43302 14.4918 8.42605 14.4835 8.41898 14.475C8.16426 14.1712 7.76648 13.6968 7.00684 13.6968C6.24723 13.6968 5.84939 14.1712 5.59462 14.475C5.58755 14.4835 5.58058 14.4918 5.57371 14.4999C5.30231 14.8228 5.17563 14.9465 4.90609 14.9465C4.63659 14.9465 4.50996 14.8229 4.23863 14.5C4.23177 14.4918 4.2248 14.4835 4.21773 14.4751C3.96301 14.1712 3.56523 13.6968 2.80559 13.6968C2.61696 13.6968 2.43977 13.74 2.27731 13.8067C2.40609 13.6354 2.53638 13.4563 2.65926 13.2748ZM0.397081 14.7259C0.290573 14.9388 0.205077 15.183 0.205077 15.4465C0.205078 15.5286 0.21 15.6159 0.226747 15.7C0.241977 15.7765 0.276342 15.9007 0.370775 16.0121C0.486034 16.1481 0.653282 16.2207 0.828869 16.2137C0.972295 16.208 1.08304 16.1509 1.14259 16.1152C1.26304 16.043 1.37311 15.9342 1.45339 15.8506C1.52974 15.7711 1.61387 15.6767 1.69645 15.584C1.7092 15.5697 1.72191 15.5554 1.73454 15.5412C1.93374 15.318 2.138 15.0951 2.34743 14.9269C2.56662 14.7508 2.7167 14.6968 2.80559 14.6968C3.07509 14.6968 3.20172 14.8204 3.47305 15.1433C3.47991 15.1515 3.48688 15.1598 3.49395 15.1682C3.74867 15.4721 4.14645 15.9465 4.90609 15.9465C5.6657 15.9465 6.06354 15.4721 6.31831 15.1683C6.32539 15.1598 6.33235 15.1515 6.33922 15.1434C6.61062 14.8205 6.7373 14.6968 7.00684 14.6968C7.27635 14.6968 7.40297 14.8204 7.67431 15.1433C7.68117 15.1515 7.68813 15.1598 7.69521 15.1682C7.94992 15.472 8.3477 15.9465 9.10734 15.9465C9.86699 15.9465 10.2648 15.472 10.5195 15.1682C10.5266 15.1598 10.5335 15.1515 10.5404 15.1433C10.8117 14.8204 10.9383 14.6967 11.2079 14.6967C11.4774 14.6967 11.6041 14.8205 11.8755 15.1433C11.8823 15.1515 11.8893 15.1598 11.8964 15.1683C12.1512 15.4721 12.549 15.9465 13.3086 15.9465L13.6392 15.9465L13.7686 15.6424C14.9871 12.7806 15.7773 9.2104 15.384 6.22112C15.1866 4.72104 14.6865 3.33448 13.7581 2.26518C12.822 1.18696 11.4851 0.471785 9.69797 0.264684C6.81619 -0.069276 4.82655 1.08105 3.68976 2.85032C2.5751 4.58512 2.3069 6.86844 2.71573 8.81686C3.06412 10.4772 2.51212 11.7086 1.83121 12.7142C1.60735 13.0448 1.38972 13.3245 1.17835 13.5961C1.05042 13.7606 0.924775 13.922 0.801443 14.09C0.648734 14.2981 0.504122 14.512 0.397081 14.7259Z" fill="currentColor"/>
<path d="M8.59383 6.44437C8.59383 6.6898 8.39487 6.88875 8.14945 6.88875C7.90403 6.88875 7.70508 6.6898 7.70508 6.44437C7.70508 6.19895 7.90403 6 8.14945 6C8.39487 6 8.59383 6.19895 8.59383 6.44437Z" fill="currentColor"/>
<path fill-rule="evenodd" clip-rule="evenodd" d="M8.14945 6.5C8.18017 6.5 8.20508 6.4751 8.20508 6.44437C8.20508 6.41365 8.18017 6.38875 8.14945 6.38875C8.11873 6.38875 8.09383 6.41365 8.09383 6.44437C8.09383 6.4751 8.11873 6.5 8.14945 6.5ZM7.20508 6.44437C7.20508 5.92281 7.62789 5.5 8.14945 5.5C8.67102 5.5 9.09383 5.92281 9.09383 6.44437C9.09383 6.96594 8.67102 7.38875 8.14945 7.38875C7.62789 7.38875 7.20508 6.96594 7.20508 6.44437Z" fill="currentColor"/>
<path d="M12.5938 6.44437C12.5938 6.6898 12.3949 6.88875 12.1495 6.88875C11.904 6.88875 11.7051 6.6898 11.7051 6.44437C11.7051 6.19895 11.904 6 12.1495 6C12.3949 6 12.5938 6.19895 12.5938 6.44437Z" fill="currentColor"/>
<path fill-rule="evenodd" clip-rule="evenodd" d="M12.1495 6.5C12.1802 6.5 12.2051 6.4751 12.2051 6.44437C12.2051 6.41365 12.1802 6.38875 12.1495 6.38875C12.1187 6.38875 12.0938 6.41365 12.0938 6.44437C12.0938 6.4751 12.1187 6.5 12.1495 6.5ZM11.2051 6.44437C11.2051 5.92281 11.6279 5.5 12.1495 5.5C12.671 5.5 13.0938 5.92281 13.0938 6.44437C13.0938 6.96594 12.671 7.38875 12.1495 7.38875C11.6279 7.38875 11.2051 6.96594 11.2051 6.44437Z" fill="currentColor"/>
<path fill-rule="evenodd" clip-rule="evenodd" d="M8.39661 8.72214C8.52828 8.57765 8.71516 8.5 8.90492 8.5H11.5049C11.6947 8.5 11.8816 8.57765 12.0132 8.72214C12.1524 8.87491 12.2259 9.10337 12.1547 9.34085C12.0375 9.73139 11.7392 10.0223 11.4034 10.2079C11.0625 10.3963 10.6445 10.5 10.2049 10.5C9.76535 10.5 9.34735 10.3963 9.00649 10.2079C8.67066 10.0223 8.37231 9.73139 8.25516 9.34085C8.18392 9.10337 8.25739 8.87491 8.39661 8.72214Z" fill="currentColor"/>
</svg>
