<svg width="17" height="17" viewBox="0 0 17 17" fill="none" xmlns="http://www.w3.org/2000/svg">
<path fill-rule="evenodd" clip-rule="evenodd" d="M3.52532 3.14395C4.49056 1.85832 5.89829 1 8 1C10.1017 1 11.5094 1.85832 12.4747 3.14395C13.4585 4.45438 13.9993 6.23464 14.2689 8.07256C14.5374 9.90276 14.5303 11.7416 14.4545 13.1289C14.4166 13.8211 14.3619 14.3974 14.3168 14.7997C14.314 14.8242 14.3113 14.8481 14.3086 14.8714C14.2059 14.7982 14.1051 14.6929 13.9764 14.5537C13.9707 14.5476 13.965 14.5415 13.9593 14.5352C13.6798 14.2326 13.2677 13.7864 12.4873 13.7864C11.7068 13.7864 11.2949 14.2326 11.0154 14.5353C11.0097 14.5415 11.004 14.5477 10.9983 14.5538C10.7171 14.858 10.5689 15 10.2437 15C9.91837 15 9.77018 14.858 9.48898 14.5538C9.48334 14.5477 9.47764 14.5415 9.47188 14.5353C9.19245 14.2326 8.78046 13.7864 8 13.7864C7.21957 13.7864 6.80752 14.2326 6.52804 14.5352C6.52228 14.5415 6.51657 14.5477 6.51093 14.5538C6.22965 14.858 6.0814 15 5.7561 15C5.43081 15 5.28263 14.858 5.00143 14.5538C4.99578 14.5477 4.99008 14.5415 4.98433 14.5353C4.7049 14.2326 4.29291 13.7864 3.51245 13.7864C3.12903 13.7864 2.83042 13.8942 2.58663 14.0723C2.39085 14.2154 2.24057 14.4007 2.13442 14.5315C2.12173 14.5471 2.10967 14.562 2.09823 14.5759C1.97682 14.7238 1.88983 14.8169 1.78083 14.8832C1.75651 14.898 1.72914 14.9126 1.69777 14.9261C1.69307 14.8862 1.68822 14.844 1.68325 14.7997C1.63812 14.3975 1.58338 13.8211 1.54554 13.129C1.4697 11.7416 1.46259 9.90277 1.73108 8.07257C2.0007 6.23465 2.54145 4.45439 3.52532 3.14395ZM1.26879 15.5L0.774719 15.5768L0.840469 16L1.26879 16C1.69141 16 2.02538 15.9049 2.30052 15.7376C2.56561 15.5763 2.7434 15.366 2.87109 15.2105C2.88111 15.1983 2.89079 15.1865 2.90014 15.1751C3.02332 15.0248 3.09093 14.9424 3.17663 14.8797C3.24422 14.8304 3.33495 14.7864 3.51245 14.7864C3.83773 14.7864 3.98591 14.9284 4.26711 15.2326C4.27276 15.2387 4.27846 15.2449 4.28421 15.2511C4.56364 15.5538 4.97563 16 5.7561 16C6.53653 16 6.94858 15.5538 7.22806 15.2512C7.23382 15.2449 7.23952 15.2388 7.24517 15.2327C7.52644 14.9285 7.67469 14.7864 8 14.7864C8.32528 14.7864 8.47347 14.9284 8.75467 15.2326C8.76032 15.2387 8.76602 15.2449 8.77177 15.2511C9.0512 15.5538 9.46319 16 10.2437 16C11.0241 16 11.4361 15.5538 11.7155 15.2511C11.7213 15.2449 11.727 15.2387 11.7326 15.2326C12.0138 14.9284 12.162 14.7864 12.4873 14.7864C12.8126 14.7864 12.9609 14.9284 13.2421 15.2326C13.2478 15.2387 13.2535 15.2449 13.2593 15.2512C13.5387 15.5538 13.9508 16 14.7312 16L15.1595 16L15.2253 15.5767L14.7312 15.5C15.2253 15.5767 15.2252 15.577 15.2253 15.5767L15.2259 15.5729L15.2273 15.5635L15.2324 15.529C15.2368 15.499 15.243 15.4552 15.2507 15.3985C15.266 15.2852 15.2871 15.1203 15.3105 14.9112C15.3574 14.4931 15.4139 13.8976 15.453 13.1835C15.5309 11.7584 15.54 9.84722 15.2583 7.92742C14.9778 6.01534 14.4021 4.04561 13.2744 2.54354C12.128 1.01668 10.429 3.14801e-07 8 3.27835e-07C5.57101 3.11068e-07 3.87199 1.01668 2.72562 2.54355C1.59788 4.04561 1.02217 6.01535 0.741667 7.92743C0.460031 9.84723 0.469125 11.7584 0.547031 13.1835C0.586065 13.8976 0.642579 14.4932 0.689483 14.9112C0.712943 15.1203 0.734021 15.2852 0.749345 15.3985C0.757008 15.4552 0.763234 15.499 0.767602 15.529L0.772711 15.5636L0.774122 15.5729L0.774525 15.5755C0.774565 15.5758 0.774719 15.5768 1.26879 15.5Z" fill="currentColor"/>
<path fill-rule="evenodd" clip-rule="evenodd" d="M6 8.10937C5.72386 8.10937 5.5 7.88552 5.5 7.60937C5.5 7.22111 5.22796 6.99844 5.00016 6.99844C4.77235 6.99844 4.50031 7.22111 4.50031 7.60937C4.50031 7.88552 4.27646 8.10937 4.00031 8.10937C3.72417 8.10937 3.50031 7.88552 3.50031 7.60937C3.50031 6.77053 4.12357 5.99844 5.00016 5.99844C5.87675 5.99844 6.5 6.77054 6.5 7.60938C6.5 7.88552 6.27614 8.10937 6 8.10937Z" fill="currentColor"/>
<path fill-rule="evenodd" clip-rule="evenodd" d="M12 8.10937C11.7239 8.10937 11.5 7.88552 11.5 7.60937C11.5 7.22111 11.228 6.99844 11.0002 6.99844C10.7723 6.99844 10.5003 7.22111 10.5003 7.60937C10.5003 7.88552 10.2765 8.10937 10.0003 8.10937C9.72417 8.10937 9.50031 7.88552 9.50031 7.60937C9.50031 6.77053 10.1236 5.99844 11.0002 5.99844C11.8767 5.99844 12.5 6.77054 12.5 7.60938C12.5 7.88552 12.2761 8.10937 12 8.10937Z" fill="currentColor"/>
<path fill-rule="evenodd" clip-rule="evenodd" d="M7 9C7.27614 9 7.5 9.22386 7.5 9.5C7.5 9.88827 7.77204 10.1109 7.99984 10.1109C8.22765 10.1109 8.49969 9.88827 8.49969 9.5C8.49969 9.22386 8.72354 9 8.99969 9C9.27583 9 9.49969 9.22386 9.49969 9.5C9.49969 10.3388 8.87643 11.1109 7.99984 11.1109C7.12325 11.1109 6.5 10.3388 6.5 9.5C6.5 9.22386 6.72386 9 7 9Z" fill="currentColor"/>
</svg>
