<svg width="16" height="16" viewBox="0 0 16 16" fill="none" xmlns="http://www.w3.org/2000/svg">
<rect x="0.5" y="0.5" width="15" height="15" rx="1.5" stroke="currentColor"/>
<path d="M5.43066 8.4209V7.69727H7.2998V9.4082C7.11816 9.58398 6.85449 9.73926 6.50879 9.87402C6.16504 10.0068 5.81641 10.0732 5.46289 10.0732C5.01367 10.0732 4.62207 9.97949 4.28809 9.79199C3.9541 9.60254 3.70312 9.33301 3.53516 8.9834C3.36719 8.63184 3.2832 8.25 3.2832 7.83789C3.2832 7.39062 3.37695 6.99316 3.56445 6.64551C3.75195 6.29785 4.02637 6.03125 4.3877 5.8457C4.66309 5.70312 5.00586 5.63184 5.41602 5.63184C5.94922 5.63184 6.36523 5.74414 6.66406 5.96875C6.96484 6.19141 7.1582 6.5 7.24414 6.89453L6.38281 7.05566C6.32227 6.84473 6.20801 6.67871 6.04004 6.55762C5.87402 6.43457 5.66602 6.37305 5.41602 6.37305C5.03711 6.37305 4.73535 6.49316 4.51074 6.7334C4.28809 6.97363 4.17676 7.33008 4.17676 7.80273C4.17676 8.3125 4.29004 8.69531 4.5166 8.95117C4.74316 9.20508 5.04004 9.33203 5.40723 9.33203C5.58887 9.33203 5.77051 9.29688 5.95215 9.22656C6.13574 9.1543 6.29297 9.06738 6.42383 8.96582V8.4209H5.43066ZM8.07617 10V5.70508H8.94336V10H8.07617ZM9.77832 10V5.70508H12.7227V6.43164H10.6455V7.44824H12.4385V8.1748H10.6455V10H9.77832Z" fill="currentColor"/>
</svg>
