<svg width="18" height="17" viewBox="0 0 18 17" fill="none" xmlns="http://www.w3.org/2000/svg">
<path d="M13.2151 5.0723C12.6335 5.71828 11.0453 6.58517 9.34502 4.8849C9.34502 4.8849 8.70055 5.52936 7.77989 6.45003C6.85922 7.3707 4.59061 7.12755 5.97161 5.74655C6.4392 5.27896 8.45742 3.26074 8.45742 3.26074C10.2988 1.4194 13.5062 0.949158 15.4222 2.86518C17.2511 4.6941 17.2414 7.36415 15.6353 9.20458" stroke="currentColor" stroke-linecap="round"/>
<path d="M2.92294 9.88956C2.45535 9.42197 2.67981 9.64643 2.67981 9.64643C0.83847 7.8051 0.368223 4.59766 2.28425 2.68164C4.20027 0.765616 7.03945 0.867578 8.88079 2.70891" stroke="currentColor" stroke-linecap="round"/>
<rect x="8.39844" y="16.0938" width="2" height="3.6129" rx="1" transform="rotate(-135 8.39844 16.0938)" stroke="currentColor" stroke-linecap="round"/>
<path d="M11.3309 11.3253L11.8845 11.8789C12.2876 12.282 12.2876 12.9356 11.8845 13.3387L11.731 13.4923C11.4126 13.8106 10.8965 13.8106 10.5782 13.4923V13.4923" stroke="currentColor" stroke-linecap="round"/>
<path d="M10.9761 10.9722L11.7919 11.788C12.2454 12.2415 12.9807 12.2415 13.4342 11.788V11.788C13.8877 11.3345 13.8877 10.5992 13.4342 10.1457L12.2595 8.97097" stroke="currentColor" stroke-linecap="round"/>
<path d="M11.0617 7.7726L13.7076 10.4186C14.1107 10.8217 14.7643 10.8217 15.1674 10.4186V10.4186C15.5706 10.0154 15.5706 9.36184 15.1674 8.95872L12.0653 5.85657" stroke="currentColor" stroke-linecap="round"/>
<rect x="6.75391" y="14.8164" width="2" height="4.90323" rx="1" transform="rotate(-135 6.75391 14.8164)" stroke="currentColor" stroke-linecap="round"/>
<rect x="5.29688" y="13.3594" width="2" height="5.16129" rx="1" transform="rotate(-135 5.29688 13.3594)" stroke="currentColor" stroke-linecap="round"/>
<rect x="3.83594" y="11.8984" width="2" height="4.12903" rx="1" transform="rotate(-135 3.83594 11.8984)" stroke="currentColor" stroke-linecap="round"/>
</svg>
