<svg width="18" height="16" viewBox="0 0 18 16" fill="none" xmlns="http://www.w3.org/2000/svg">
<rect width="1.32445" height="2.29333" rx="0.662227" transform="matrix(-0.853734 -0.52071 0.539164 -0.842201 7.84375 14.9062)" stroke="currentColor" stroke-linecap="round"/>
<path d="M10.8331 10.4786L12.2619 11.3842C12.5535 11.5691 12.945 11.4859 13.1363 11.1984V11.1984C13.3276 10.911 13.2462 10.528 12.9546 10.3432L11.5257 9.43748L8.71213 7.73869C8.20521 8.23349 7.16778 9.01601 6.60209 8.87797C6.0364 8.73993 5.77713 8.30281 6.24854 7.84268C7.2979 6.81842 8.05968 6.07487 8.64893 5.95984C9.23819 5.84481 12.2589 6.11721 12.2589 6.11721" stroke="currentColor" stroke-linecap="round"/>
<rect width="1.32395" height="3.27745" rx="0.661976" transform="matrix(-0.844614 -0.535376 0.553926 -0.832566 6.72266 14.2812)" stroke="currentColor" stroke-linecap="round"/>
<path d="M9.31988 11.0717L11.7124 12.5882C12.0181 12.782 12.4286 12.6948 12.6291 12.3934V12.3934C12.8296 12.092 12.7443 11.6905 12.4386 11.4967L10.0461 9.98019" stroke="currentColor" stroke-linecap="round"/>
<rect width="1.32395" height="3.27745" rx="0.661976" transform="matrix(-0.844614 -0.535376 0.553926 -0.832566 5.78125 13.3594)" stroke="currentColor" stroke-linecap="round"/>
<path d="M5.54024 6.2325C6.05093 6.42422 7.09588 6.83067 7.19015 6.92269" stroke="currentColor" stroke-linejoin="round"/>
<path d="M10.485 11.8093L11.3424 12.3527C11.6408 12.5419 11.7241 12.9338 11.5284 13.228V13.228C11.3321 13.523 10.9301 13.6077 10.6316 13.417L9.50175 12.6953" stroke="currentColor" stroke-linecap="round"/>
<rect width="1.32395" height="2.62196" rx="0.661976" transform="matrix(-0.844613 -0.535377 0.553926 -0.832566 4.78516 12.3945)" stroke="currentColor" stroke-linecap="round"/>
<path d="M8.60298 13.8259L9.48161 14.3256C9.80116 14.5074 10.2123 14.4099 10.4157 14.1042V14.1042C10.6262 13.7877 10.5367 13.3663 10.2157 13.1628L9.77459 12.8833" stroke="currentColor" stroke-linecap="round"/>
<path d="M16.7353 8.87832C16.7353 8.51023 15.3211 6.19427 14.614 5.19733C14.0424 4.37485 13.789 4.39208 12.964 4.96724C12.1391 5.5424 12.1391 5.77246 12.4926 6.57768C12.6783 7.00061 14.4519 10.1005 15.2032 10.1437C15.8031 10.1781 16.7353 9.33844 16.7353 8.87832Z" stroke="currentColor" stroke-linejoin="round"/>
<path d="M3.12243 10.1925C3.44903 10.0085 4.79677 7.65507 5.32775 6.55887C5.77174 5.66451 5.62972 5.45889 4.70693 5.04912C3.78414 4.63936 3.58001 4.75439 3.04236 5.45586C2.75997 5.8243 0.89634 8.87348 1.23371 9.53016C1.5031 10.0545 2.71419 10.4226 3.12243 10.1925Z" stroke="currentColor" stroke-linejoin="round"/>
<path d="M14.4949 9.68562L13.1986 10.7209" stroke="currentColor" stroke-linejoin="round"/>
<circle cx="0.658741" cy="0.658741" r="0.658741" transform="matrix(-0.715615 -0.698495 0.715615 -0.698495 15.0859 9.33984)" fill="currentColor"/>
<ellipse cx="0.651798" cy="0.66561" rx="0.651798" ry="0.66561" transform="matrix(0.264723 -0.964324 0.967459 0.253028 1.89062 9.02734)" fill="currentColor"/>
<path d="M3.53508 9.7985C3.7315 10.0669 4.14792 10.6267 4.24219 10.7187" stroke="currentColor" stroke-linejoin="round"/>
<path d="M7.25 5L5.5 2.63636M8.5 4V1M10 4.5L11.5 2.63636" stroke="currentColor" stroke-linecap="round" stroke-linejoin="round"/>
</svg>
