<svg width="16" height="16" viewBox="0 0 16 16" fill="none" xmlns="http://www.w3.org/2000/svg">
<path d="M2.786 5.30882C2.86335 5.1219 3.04572 5 3.24801 5H13.752C14.1083 5 14.3502 5.36198 14.214 5.69118C14.1366 5.8781 13.9543 6 13.752 6H3.24801C2.89175 6 2.64979 5.63802 2.786 5.30882Z" fill="currentColor"/>
<path d="M1.80277 10.2683C1.86997 10.1059 2.02841 10 2.20417 10H12.8501C13.1596 10 13.3699 10.3145 13.2515 10.6005L13.1972 10.7317C13.13 10.8941 12.9716 11 12.7958 11H2.14989C1.84036 11 1.63014 10.6855 1.74849 10.3995L1.80277 10.2683Z" fill="currentColor"/>
<path d="M5.7445 2.36997C5.7764 2.15732 5.95908 2 6.17411 2H6.49557C6.76115 2 6.96457 2.2362 6.92517 2.49885L5.2555 13.63C5.2236 13.8427 5.04092 14 4.82589 14H4.50443C4.23885 14 4.03543 13.7638 4.07483 13.5012L5.7445 2.36997Z" fill="currentColor"/>
<path d="M10.7445 2.36997C10.7764 2.15732 10.9591 2 11.1741 2H11.4956C11.7612 2 11.9646 2.2362 11.9252 2.49885L10.2555 13.63C10.2236 13.8427 10.0409 14 9.82589 14H9.50443C9.23885 14 9.03543 13.7638 9.07483 13.5012L10.7445 2.36997Z" fill="currentColor"/>
</svg>
