<svg width="16" height="16" viewBox="0 0 16 16" fill="none" xmlns="http://www.w3.org/2000/svg">
<rect x="-0.683013" y="0.183013" width="1.96761" height="5.16779" rx="0.983806" transform="matrix(-0.866025 -0.5 -0.5 0.866025 12.8092 9.6127)" stroke="currentColor"/>
<rect x="2.69083" y="10.1127" width="1.96761" height="5.16779" rx="0.983806" transform="rotate(-30 2.69083 10.1127)" stroke="currentColor"/>
<path d="M11.2616 13.558L11.4636 13.6747C12.1137 14.05 12.945 13.8273 13.3204 13.1771V13.1771C13.6957 12.527 13.473 11.6957 12.8229 11.3204L12.6209 11.2038" stroke="currentColor"/>
<path d="M4.73836 13.558L4.53639 13.6747C3.88627 14.05 3.05497 13.8273 2.67962 13.1771V13.1771C2.30428 12.527 2.52702 11.6957 3.17714 11.3204L3.37912 11.2038" stroke="currentColor"/>
<path d="M13.4351 6.08594C13.5893 6.60164 13.6722 7.14816 13.6722 7.71405C13.6722 8.43724 13.3499 9.28948 13.0156 10.0007" stroke="currentColor"/>
<path d="M2.56493 6.08594C2.41066 6.60164 2.32779 7.14816 2.32779 7.71405C2.32779 8.43724 2.65009 9.28948 2.98438 10.0007" stroke="currentColor"/>
<path d="M12.6488 5.73922C11.7766 4.06083 10.0222 2.91438 8 2.91438C5.9778 2.91438 4.22337 4.06083 3.3512 5.73922C3.1884 6.05251 2.77402 6.16804 2.5012 5.94393L2.29747 5.77657C2.12149 5.632 2.06115 5.38707 2.1645 5.18412C3.24613 3.06023 5.45318 1.60547 8 1.60547C10.5468 1.60547 12.7539 3.06023 13.8355 5.18412C13.9388 5.38707 13.8785 5.632 13.7025 5.77657L13.4988 5.94393C13.226 6.16804 12.8116 6.05251 12.6488 5.73922Z" stroke="currentColor"/>
</svg>
