<svg width="17" height="17" viewBox="0 0 17 17" fill="none" xmlns="http://www.w3.org/2000/svg">
<path fill-rule="evenodd" clip-rule="evenodd" d="M2.97303 2.46484L2.56055 2.87318L4.41714 4.71111C2.92408 5.74358 1.97852 7.06181 1.97852 7.82888C1.97852 9.22536 5.11252 12.4486 8.97852 12.4486C9.94479 12.4486 10.8653 12.2473 11.7027 11.9234L14.11 14.3065L14.5224 13.8982L12.2779 11.6762C12.2787 11.6758 12.2794 11.6754 12.2802 11.6751L10.7872 10.197C10.7865 10.1975 10.7859 10.198 10.7852 10.1985L9.88693 9.30926C9.88764 9.30883 9.88835 9.3084 9.88906 9.30797L7.48376 6.92685C7.48333 6.92755 7.4829 6.92825 7.48246 6.92896L6.58334 6.03887C6.58383 6.03822 6.58432 6.03758 6.58481 6.03694L4.91906 4.38793C4.91835 4.38836 4.91764 4.38878 4.91693 4.38921L2.97303 2.46484ZM6.27114 6.54647C6.08356 6.9343 5.97852 7.3687 5.97852 7.8274C5.97852 9.4676 7.32166 10.7972 8.97852 10.7972C9.44187 10.7972 9.88068 10.6933 10.2725 10.5076L9.28855 9.53355C9.18792 9.55136 9.08431 9.56065 8.97852 9.56065C8.01202 9.56065 7.22852 8.78503 7.22852 7.82824C7.22852 7.72351 7.2379 7.62094 7.25589 7.52133L6.27114 6.54647ZM7.86729 6.48985L10.3305 8.9283C10.5792 8.62912 10.7285 8.24594 10.7285 7.82824C10.7285 6.87146 9.94501 6.09583 8.97852 6.09583C8.55657 6.09583 8.16951 6.24366 7.86729 6.48985ZM11.9785 7.8274C11.9785 8.58708 11.6904 9.28013 11.2164 9.80532L12.8221 11.3949C14.7235 10.3279 15.9785 8.71259 15.9785 7.82888C15.9785 6.43239 12.8445 3.20911 8.97852 3.20911C7.69099 3.20911 6.48464 3.56663 5.44822 4.0951L6.98052 5.612C7.51103 5.14278 8.21113 4.85755 8.97852 4.85755C10.6354 4.85755 11.9785 6.1872 11.9785 7.8274Z" fill="currentColor"/>
</svg>
