<svg width="17" height="18" viewBox="0 0 17 18" fill="none" xmlns="http://www.w3.org/2000/svg">
<path d="M3.0454 6.562C3.14429 6.81983 3.43541 6.95393 3.69563 6.86153C3.95586 6.76912 4.08664 6.4852 3.98775 6.22737L3.0454 6.562ZM4.32395 5.631L4.48497 6.05081L5.42732 5.71618L5.2663 5.29637L4.32395 5.631ZM3.98775 6.22737L3.82674 5.80756L2.88439 6.14219L3.0454 6.562L3.98775 6.22737ZM3.98087 5.47296C4.11817 5.42421 4.27178 5.49496 4.32395 5.631L5.2663 5.29637C5.01635 4.64468 4.28051 4.30572 3.62276 4.53928L3.98087 5.47296ZM3.62276 4.53928C2.96501 4.77285 2.63443 5.4905 2.88439 6.14219L3.82674 5.80756C3.77456 5.67153 3.84357 5.52172 3.98087 5.47296L3.62276 4.53928Z" fill="currentColor"/>
<path d="M14.5991 5.51903C14.5002 5.77686 14.2091 5.91096 13.9489 5.81856C13.6887 5.72615 13.5579 5.44223 13.6568 5.18441L14.5991 5.51903ZM13.3206 4.58804L13.1596 5.00784L12.2172 4.67321L12.3782 4.25341L13.3206 4.58804ZM13.6568 5.18441L13.8178 4.7646L14.7601 5.09923L14.5991 5.51903L13.6568 5.18441ZM13.6637 4.42999C13.5264 4.38124 13.3728 4.452 13.3206 4.58804L12.3782 4.25341C12.6282 3.60171 13.364 3.26275 14.0218 3.49632L13.6637 4.42999ZM14.0218 3.49632C14.6795 3.72988 15.0101 4.44753 14.7601 5.09923L13.8178 4.7646C13.87 4.62856 13.801 4.47875 13.6637 4.42999L14.0218 3.49632Z" fill="currentColor"/>
<path d="M7.81706 9.08279L6.47091 5.57307C6.31984 5.1792 5.87512 4.97434 5.4776 5.1155V5.1155C5.08007 5.25666 4.88028 5.69039 5.03134 6.08425L6.37749 9.59397" stroke="currentColor" stroke-linecap="round"/>
<path d="M9.82747 8.03591L11.1736 4.52619C11.3247 4.13232 11.7694 3.92746 12.1669 4.06862V4.06862C12.5645 4.20979 12.7643 4.64351 12.6132 5.03738L11.267 8.5471" stroke="currentColor" stroke-linecap="round"/>
<path d="M6.82991 6.50607L6.78741 6.39525C6.63634 6.00139 6.83613 5.56766 7.23366 5.4265V5.4265C7.63118 5.28534 8.07572 5.48972 8.22679 5.88359C8.64091 6.9633 9.40897 8.96581 9.69164 9.70278C10.0867 10.7327 9.94158 13.8269 7.72053 14.6156C6.38379 15.0903 5.79065 15.0669 4.49398 14.123C3.29253 13.2485 1.43919 12.5049 1.1735 12.4004C1.15128 12.3917 1.1297 12.3847 1.10738 12.3762C0.607187 12.1862 0.519077 11.3216 1.32379 11.0358C1.98209 10.8021 2.63639 11.3096 3.16854 11.5359C3.56843 11.706 3.75085 11.2717 3.59714 10.8709L2.15567 7.11266C2.00294 6.71448 2.20139 6.27725 2.59892 6.13609C2.99644 5.99493 3.44251 6.20329 3.59523 6.60148L4.89888 10.0004" stroke="currentColor" stroke-linecap="round"/>
<path d="M10.8144 5.46144L10.8569 5.35062C11.008 4.95675 10.8082 4.52302 10.4107 4.38186V4.38186C10.0132 4.2407 9.56856 4.44522 9.41749 4.83909C9.21105 5.37734 8.91666 6.14488 8.6383 6.87064M12.7455 8.95575L14.0491 5.55684C14.2018 5.15865 14.6479 4.95029 15.0454 5.09145C15.4429 5.23262 15.6414 5.66984 15.4887 6.06803L14.0491 9.81337M11.2962 10.6692C11.8052 9.93141 12.5474 9.90295 13.0147 9.97762C13.3002 10.0232 13.6028 10.0225 13.8705 9.90748C14.3672 9.69422 15.1942 9.3643 15.7214 9.2879C16.5156 9.17279 16.7426 10.2088 16.0618 10.7843C15.381 11.3598 14.447 12.1345 13.1504 13.0784C11.8537 14.0222 11.2605 14.0457 9.92381 13.571C9.70153 13.4921 9.50005 13.39 9.31783 13.2693" stroke="currentColor" stroke-linecap="round"/>
<path d="M5 3.5L4 2.5M6.75745 3.18705L6.07665 1M8.45946 2.84173L9.02679 1.23022M12 15.5L12.4308 17M13.5 14.5L14.4732 14.813M9.93453 15.3885L9.59413 17" stroke="currentColor" stroke-linecap="round"/>
</svg>
