<svg width="16" height="16" viewBox="0 0 16 16" fill="none" xmlns="http://www.w3.org/2000/svg">
<path d="M4.21881 11.9941C4.01831 11.8042 3.70185 11.8128 3.51197 12.0133C3.32208 12.2138 3.33069 12.5303 3.53119 12.7202L4.21881 11.9941ZM13.5 8C13.5 11.0376 11.0376 13.5 8 13.5V14.5C11.5899 14.5 14.5 11.5899 14.5 8H13.5ZM2.5 8C2.5 4.96243 4.96243 2.5 8 2.5V1.5C4.41015 1.5 1.5 4.41015 1.5 8H2.5ZM8 2.5C11.0376 2.5 13.5 4.96243 13.5 8H14.5C14.5 4.41015 11.5899 1.5 8 1.5V2.5ZM8 13.5C6.53511 13.5 5.2049 12.928 4.21881 11.9941L3.53119 12.7202C4.6956 13.8229 6.26926 14.5 8 14.5V13.5Z" fill="currentColor"/>
<path d="M8 4V8.17538C8 8.40444 8.07863 8.62655 8.22276 8.80458L10 11" stroke="currentColor" stroke-linecap="round"/>
<path d="M0.832031 4L1.18812 8.30228C1.20336 8.4864 1.40616 8.59095 1.56498 8.49658L5.27616 6.29123" stroke="currentColor" stroke-linecap="round"/>
</svg>
