<svg width="18" height="17" viewBox="0 0 18 17" fill="none" xmlns="http://www.w3.org/2000/svg">
<path d="M6.5 12L7.90771 11.9214C7.92474 11.9205 7.94164 11.9179 7.95816 11.9136L11.5 11M4 11.5L3.12934 10.992C3.0715 10.9582 3.02891 10.9035 3.01045 10.8391L1.07173 4.08033C1.03212 3.94225 1.11201 3.7982 1.25012 3.75868L10.7951 1.02721C10.8564 1.00968 10.9219 1.01525 10.9793 1.04286L14.8582 2.90801C14.9281 2.94164 14.9794 3.00475 14.998 3.0801L16.5406 9.33911C16.5739 9.47394 16.4953 9.61108 16.3622 9.65059L13.5 10.5M12.44 8.28L10.88 1M12.44 8.28L16.08 9.32M12.44 8.28L7.5 9.58M3.08 10.88L4.38 10.5M10.5 11.5L11.9425 12.4617C11.9802 12.4868 12.0106 12.5213 12.0309 12.5617L13.893 16.286C13.9535 16.407 14.0966 16.4614 14.2221 16.4111L16.2113 15.6155C16.3617 15.5553 16.4211 15.3737 16.3352 15.2363L14.0395 11.5632C14.0137 11.5219 14 11.4741 14 11.4254V10.5M12 11.5C11.5 10.6666 10.225 9.38753 11 8.99999C11.775 8.61246 13.0833 10.6667 13.125 11" stroke="currentColor" stroke-linecap="round"/>
<path d="M7.91952 8.19515C7.91445 8.20164 7.90721 8.2121 7.89952 8.22651C8.04251 8.20486 8.17481 8.21633 8.28109 8.27969C8.65209 8.50084 7.63475 8.96568 7.04051 9.20702C7.0242 9.21911 7.01005 9.2298 6.99832 9.23876C6.98453 9.24928 6.97416 9.25737 6.96761 9.26253L6.96073 9.26798L6.95993 9.26861L7.79939 7.82461C7.71069 8.00072 7.61777 8.17616 7.52931 8.33853C7.64707 8.28852 7.76607 8.24928 7.87895 8.22985C7.89022 8.2211 7.90024 8.21281 7.90897 8.20501C7.91337 8.20107 7.91685 8.19778 7.91952 8.19515ZM7.91952 8.19515C7.92488 8.18985 7.92695 8.1872 7.92664 8.18721C7.92633 8.18721 7.92364 8.18986 7.91952 8.19515ZM7.81813 6.78682C7.81703 6.78769 7.81571 6.78878 7.81416 6.79009C7.79287 6.80819 7.75242 6.85128 7.69545 6.9323C7.66157 6.98048 7.62675 7.03491 7.59125 7.09442C7.47429 7.36542 7.31915 7.67242 7.16842 7.95446L6.88505 7.06695C6.87886 7.18044 6.87167 7.29362 6.86436 7.40279C6.95321 7.21858 7.04789 7.03256 7.14435 6.86791C7.19186 6.75619 7.22999 6.65605 7.25582 6.57231C7.28084 6.4912 7.28386 6.45755 7.28469 6.45761C7.28499 6.45763 7.285 6.46216 7.28569 6.47052C7.28678 6.48381 7.29183 6.53355 7.32288 6.59443C7.44771 6.42767 7.57136 6.31969 7.68521 6.31969C7.82673 6.31969 7.80472 6.525 7.70046 6.81934C7.76544 6.81634 7.80574 6.79479 7.81813 6.78682ZM7.81813 6.78682C7.82084 6.78508 7.82221 6.78399 7.82222 6.78388C7.82223 6.78376 7.82088 6.78463 7.81813 6.78682ZM6.40307 6.59016C6.39928 6.80943 6.38642 7.04626 6.37175 7.27405L6.40307 6.59016ZM6.40307 6.59016C6.41731 6.45324 6.43391 6.3299 6.4538 6.22558C6.47725 6.10254 6.49882 6.04253 6.50754 6.02485C6.5076 6.02472 6.50766 6.0246 6.50773 6.02447C6.49619 6.04324 6.46006 6.0932 6.39273 6.13142M4.56328 9.70358C4.59948 9.76009 4.63269 9.81138 4.66178 9.85601C4.64632 9.91683 4.62789 9.98915 4.60697 10.071C4.53947 10.335 4.44604 10.6979 4.34226 11.0937C4.13356 11.8896 3.88666 12.8043 3.72431 13.3202C3.64649 13.5676 3.77063 13.8333 4.01024 13.9324L5.29079 14.4618C5.42509 14.5173 5.5769 14.5116 5.70669 14.4463C5.83649 14.3809 5.93142 14.2623 5.96678 14.1213L7.06711 9.73467C7.09596 9.72338 7.12671 9.71124 7.15903 9.69832C7.35829 9.61868 7.62369 9.50717 7.87601 9.38359C8.11486 9.2666 8.39062 9.11587 8.57569 8.95031C8.65516 8.87922 8.80735 8.72939 8.84955 8.50741C8.87454 8.37595 8.85794 8.23183 8.78458 8.09965C8.71648 7.97695 8.61866 7.89882 8.53712 7.85021C8.30548 7.71212 8.05491 7.70084 7.8471 7.72898C7.99326 7.43306 8.13274 7.12203 8.21139 6.86707C8.25125 6.73786 8.29638 6.56009 8.28235 6.38886C8.27507 6.3 8.24736 6.15268 8.13447 6.02183C8.00576 5.87264 7.83263 5.81969 7.68521 5.81969C7.45035 5.81969 7.27214 5.9384 7.16665 6.02804C7.06558 6.11391 6.9775 6.21893 6.90255 6.32197C6.90036 6.22998 6.89587 6.14166 6.88838 6.05938C6.87549 5.91776 6.85054 5.75093 6.79044 5.60555C6.7385 5.4799 6.57296 5.17969 6.20016 5.17969C5.83538 5.17969 5.6638 5.47481 5.61065 5.58259C5.54142 5.72299 5.49992 5.88911 5.47148 6.03836C5.45386 6.13079 5.43875 6.23103 5.42565 6.33603C5.38429 6.25828 5.33647 6.1817 5.28089 6.1132C5.1897 6.00081 5.00264 5.81969 4.71511 5.81969C4.58529 5.81969 4.43468 5.85883 4.30803 5.97191C4.18887 6.0783 4.13814 6.20826 4.11612 6.3026C4.07609 6.47414 4.10245 6.65144 4.12588 6.7694C4.14899 6.88574 4.18511 7.01496 4.22749 7.14772C4.21882 7.14742 4.21008 7.14726 4.20126 7.14726C4.06523 7.14726 3.88977 7.19435 3.75959 7.3488C3.64478 7.485 3.62436 7.63671 3.62151 7.72139C3.61603 7.88377 3.66829 8.04515 3.70791 8.15198C3.79689 8.39191 3.95312 8.68693 4.10655 8.95463C4.2639 9.22917 4.43379 9.50144 4.56328 9.70358ZM6.34867 7.8997C6.44838 7.8997 6.5297 7.9278 6.59348 7.96534C6.54055 8.06124 6.48991 8.15136 6.44375 8.23252C6.40907 8.2935 6.37705 8.34919 6.34867 8.39821C6.34839 8.3987 6.3481 8.39919 6.34782 8.39967C6.30808 8.39684 6.312 8.19391 6.32977 7.90007C6.33598 7.89983 6.34228 7.8997 6.34867 7.8997Z" stroke="currentColor" stroke-linecap="round" stroke-linejoin="round"/>
</svg>
