<svg width="16" height="16" viewBox="0 0 16 16" fill="none" xmlns="http://www.w3.org/2000/svg">
<path d="M4.80769 2H1.5C1.22386 2 1 2.22386 1 2.5V13.5C1 13.7761 1.22386 14 1.5 14H14.5C14.7761 14 15 13.7761 15 13.5V6.06339C15 5.67391 14.5744 5.43398 14.2412 5.6356L11.0922 7.54087C10.7589 7.74249 10.3333 7.50256 10.3333 7.11308V6.03089C10.3333 5.64859 9.92173 5.40772 9.58843 5.59498L6.0526 7.58149C5.7193 7.76875 5.30769 7.52788 5.30769 7.14558V2.5C5.30769 2.22386 5.08383 2 4.80769 2Z" stroke="currentColor" stroke-linecap="round"/>
</svg>
