<svg width="16" height="16" viewBox="0 0 16 16" fill="none" xmlns="http://www.w3.org/2000/svg">
<g clip-path="url(#clip0_6398_111259)">
<path d="M12.4861 8.40952C12.2897 8.40952 12.1157 8.31945 12.0003 8.1783L12.0003 4.0264L7.88645 4.0264C7.72171 3.91311 7.61375 3.72367 7.61375 3.50915C7.61375 3.13353 7.92647 2.82422 7.92647 2.42359C7.92647 1.63704 7.28799 1 6.49967 1C5.71134 1 5.07286 1.63704 5.07286 2.42359C5.07286 2.82284 5.38652 3.1328 5.38652 3.50915C5.38652 3.72367 5.27855 3.91311 5.11381 4.0264L1 4.0264L0.999999 15L11.9993 15L11.9993 10.8611C12.1147 10.7209 12.2888 10.6299 12.4852 10.6299C12.8615 10.6299 13.172 10.9419 13.5732 10.9419C14.3615 10.9419 15 10.3049 15 9.51831C15 8.73176 14.4356 8.09472 13.5732 8.09472C13.1706 8.09472 12.8662 8.40952 12.4861 8.40952Z" stroke="currentColor" stroke-miterlimit="10"/>
</g>
<defs>
<clipPath id="clip0_6398_111259">
<rect width="16" height="16" fill="white"/>
</clipPath>
</defs>
</svg>
