<svg width="16" height="17" viewBox="0 0 16 17" fill="none" xmlns="http://www.w3.org/2000/svg">
<path fill-rule="evenodd" clip-rule="evenodd" d="M7.9987 10.7201C7.26536 10.7201 6.66536 11.3201 6.66536 12.0534C6.66536 12.7867 7.26536 13.3867 7.9987 13.3867C8.73203 13.3867 9.33203 12.7867 9.33203 12.0534C9.33203 11.3201 8.73203 10.7201 7.9987 10.7201ZM7.9987 9.38672C8.73203 9.38672 9.33203 8.78672 9.33203 8.05339C9.33203 7.32005 8.73203 6.72005 7.9987 6.72005C7.26537 6.72005 6.66537 7.32005 6.66537 8.05339C6.66537 8.78672 7.26537 9.38672 7.9987 9.38672ZM7.9987 5.38672C8.73203 5.38672 9.33203 4.78672 9.33203 4.05339C9.33203 3.32005 8.73203 2.72005 7.9987 2.72005C7.26537 2.72005 6.66537 3.32005 6.66537 4.05339C6.66537 4.78672 7.26537 5.38672 7.9987 5.38672Z" fill="currentColor"/>
</svg>
