<svg width="16" height="16" viewBox="0 0 16 16" fill="none" xmlns="http://www.w3.org/2000/svg">
<path d="M2.74357 13.3903L2.74357 11.5273C2.74357 11.461 2.76991 11.3974 2.81679 11.3505L6.14845 8.01883C6.21871 7.94857 6.23998 7.84356 6.20767 7.74959C5.7408 6.39139 6.04933 4.82567 7.13326 3.74174C8.6485 2.2265 11.1052 2.2265 12.6204 3.74173C14.1356 5.25697 14.1356 7.71364 12.6204 9.22887C11.7545 10.0948 10.5812 10.4658 9.45183 10.3421C9.37367 10.3335 9.29521 10.3592 9.23961 10.4148L8.30393 11.3505C8.25705 11.3974 8.19346 11.4237 8.12715 11.4237H7.36277C7.23297 11.4237 7.12477 11.523 7.11368 11.6524L7.0475 12.4245C7.03751 12.5411 6.94791 12.6352 6.8319 12.6508L5.97802 12.7662C5.85401 12.783 5.7615 12.8889 5.7615 13.014V13.6192C5.7615 13.7662 5.63527 13.8815 5.48886 13.8681L2.97094 13.6392C2.84217 13.6275 2.74357 13.5196 2.74357 13.3903Z" stroke="currentColor"/>
<circle cx="10.4253" cy="5.9375" r="1.052" transform="rotate(-45 10.4253 5.9375)" stroke="currentColor"/>
</svg>
