<svg width="16" height="16" viewBox="0 0 16 16" fill="none" xmlns="http://www.w3.org/2000/svg">
<g clip-path="url(#clip0_325_648)">
<path d="M8 16C5.87827 16 3.84344 15.1571 2.34315 13.6569C0.842855 12.1566 0 10.1217 0 8C0 5.87827 0.842855 3.84344 2.34315 2.34315C3.84344 0.842855 5.87827 0 8 0C10.1217 0 12.1566 0.842855 13.6569 2.34315C15.1571 3.84344 16 5.87827 16 8C16 10.1217 15.1571 12.1566 13.6569 13.6569C12.1566 15.1571 10.1217 16 8 16ZM11.756 2.092L10.473 3.653C9.743 3.238 8.9 3 8 3C7.1 3 6.256 3.238 5.527 3.653L4.244 2.092C3.37828 2.64377 2.64377 3.37828 2.092 4.244L3.653 5.527C3.238 6.257 3 7.1 3 8C3 8.9 3.238 9.744 3.653 10.473L2.092 11.756C2.64377 12.6217 3.37828 13.3562 4.244 13.908L5.527 12.347C6.257 12.762 7.1 13 8 13C8.9 13 9.744 12.762 10.473 12.347L11.756 13.908C12.6217 13.3562 13.3562 12.6217 13.908 11.756L12.347 10.473C12.762 9.743 13 8.9 13 8C13 7.1 12.762 6.256 12.347 5.527L13.908 4.244C13.3562 3.37828 12.6217 2.64377 11.756 2.092ZM8 13C6.67392 13 5.40215 12.4732 4.46447 11.5355C3.52678 10.5979 3 9.32608 3 8C3 6.67392 3.52678 5.40215 4.46447 4.46447C5.40215 3.52678 6.67392 3 8 3C9.32608 3 10.5979 3.52678 11.5355 4.46447C12.4732 5.40215 13 6.67392 13 8C13 9.32608 12.4732 10.5979 11.5355 11.5355C10.5979 12.4732 9.32608 13 8 13ZM8 12C9.06087 12 10.0783 11.5786 10.8284 10.8284C11.5786 10.0783 12 9.06087 12 8C12 6.93913 11.5786 5.92172 10.8284 5.17157C10.0783 4.42143 9.06087 4 8 4C6.93913 4 5.92172 4.42143 5.17157 5.17157C4.42143 5.92172 4 6.93913 4 8C4 9.06087 4.42143 10.0783 5.17157 10.8284C5.92172 11.5786 6.93913 12 8 12Z" fill="currentColor"/>
</g>
<defs>
<clipPath id="clip0_325_648">
<rect width="16" height="16" fill="white"/>
</clipPath>
</defs>
</svg>
