<svg width="16" height="16" viewBox="0 0 16 16" fill="none" xmlns="http://www.w3.org/2000/svg">
<path d="M8.37037 9.57219L8.96296 8.9796C9.98571 7.95685 9.98571 6.29865 8.96296 5.2759V5.2759C7.94021 4.25315 6.282 4.25315 5.25925 5.2759L1.85185 8.68331C0.829102 9.70605 0.829102 11.3643 1.85185 12.387V12.387C2.8746 13.4098 4.5328 13.4098 5.55555 12.387L6.03703 11.9055" stroke="currentColor" stroke-linecap="round"/>
<path d="M9.85359 3.94604L10.4462 3.35345C11.4689 2.3307 13.1271 2.3307 14.1499 3.35345V3.35345C15.1726 4.3762 15.1726 6.0344 14.1499 7.05715L10.7425 10.4646C9.71973 11.4873 8.06152 11.4873 7.03877 10.4646V10.4646C6.01603 9.44181 6.01603 7.7836 7.03877 6.76085L7.52026 6.27937" stroke="currentColor" stroke-linecap="round"/>
</svg>
