<svg width="17" height="18" viewBox="0 0 17 18" fill="none" xmlns="http://www.w3.org/2000/svg">
<path d="M8.01474 13.6953L10.4902 14.0498L9.25248 16.9171L6.79297 16.5787L8.01474 13.6953Z" stroke="currentColor" stroke-miterlimit="10" stroke-linejoin="round"/>
<path d="M8.01738 13.6972C8.01738 13.6972 2.65076 9.59352 4.30484 6.35085C6.11921 2.79349 10.1936 8.11939 10.86 10.439" stroke="currentColor" stroke-miterlimit="10" stroke-linejoin="round"/>
<path d="M10.8594 10.4399L13.2996 8.92188L15.7957 9.32299L13.3275 10.8836L10.8594 10.4399Z" stroke="currentColor" stroke-miterlimit="10" stroke-linejoin="round"/>
<path d="M13.3002 8.92038C8.64457 -2.67209 3.83795 1.91439 3.06777 2.58021C2.2976 3.24604 -3.18409 10.3776 6.79628 16.58" stroke="currentColor" stroke-miterlimit="10" stroke-linejoin="round"/>
<path d="M4.97656 1.37084C4.97656 1.37084 12.8167 -1.28907 15.7963 9.32155" stroke="currentColor" stroke-miterlimit="10" stroke-linejoin="round"/>
<path d="M3.98828 14.4655L5.76408 11.7319L8.24021 11.582" stroke="currentColor" stroke-miterlimit="10" stroke-linejoin="round"/>
<path d="M9.13672 7.10138L11.1373 4.62109L14.0225 5.15051" stroke="currentColor" stroke-miterlimit="10" stroke-linejoin="round"/>
<path d="M10.4909 14.0502C10.8766 14.2561 8.19565 11.8231 6.4172 9.32122C4.97462 7.29201 7.24391 5.61192 8.15641 6.32839" stroke="currentColor" stroke-miterlimit="10" stroke-linejoin="round"/>
</svg>
