<svg width="16" height="18" viewBox="0 0 16 18" fill="none" xmlns="http://www.w3.org/2000/svg">
<path d="M8 17L7.6407 17.3477L8 17.719L8.3593 17.3477L8 17ZM8 0.5C4.43977 0.5 1.5 3.19593 1.5 6.6H2.5C2.5 3.81207 4.92595 1.5 8 1.5V0.5ZM1.5 6.6C1.5 7.75836 1.91035 9.01244 2.48674 10.2132C3.06662 11.4213 3.83476 12.6166 4.59479 13.6679C5.35592 14.7208 6.11593 15.6391 6.6852 16.2937C6.97007 16.6213 7.20779 16.8836 7.37479 17.0645C7.4583 17.155 7.52417 17.2252 7.56946 17.273C7.59211 17.297 7.60961 17.3153 7.6216 17.3278C7.6276 17.3341 7.63222 17.3389 7.63542 17.3422C7.63702 17.3439 7.63826 17.3452 7.63914 17.3461C7.63958 17.3466 7.63994 17.3469 7.64019 17.3472C7.64032 17.3473 7.64045 17.3475 7.64052 17.3475C7.64062 17.3476 7.6407 17.3477 8 17C8.3593 16.6523 8.35934 16.6523 8.35935 16.6523C8.35932 16.6523 8.35931 16.6523 8.35926 16.6522C8.35915 16.6521 8.35896 16.6519 8.35867 16.6516C8.3581 16.651 8.35717 16.6501 8.35588 16.6487C8.35331 16.6461 8.34933 16.6419 8.34397 16.6363C8.33326 16.6251 8.31707 16.6082 8.29577 16.5857C8.25317 16.5406 8.19014 16.4735 8.10959 16.3863C7.94846 16.2117 7.71743 15.9568 7.4398 15.6375C6.88407 14.9984 6.14408 14.1042 5.40521 13.0821C4.66524 12.0584 3.93338 10.9162 3.38826 9.78051C2.83965 8.63756 2.5 7.54164 2.5 6.6H1.5ZM8 17C8.3593 17.3477 8.35938 17.3476 8.35948 17.3475C8.35955 17.3475 8.35968 17.3473 8.35981 17.3472C8.36006 17.3469 8.36042 17.3466 8.36086 17.3461C8.36174 17.3452 8.36298 17.3439 8.36458 17.3422C8.36778 17.3389 8.3724 17.3341 8.3784 17.3278C8.39039 17.3153 8.40789 17.297 8.43054 17.273C8.47583 17.2252 8.5417 17.155 8.62521 17.0645C8.79221 16.8836 9.02993 16.6213 9.3148 16.2937C9.88407 15.6391 10.6441 14.7208 11.4052 13.6679C12.1652 12.6166 12.9334 11.4213 13.5133 10.2132C14.0896 9.01244 14.5 7.75836 14.5 6.6H13.5C13.5 7.54164 13.1604 8.63756 12.6117 9.78051C12.0666 10.9162 11.3348 12.0584 10.5948 13.0821C9.85592 14.1042 9.11593 14.9984 8.5602 15.6375C8.28257 15.9568 8.05154 16.2117 7.89041 16.3863C7.80986 16.4735 7.74683 16.5406 7.70423 16.5857C7.68293 16.6082 7.66674 16.6251 7.65603 16.6363C7.65067 16.6419 7.64669 16.6461 7.64412 16.6487C7.64283 16.6501 7.6419 16.651 7.64133 16.6516C7.64104 16.6519 7.64085 16.6521 7.64074 16.6522C7.64069 16.6523 7.64068 16.6523 7.64065 16.6523C7.64066 16.6523 7.6407 16.6523 8 17ZM14.5 6.6C14.5 3.19593 11.5602 0.5 8 0.5V1.5C11.0741 1.5 13.5 3.81207 13.5 6.6H14.5ZM7.94531 8.10156C7.11746 8.10156 6.44531 7.42942 6.44531 6.60156H5.44531C5.44531 7.9817 6.56517 9.10156 7.94531 9.10156V8.10156ZM6.44531 6.60156C6.44531 5.77371 7.11746 5.10156 7.94531 5.10156V4.10156C6.56517 4.10156 5.44531 5.22142 5.44531 6.60156H6.44531ZM7.94531 5.10156C8.77317 5.10156 9.44531 5.77371 9.44531 6.60156H10.4453C10.4453 5.22142 9.32545 4.10156 7.94531 4.10156V5.10156ZM9.44531 6.60156C9.44531 7.42942 8.77317 8.10156 7.94531 8.10156V9.10156C9.32545 9.10156 10.4453 7.9817 10.4453 6.60156H9.44531Z" fill="currentColor"/>
</svg>
