<svg width="16" height="16" viewBox="0 0 16 16" fill="none" xmlns="http://www.w3.org/2000/svg">
<path fill-rule="evenodd" clip-rule="evenodd" d="M10.6654 8.0013C10.6654 8.73464 11.2654 9.33464 11.9987 9.33464C12.732 9.33464 13.332 8.73464 13.332 8.0013C13.332 7.26797 12.732 6.66797 11.9987 6.66797C11.2654 6.66797 10.6654 7.26797 10.6654 8.0013ZM9.33203 8.0013C9.33203 7.26797 8.73203 6.66797 7.9987 6.66797C7.26537 6.66797 6.66537 7.26797 6.66537 8.0013C6.66537 8.73464 7.26537 9.33463 7.9987 9.33464C8.73203 9.33464 9.33203 8.73464 9.33203 8.0013ZM5.33203 8.0013C5.33203 7.26797 4.73203 6.66797 3.9987 6.66797C3.26536 6.66797 2.66537 7.26797 2.66537 8.0013C2.66537 8.73463 3.26536 9.33463 3.9987 9.33463C4.73203 9.33463 5.33203 8.73464 5.33203 8.0013Z" fill="currentColor"/>
</svg>
