<svg width="18" height="17" viewBox="0 0 18 17" fill="none" xmlns="http://www.w3.org/2000/svg">
<path d="M3.54963 11.0402C3.43954 12.109 3.76408 14.8447 4.11528 15.3707C4.44639 15.8666 6.67588 16.0487 7.08462 15.3546C7.49336 14.6604 6.33485 14.776 5.84766 12.9578C5.61059 12.073 5.70122 11.1782 5.58424 10.495" stroke="currentColor"/>
<path d="M11.3336 11.8116C10.9098 11.5911 10.3809 11.3361 9.79117 11.0968C8.33124 10.5041 6.38134 9.95691 4.73232 10.3988L4.72691 10.4002L4.72151 10.4017L4.71611 10.4031L4.71072 10.4046L4.70533 10.406L4.69995 10.4074L4.69457 10.4089L4.6892 10.4103L4.68382 10.4118L4.67846 10.4132L4.67309 10.4146L4.66773 10.4161L4.66238 10.4175L4.65703 10.4189L4.65168 10.4204L4.64634 10.4218L4.641 10.4232L4.63567 10.4247L4.63033 10.4261L4.62501 10.4275L4.61969 10.4289L4.61437 10.4304L4.60905 10.4318L4.60374 10.4332L4.59844 10.4346L4.59314 10.4361L4.58784 10.4375L4.58254 10.4389L4.57725 10.4403L4.57197 10.4417L4.56669 10.4431L4.56141 10.4446L4.55614 10.446L4.55087 10.4474L4.5456 10.4488L4.54034 10.4502L4.53509 10.4516L4.52983 10.453L4.52458 10.4544L4.51934 10.4558L4.5141 10.4572L4.50886 10.4586L4.50363 10.46L4.4984 10.4614L4.49318 10.4628L4.48796 10.4642L4.48274 10.4656L4.47753 10.467L4.47232 10.4684L4.46712 10.4698L4.46192 10.4712L4.45672 10.4726L4.45153 10.474L4.44634 10.4754L4.44116 10.4768L4.43598 10.4782L4.4308 10.4796L4.42563 10.4809L4.42046 10.4823L4.4153 10.4837L4.41014 10.4851L4.40499 10.4865L4.39984 10.4879L4.39469 10.4892L4.38954 10.4906L4.38441 10.492L4.37927 10.4934L4.37414 10.4947L4.36901 10.4961L4.36389 10.4975L4.35877 10.4989L4.35366 10.5002L4.34855 10.5016L4.34344 10.503L4.33834 10.5043L4.33324 10.5057L4.32814 10.5071L4.32305 10.5084L4.31797 10.5098L4.31288 10.5112L4.30781 10.5125L4.30273 10.5139L4.29766 10.5152L4.2926 10.5166L4.28753 10.5179L4.28247 10.5193L4.27742 10.5207L4.27237 10.522L4.26732 10.5234L4.26228 10.5247L4.25724 10.5261L4.25221 10.5274L4.24718 10.5288L4.24215 10.5301L4.23713 10.5314L4.23211 10.5328L4.2271 10.5341L4.22209 10.5355L4.21708 10.5368L4.21208 10.5382L4.20708 10.5395L4.20209 10.5408L4.1971 10.5422L4.19211 10.5435L4.18713 10.5448L4.18215 10.5462L4.17718 10.5475L4.17221 10.5488L4.16725 10.5502L4.16228 10.5515L4.15733 10.5528L4.15237 10.5542L4.14742 10.5555L4.14248 10.5568L4.13753 10.5581L4.1326 10.5595L4.12766 10.5608L4.12273 10.5621L4.11781 10.5634L4.11289 10.5647L4.10797 10.5661L4.10305 10.5674L4.09814 10.5687L4.09324 10.57L4.08834 10.5713L4.08344 10.5726L4.07854 10.5739L4.07365 10.5753L4.06877 10.5766L4.06389 10.5779L4.05901 10.5792L4.05414 10.5805L4.04927 10.5818L4.0444 10.5831L4.03954 10.5844L4.03468 10.5857L4.02983 10.587L4.02497 10.5883L4.02013 10.5896L4.01529 10.5909L4.01045 10.5922L4.00561 10.5935L4.00078 10.5948L3.99596 10.5961L3.99114 10.5974L3.98632 10.5987L3.9815 10.5999L3.97669 10.6012L3.97189 10.6025L3.96708 10.6038L3.96229 10.6051L3.95749 10.6064L3.9527 10.6077L3.94791 10.6089L3.94313 10.6102L3.93835 10.6115L3.93358 10.6128L3.92881 10.6141L3.92404 10.6153L3.91928 10.6166L3.91452 10.6179L3.90976 10.6192L3.90501 10.6204L3.90027 10.6217L3.89552 10.623L3.89078 10.6243L3.88605 10.6255L3.88132 10.6268L3.87659 10.6281L3.87187 10.6293L3.86715 10.6306L3.86243 10.6318L3.85772 10.6331L3.85301 10.6344L3.84831 10.6356L3.84361 10.6369L3.83892 10.6382L3.83422 10.6394L3.82954 10.6407L3.82485 10.6419L3.82017 10.6432L3.8155 10.6444L3.81082 10.6457L3.80616 10.6469L3.80149 10.6482L3.79683 10.6494L3.79217 10.6507L3.78752 10.6519L3.78287 10.6532L3.77823 10.6544L3.77359 10.6557L3.76895 10.6569L3.76432 10.6581L3.75969 10.6594L3.75507 10.6606L3.75044 10.6619L3.74583 10.6631L3.74121 10.6643L3.7366 10.6656L3.732 10.6668L3.7274 10.668L3.7228 10.6693L3.71821 10.6705L3.71362 10.6717L3.70903 10.673L3.70445 10.6742L3.69987 10.6754L3.6953 10.6766L3.69073 10.6779L3.68616 10.6791L3.6816 10.6803L3.67704 10.6815L3.67249 10.6827L3.66793 10.684L3.66339 10.6852L3.65884 10.6864L3.65431 10.6876L3.64977 10.6888L3.64524 10.69L3.64071 10.6913L3.63619 10.6925L3.63167 10.6937L3.62715 10.6949L3.62264 10.6961L3.61813 10.6973L3.61363 10.6985L3.60913 10.6997L3.60463 10.7009L3.60014 10.7021L3.59565 10.7033L3.59117 10.7045L3.58669 10.7057L3.58221 10.7069L3.57774 10.7081L3.57327 10.7093L3.56881 10.7105L3.56434 10.7117L3.55989 10.7129L3.55543 10.7141L3.55098 10.7153L3.54654 10.7165L3.5421 10.7177L3.53766 10.7189L3.53322 10.7201L3.52879 10.7212L3.52437 10.7224L3.51995 10.7236L3.51553 10.7248L3.51111 10.726L3.5067 10.7272L3.50229 10.7283L3.49789 10.7295L3.49349 10.7307L3.4891 10.7319L3.4847 10.7331L3.48032 10.7342L3.47593 10.7354L3.47155 10.7366L3.46718 10.7378L3.4628 10.7389L3.45844 10.7401L3.45407 10.7413L3.44971 10.7424L3.44535 10.7436L3.441 10.7448L3.43665 10.7459L3.43231 10.7471L3.42797 10.7483L3.42363 10.7494L3.41929 10.7506L3.41496 10.7517L3.41064 10.7529L3.40632 10.7541L3.402 10.7552L3.39768 10.7564L3.39337 10.7575L3.38907 10.7587L3.38476 10.7598L3.38046 10.761L3.37617 10.7621L3.37188 10.7633L3.36759 10.7644L3.3633 10.7656L3.35902 10.7667L3.35475 10.7679L3.35048 10.769L3.34621 10.7702L3.34194 10.7713L3.33768 10.7725L3.33342 10.7736L3.32917 10.7747L3.32492 10.7759L3.32068 10.777L3.31643 10.7781L3.3122 10.7793L3.30796 10.7804L3.30373 10.7816L3.29951 10.7827L3.29528 10.7838L3.29106 10.7849L3.28685 10.7861L3.28264 10.7872L3.27843 10.7883L3.27423 10.7895L3.27003 10.7906L3.26583 10.7917L3.26164 10.7928L3.25745 10.794L3.25327 10.7951L3.24909 10.7962L3.24491 10.7973L3.24074 10.7984L3.23657 10.7995L3.2324 10.8007L3.22824 10.8018L3.22408 10.8029L3.21993 10.804L3.21578 10.8051L3.21163 10.8062L3.20749 10.8073L3.20335 10.8084L3.19921 10.8096L3.19508 10.8107L3.19095 10.8118L3.18683 10.8129L3.18271 10.814L3.17859 10.8151L3.17448 10.8162L3.17037 10.8173L3.16627 10.8184L3.16217 10.8195L3.15807 10.8206L3.15398 10.8217L3.14989 10.8228L3.1458 10.8239L3.14172 10.825L3.13764 10.8261L3.13357 10.8271L3.12949 10.8282L3.12543 10.8293L3.12136 10.8304L3.1173 10.8315L3.11325 10.8326L3.1092 10.8337L3.10515 10.8348L3.1011 10.8358L3.09706 10.8369L3.09303 10.838L3.08899 10.8391L3.08496 10.8402L3.08094 10.8412L3.07692 10.8423L3.0729 10.8434L3.06889 10.8445L3.06487 10.8456L3.06087 10.8466L3.05686 10.8477L3.05287 10.8488L3.04887 10.8498L3.04488 10.8509L3.04089 10.852L3.03691 10.853L3.03293 10.8541L3.02895 10.8552L3.02498 10.8562L3.02101 10.8573L3.01704 10.8584L3.01308 10.8594L3.00912 10.8605L3.00517 10.8616L3.00122 10.8626L2.99727 10.8637L2.99333 10.8647L2.98939 10.8658L2.98545 10.8668L2.98152 10.8679L2.97759 10.8689L2.97367 10.87L2.96975 10.871L2.96583 10.8721L2.96192 10.8731L2.95801 10.8742L2.9541 10.8752L2.9502 10.8763L2.9463 10.8773L2.94241 10.8784L2.93852 10.8794L2.93463 10.8805L2.93075 10.8815L2.92687 10.8825L2.92299 10.8836L2.91912 10.8846L2.91525 10.8856L2.91139 10.8867L2.90752 10.8877L2.90367 10.8887L2.89981 10.8898L2.89596 10.8908L2.89212 10.8918L2.88828 10.8929L2.88444 10.8939L2.8806 10.8949L2.87677 10.896L2.87294 10.897L2.86912 10.898L2.8653 10.899L2.86148 10.9001L2.85767 10.9011L2.85386 10.9021L2.85006 10.9031L2.84625 10.9041L2.84246 10.9052L2.83866 10.9062L2.83487 10.9072L2.83109 10.9082L2.8273 10.9092L2.82352 10.9102L2.81975 10.9112L2.81598 10.9122L2.81221 10.9133L2.80844 10.9143L2.80468 10.9153L2.80092 10.9163L2.79717 10.9173L2.79342 10.9183L2.78968 10.9193L2.78593 10.9203L2.78219 10.9213L2.77846 10.9223L2.77473 10.9233L2.771 10.9243L2.76728 10.9253L2.76356 10.9263L2.75984 10.9273L2.75613 10.9283L2.75242 10.9293L2.74871 10.9303L2.74501 10.9313L2.74131 10.9323L2.73762 10.9332L2.73393 10.9342L2.73024 10.9352L2.72656 10.9362L2.72288 10.9372L2.7192 10.9382L2.71553 10.9392L2.71186 10.9401L2.70819 10.9411L2.70453 10.9421L2.70087 10.9431L2.69722 10.9441L2.69357 10.945L2.68992 10.946L2.68628 10.947L2.68264 10.948L2.679 10.9489L2.67537 10.9499L2.67174 10.9509L2.66812 10.9519L2.6645 10.9528L2.66088 10.9538L2.65726 10.9548L2.65365 10.9557L2.65005 10.9567L2.64644 10.9577L2.64284 10.9586L2.63925 10.9596L2.63566 10.9606L2.63207 10.9615L2.62848 10.9625L2.6249 10.9634L2.62133 10.9644L2.61775 10.9654L2.61418 10.9663L2.61061 10.9673L2.60705 10.9682L2.60349 10.9692L2.59994 10.9701L2.59638 10.9711L2.59284 10.972L2.58929 10.973L2.58575 10.9739L2.58221 10.9749L2.57868 10.9758L2.57515 10.9768L2.57162 10.9777L2.5681 10.9787L2.56458 10.9796L2.56106 10.9805L2.55755 10.9815L2.55404 10.9824L2.55054 10.9834L2.54704 10.9843L2.54354 10.9852L2.54005 10.9862L2.53656 10.9871L2.53307 10.9881L2.52959 10.989L2.52611 10.9899L2.52263 10.9908L2.51916 10.9918L2.51569 10.9927L2.51222 10.9936L2.50876 10.9946L2.50531 10.9955L2.50185 10.9964L2.4984 10.9973L2.49495 10.9983L2.49151 10.9992L2.48807 11.0001L2.48463 11.001L2.4812 11.0019C1.7438 11.1995 0.985885 10.7619 0.788279 10.0244C0.590619 9.28677 1.02786 8.52914 1.76505 8.33161L1.77137 8.32991L1.7777 8.32822L1.78403 8.32652L1.79036 8.32482L1.7967 8.32313L1.80305 8.32143L1.8094 8.31972L1.81576 8.31802L1.82212 8.31631L1.82849 8.31461L1.83487 8.3129L1.84125 8.31119L1.84764 8.30948L1.85403 8.30777L1.86043 8.30605L1.86683 8.30434L1.87324 8.30262L1.87965 8.3009L1.88607 8.29918L1.8925 8.29746L1.89893 8.29574L1.90536 8.29401L1.9118 8.29228L1.91825 8.29056L1.9247 8.28883L1.93115 8.2871L1.93762 8.28537L1.94408 8.28364L1.95055 8.2819L1.95703 8.28017L1.96351 8.27843L1.97 8.27669L1.97649 8.27495L1.98299 8.27321L1.98949 8.27147L1.996 8.26973L2.00251 8.26798L2.00902 8.26623L2.01554 8.26449L2.02207 8.26274L2.0286 8.26099L2.03514 8.25924L2.04168 8.25748L2.04822 8.25573L2.05477 8.25398L2.06132 8.25222L2.06788 8.25046L2.07445 8.2487L2.08101 8.24694L2.08759 8.24518L2.09416 8.24342L2.10074 8.24166L2.10733 8.23989L2.11392 8.23813L2.12051 8.23636L2.12711 8.23459L2.13371 8.23282L2.14032 8.23105L2.14693 8.22928L2.15355 8.22751L2.16017 8.22574L2.16679 8.22396L2.17342 8.22218L2.18005 8.22041L2.18669 8.21863L2.19333 8.21685L2.19997 8.21507L2.20662 8.21329L2.21327 8.21151L2.21993 8.20972L2.22659 8.20794L2.23325 8.20615L2.23992 8.20437L2.24659 8.20258L2.25327 8.20079L2.25995 8.199L2.26663 8.19721L2.27331 8.19542L2.28 8.19363L2.2867 8.19183L2.2934 8.19004L2.3001 8.18824L2.3068 8.18645L2.31351 8.18465L2.32022 8.18285L2.32693 8.18105L2.33365 8.17925L2.34037 8.17745L2.3471 8.17565L2.35383 8.17384L2.36056 8.17204L2.36729 8.17024L2.37403 8.16843L2.38077 8.16662L2.38752 8.16482L2.39427 8.16301L2.40102 8.1612L2.40777 8.15939L2.41453 8.15758L2.42129 8.15577L2.42805 8.15396L2.43482 8.15214L2.44159 8.15033L2.44836 8.14852L2.45513 8.1467L2.46191 8.14488L2.46869 8.14307L2.47547 8.14125L2.48226 8.13943L2.48905 8.13761L2.49584 8.13579L2.50264 8.13397L2.50943 8.13215L2.51623 8.13033L2.52304 8.12851L2.52984 8.12668L2.53665 8.12486L2.54346 8.12303L2.55027 8.12121L2.55709 8.11938L2.5639 8.11755L2.57072 8.11573L2.57755 8.1139L2.58437 8.11207L2.5912 8.11024L2.59803 8.10841L2.60486 8.10658L2.61169 8.10475L2.61853 8.10292L2.62537 8.10109L2.63221 8.09925L2.63905 8.09742L2.64589 8.09559L2.65274 8.09375L2.65959 8.09192L2.66644 8.09008L2.67329 8.08824L2.68015 8.08641L2.687 8.08457L2.69386 8.08273L2.70072 8.08089L2.70758 8.07906L2.71445 8.07722L2.72131 8.07538L2.72818 8.07354L2.73505 8.0717L2.74192 8.06986L2.74879 8.06801L2.75567 8.06617L2.76254 8.06433L2.76942 8.06249L2.7763 8.06064L2.78318 8.0588L2.79006 8.05696L2.79695 8.05511L2.80383 8.05327L2.81072 8.05142L2.8176 8.04958L2.82449 8.04773L2.83138 8.04588L2.83827 8.04404L2.84517 8.04219L2.85206 8.04034L2.85896 8.0385L2.86585 8.03665L2.87275 8.0348L2.87965 8.03295L2.88655 8.0311L2.89345 8.02925L2.90035 8.0274L2.90725 8.02555L2.91416 8.0237L2.92106 8.02185L2.92797 8.02L2.93487 8.01815L2.94178 8.0163L2.94869 8.01445L2.9556 8.0126L2.96251 8.01075L2.96942 8.0089L2.97633 8.00705L2.98324 8.00519L2.99016 8.00334L2.99707 8.00149L3.00398 7.99964L3.0109 7.99778L3.01781 7.99593L3.02473 7.99408L3.03164 7.99222L3.03856 7.99037L3.04548 7.98852L3.05239 7.98666L3.05931 7.98481L3.06623 7.98296L3.07315 7.9811L3.08006 7.97925L3.08698 7.9774L3.0939 7.97554L3.10082 7.97369L3.10774 7.97183L3.11466 7.96998L3.12158 7.96813L3.1285 7.96627L3.13542 7.96442L3.14234 7.96256L3.14926 7.96071L3.15618 7.95886L3.1631 7.957L3.17001 7.95515L3.17693 7.95329L3.18385 7.95144L3.19077 7.94959L3.19769 7.94773L3.20461 7.94588L3.21153 7.94402L3.21844 7.94217L3.22536 7.94032L3.23228 7.93846L3.2392 7.93661L3.24611 7.93476L3.25303 7.9329L3.25994 7.93105L3.26686 7.9292L3.27377 7.92735L3.28069 7.92549L3.2876 7.92364L3.29451 7.92179L3.30142 7.91994L3.30834 7.91808L3.31525 7.91623L3.32216 7.91438L3.32906 7.91253L3.33597 7.91068L3.34288 7.90883L3.34979 7.90698L3.35669 7.90513L3.3636 7.90328L3.3705 7.90143L3.3774 7.89958L3.38431 7.89773L3.39121 7.89588L3.39811 7.89403L3.405 7.89218L3.4119 7.89033L3.4188 7.88849L3.42569 7.88664L3.43259 7.88479L3.43948 7.88294L3.44637 7.8811L3.45326 7.87925L3.46015 7.87741L3.46704 7.87556L3.47393 7.87372L3.48081 7.87187L3.48769 7.87003L3.49458 7.86818L3.50146 7.86634L3.50834 7.86449L3.51521 7.86265L3.52209 7.86081L3.52896 7.85897L3.53584 7.85713L3.54271 7.85529L3.54958 7.85344L3.55644 7.8516L3.56331 7.84976L3.57017 7.84793L3.57703 7.84609L3.5839 7.84425L3.59075 7.84241L3.59761 7.84057L3.60447 7.83874L3.61132 7.8369L3.61817 7.83507L3.62502 7.83323L3.63186 7.8314L3.63871 7.82956L3.64555 7.82773L3.65239 7.8259L3.65923 7.82406L3.66607 7.82223L3.6729 7.8204L3.67973 7.81857L3.68656 7.81674L3.69339 7.81491L3.70021 7.81308L3.70703 7.81125L3.71385 7.80943L3.72067 7.8076L3.72749 7.80577L3.7343 7.80395L3.74111 7.80212L3.74792 7.8003L3.75472 7.79848L3.76153 7.79665L3.76833 7.79483L3.77512 7.79301L3.78192 7.79119L3.78871 7.78937L3.7955 7.78755L3.80228 7.78573L3.80907 7.78391L3.81585 7.7821L3.82263 7.78028L3.8294 7.77847L3.83617 7.77665L3.84294 7.77484L3.84971 7.77302L3.85647 7.77121L3.86323 7.7694L3.86999 7.76759L3.87674 7.76578L3.88349 7.76397L3.89024 7.76216L3.89699 7.76036L3.90373 7.75855L3.91047 7.75674L3.9172 7.75494L3.92393 7.75314L3.93066 7.75133L3.93739 7.74953L3.94411 7.74773L3.95083 7.74593L3.95754 7.74413L3.96425 7.74233L3.97096 7.74053L3.97767 7.73874L3.98437 7.73694L3.99106 7.73515L3.99776 7.73335L4.00445 7.73156L4.01113 7.72977L4.01782 7.72798L4.0245 7.72619L4.03117 7.7244L4.03784 7.72261L4.04451 7.72083L4.05117 7.71904L4.05783 7.71726L4.06449 7.71547L4.07114 7.71369L4.07779 7.71191L4.08444 7.71013L4.09108 7.70835L4.09771 7.70657L4.10434 7.70479L4.11097 7.70302L4.1176 7.70124L4.12422 7.69947L4.13083 7.6977L4.13744 7.69593L4.14405 7.69416L4.15065 7.69239L4.15725 7.69062L4.16385 7.68885L4.17044 7.68709L4.17702 7.68532L4.1836 7.68356L4.19018 7.6818L4.19675 7.68003L4.20332 7.67827L4.20988 7.67652L4.21644 7.67476L4.223 7.673L4.22955 7.67125L4.23609 7.66949L4.24263 7.66774L4.24917 7.66599L4.2557 7.66424L4.26222 7.66249L4.26874 7.66074L4.27526 7.659L4.28177 7.65725L4.28828 7.65551L4.29478 7.65377L4.30128 7.65203L4.30777 7.65029L4.31426 7.64855L4.32074 7.64681L4.32722 7.64508L4.33369 7.64334L4.34015 7.64161L4.34662 7.63988L4.35307 7.63815L4.35952 7.63642L4.36597 7.63469L4.37241 7.63297L4.37885 7.63124L4.38528 7.62952L4.3917 7.6278L4.39812 7.62608L4.40453 7.62436L4.41094 7.62264L4.41735 7.62093L4.42374 7.61921L4.43014 7.6175L4.43652 7.61579L4.4429 7.61408L4.44928 7.61237L4.45565 7.61066L4.46201 7.60896L4.46837 7.60725L4.47473 7.60555L4.48107 7.60385L4.48741 7.60215L4.49375 7.60045L4.50008 7.59876L4.5064 7.59706L4.51272 7.59537L4.51903 7.59368L4.52534 7.59199L4.53164 7.5903L4.53793 7.58862L4.54422 7.58693L4.5505 7.58525L4.55678 7.58357L4.56305 7.58189L4.56931 7.58021L4.57557 7.57853L4.58182 7.57686L4.58807 7.57518L4.59431 7.57351L4.60054 7.57184L4.60677 7.57017L4.61298 7.56851L4.6192 7.56684L4.62541 7.56518L4.63161 7.56352L4.6378 7.56186L4.64399 7.5602L4.65017 7.55854L4.65634 7.55689L4.66251 7.55523L4.66867 7.55358L4.67483 7.55193L4.68098 7.55029L4.68712 7.54864L4.69325 7.547L4.69938 7.54536L4.7055 7.54371L4.71162 7.54208L4.71773 7.54044L4.72383 7.53881L4.72992 7.53717L4.73601 7.53554L4.74209 7.53391L4.74816 7.53229L4.75423 7.53066L4.76028 7.52904L4.76634 7.52741L4.77238 7.52579L4.77842 7.52418L4.78445 7.52256L4.79047 7.52095L4.79649 7.51934L4.8025 7.51773L4.8085 7.51612L4.81449 7.51451L4.82048 7.51291L4.82646 7.5113L4.83243 7.5097L4.8384 7.50811L4.84435 7.50651L4.8503 7.50492L4.85625 7.50332L4.86218 7.50173L4.86811 7.50014L4.87403 7.49856L4.87994 7.49697L4.88585 7.49539L4.89174 7.49381L4.89763 7.49223L4.90351 7.49066L4.90939 7.48908L4.91525 7.48751L4.92111 7.48594L4.92696 7.48438L4.9328 7.48281L4.93864 7.48125L4.94446 7.47969L4.95028 7.47813L4.95609 7.47657L4.96189 7.47502L4.96769 7.47346L4.97347 7.47191L4.97925 7.47036L4.98502 7.46882L4.99078 7.46727L4.99654 7.46573L5.00228 7.46419L5.00802 7.46266L5.01375 7.46112L5.01947 7.45959L5.02518 7.45806L5.03089 7.45653L5.03658 7.455L5.04227 7.45348L5.04795 7.45196L5.05362 7.45044L5.05928 7.44892L5.06493 7.44741L5.07058 7.44589L5.07621 7.44438L5.08184 7.44288L5.08746 7.44137L5.09307 7.43987L5.09867 7.43837L5.10426 7.43687L5.10985 7.43537L5.11542 7.43388L5.12099 7.43239L5.12654 7.4309C5.72464 7.27064 6.29732 6.81173 6.79279 6.3025C7.30133 5.77984 7.78724 5.14179 8.20524 4.53305C8.52303 4.07027 8.8062 3.6176 9.03523 3.23416L11.3336 11.8116Z" stroke="currentColor"/>
<rect x="8.46966" y="1.21285" width="1.69071" height="13.0471" rx="0.845353" transform="rotate(-15 8.46966 1.21285)" stroke="currentColor"/>
<path d="M11.7912 8.6357C12.6084 8.41673 13.0964 7.58798 12.8812 6.78464C12.6659 5.98131 11.8289 5.50759 11.0117 5.72656" stroke="currentColor"/>
<path d="M14.668 6.38672L16.1169 5.99849" stroke="currentColor" stroke-linecap="round"/>
<path d="M13.7722 4.97054L15.4381 3.74772" stroke="currentColor" stroke-linecap="round"/>
<path d="M14.4531 9.44531L16.5913 10.273" stroke="currentColor" stroke-linecap="round"/>
<path d="M12.9003 3.64849L14.4378 1.49478" stroke="currentColor" stroke-linecap="round"/>
<path d="M14.5469 7.86719L16.5606 7.94267" stroke="currentColor" stroke-linecap="round"/>
</svg>
