<svg width="16" height="16" viewBox="0 0 16 16" fill="none" xmlns="http://www.w3.org/2000/svg">
<g clip-path="url(#clip0_6414_111100)">
<path d="M14.5508 5.54633C14.7527 5.50039 14.8201 5.68204 14.9042 5.81626C15.4519 6.68781 15.9474 8.05299 15.989 9.0692C15.995 9.21863 16.001 9.35882 15.8079 9.37641C15.2787 9.42503 14.6434 9.35106 14.107 9.36001L12.5119 9.37224L11.4516 9.97892C11.4201 10.015 11.3849 10.3771 11.3663 10.4648C11.274 10.8991 11.0573 11.3605 10.788 11.7217C10.6679 11.8828 10.5404 12.0594 10.3224 12.1011L5.71165 12.1047C5.47478 12.074 5.34595 11.8917 5.2187 11.7214C4.09451 10.2187 4.45738 8.09743 6.04553 7.03678C7.59211 6.00387 9.70314 6.37522 10.7911 7.81676L11.3735 7.80185C11.5597 7.61841 11.8028 7.4657 12.0211 7.31149C12.8599 6.71823 13.7019 6.12348 14.5508 5.54603V5.54633ZM14.8702 8.42105C14.7675 7.88477 14.5747 7.36965 14.3504 6.87005L12.9806 7.83197C13.2278 7.85613 13.4795 7.99184 13.5926 8.2069C13.6294 8.27699 13.6364 8.33843 13.6682 8.40674L14.8705 8.42105H14.8702ZM6.01907 11.1502H6.79079C6.15483 10.523 6.00963 9.59326 6.45187 8.82342C6.83552 8.15559 7.41068 7.94233 8.18491 7.88447L9.38942 7.83943C8.61739 7.26436 7.47242 7.2748 6.6692 7.79141C5.50659 8.53917 5.24264 10.0526 6.01907 11.1502ZM11.4998 8.77898C11.3833 8.81775 11.2595 8.78047 11.1461 8.77808C10.4777 8.76407 9.78252 8.80016 9.11444 8.82402C8.66936 8.83983 7.87623 8.79449 7.51652 9.04086C6.82827 9.51213 7.18169 10.7353 8.0564 10.6557C8.38997 10.6253 9.00829 10.2423 9.31508 10.0729C9.89119 9.75492 10.4629 9.42175 11.0258 9.08292C11.1855 8.98687 11.3565 8.89322 11.4995 8.77868L11.4998 8.77898ZM9.37367 11.1502H9.98789L10.2478 10.6581L9.37367 11.1502Z" fill="currentColor"/>
<path d="M7.99546 2C8.56842 1.9997 9.16311 2.05011 9.72032 2.17777C9.88317 2.21505 10.0362 2.22818 10.0344 2.42981C9.66992 3.47167 9.33415 4.52337 8.96435 5.56373C8.92781 5.66664 8.856 5.92881 8.79773 6.00249C8.68843 6.14088 8.40966 6.04216 8.24713 6.03321C7.90632 6.01442 7.56582 6.05051 7.23067 6.10092C7.16327 6.09227 7.11318 6.06125 7.07665 6.00815C6.7141 4.91678 6.31281 3.83108 5.96727 2.73375C5.90742 2.54345 5.77733 2.32452 6.04664 2.23414C6.56353 2.06144 7.44455 2.0003 7.99546 2ZM8.77505 2.99085C8.22571 2.94582 7.66913 2.94313 7.12137 3.00577L7.81655 5.07666L8.06822 5.0698L8.77505 2.99085Z" fill="currentColor"/>
<path d="M4.99231 2.57572C5.05972 2.56707 5.13563 2.5963 5.17626 2.6482C5.59866 3.84367 5.97727 5.05673 6.36628 6.26413C6.35305 6.44518 6.15965 6.47948 6.02105 6.56359C5.81568 6.68827 5.61945 6.82637 5.43676 6.97968C5.31328 7.08348 5.16303 7.31673 4.9794 7.26393L1.89443 5.09939C1.79899 5.03108 1.76969 4.93086 1.82387 4.82647C1.86703 4.74266 2.09004 4.51776 2.16847 4.43693C2.86899 3.7175 3.7771 3.08069 4.72237 2.67952C4.78978 2.65089 4.92742 2.58437 4.992 2.57602L4.99231 2.57572ZM5.19768 5.94021L4.51574 3.8556C4.04452 4.13299 3.59 4.4411 3.20099 4.81722L4.96522 6.07026C5.02192 6.09412 5.135 5.95781 5.198 5.94051L5.19768 5.94021Z" fill="currentColor"/>
<path d="M10.8474 2.54776C10.9026 2.53702 10.935 2.54597 10.9864 2.5585C11.1536 2.59936 11.4604 2.75476 11.6239 2.8347C12.3584 3.19351 13.0946 3.70594 13.6713 4.26639C13.7567 4.34931 14.1072 4.70216 14.1327 4.78389C14.1636 4.88351 14.1331 4.96434 14.0474 5.02609L10.9419 7.17095C10.7596 7.23 10.6534 7.04627 10.5369 6.95112C10.3419 6.79184 10.1378 6.64957 9.9173 6.5237C9.77398 6.44197 9.52703 6.38799 9.52734 6.20574L10.6934 2.70047C10.7142 2.63247 10.7706 2.56267 10.8471 2.54776H10.8474ZM12.7257 4.76599C12.7402 4.74571 12.6233 4.6449 12.6 4.62432C12.2485 4.31352 11.8122 4.03821 11.3958 3.81213L10.6953 5.8681C10.769 5.88093 10.8771 6.01813 10.9413 5.99338L12.7257 4.76599Z" fill="currentColor"/>
<path d="M11.9683 10.0781L15.8741 10.0868C15.9497 10.1136 15.9995 10.2019 16.0013 10.2762C16.0064 10.468 15.9538 10.7633 15.9229 10.9598C15.7793 11.8812 15.4142 12.9272 14.9046 13.7239C14.8268 13.8456 14.782 13.9556 14.5984 13.9192L11.4615 11.6852C11.3459 11.5477 11.5147 11.3335 11.5708 11.1934C11.6482 10.9995 11.715 10.8026 11.7629 10.5998C11.7884 10.4918 11.8146 10.1918 11.8791 10.1282C11.8933 10.1142 11.9481 10.0823 11.968 10.0781H11.9683ZM14.8863 11.0296H12.6814L12.6096 11.313L14.3744 12.5806C14.6239 12.0947 14.7786 11.5614 14.8863 11.0299V11.0296Z" fill="currentColor"/>
<path d="M4.13786 10.2421C4.20306 10.3041 4.24118 10.6125 4.27047 10.7205C4.35489 11.0337 4.49096 11.3323 4.64373 11.6198C4.66294 11.6857 4.62892 11.7379 4.59774 11.7931L1.49072 13.9812C1.42269 14.0095 1.32126 14.0018 1.26173 13.957C1.20566 13.9147 1.06644 13.663 1.02203 13.5875C0.520883 12.7362 0.0493502 11.431 0.0162768 10.4539C0.011867 10.3202 0.0254113 10.1818 0.197708 10.1622C0.528128 10.1246 0.976667 10.1759 1.31559 10.178C2.00415 10.1824 2.69208 10.1795 3.37875 10.1929C3.57782 10.1968 3.83705 10.1702 4.02541 10.192C4.06226 10.1962 4.11235 10.2179 4.13786 10.2421ZM3.35197 11.1503L1.13511 11.1169C1.24409 11.652 1.43214 12.1677 1.65515 12.6679L3.42694 11.4298C3.45623 11.3854 3.35701 11.2109 3.35197 11.1503Z" fill="currentColor"/>
<path d="M1.28865 5.61832C1.32298 5.61175 1.35763 5.61145 1.39165 5.61832C2.45882 6.34341 3.50552 7.10638 4.54403 7.86787C4.58308 7.91828 4.59442 7.97316 4.58088 8.0349C4.56135 8.12438 4.44134 8.32243 4.39945 8.42981C4.32763 8.61414 4.27156 8.80533 4.22715 8.99742C4.1966 9.13015 4.20636 9.41738 4.0495 9.45556L0.115645 9.45138C0.0378437 9.40664 -0.00152948 9.33178 4.54485e-05 9.24617C0.0173696 8.2589 0.454254 6.96172 0.938072 6.09167C0.994454 5.99026 1.1195 5.75015 1.19132 5.67528C1.21526 5.65023 1.25369 5.62488 1.28834 5.61832H1.28865ZM1.1195 8.50796H3.30078C3.32503 8.45039 3.39118 8.31169 3.39653 8.25532C3.39811 8.23981 3.39338 8.23385 3.3811 8.2243L1.61624 6.97127C1.38378 7.45954 1.21652 7.97882 1.1195 8.50766V8.50796Z" fill="currentColor"/>
</g>
<defs>
<clipPath id="clip0_6414_111100">
<rect width="16" height="12" fill="white" transform="translate(0 2)"/>
</clipPath>
</defs>
</svg>
