<svg width="17" height="17" viewBox="0 0 17 17" fill="none" xmlns="http://www.w3.org/2000/svg">
<path d="M4.70419 9.09371H1.54834C1.65614 8.05103 1.96784 7.07175 2.44207 6.1983L4.99584 8.12857C4.86404 8.43388 4.76535 8.75706 4.70419 9.09371Z" stroke="currentColor" stroke-miterlimit="10" stroke-linejoin="round"/>
<path d="M2.49267 13.7032C1.98485 12.7957 1.67748 11.8159 1.56107 10.8228L4.72902 10.8469C4.79811 11.1729 4.90444 11.4936 5.04872 11.8024L2.49267 13.7032ZM5.24405 11.6571L5.24376 11.6573L5.24405 11.6571Z" stroke="currentColor" stroke-miterlimit="10" stroke-linejoin="round"/>
<path fill-rule="evenodd" clip-rule="evenodd" d="M3.52458 3.96401C3.28994 4.18941 3.06651 4.43161 2.85593 4.69036C2.85326 4.69363 2.8506 4.69691 2.84794 4.7002C2.8479 4.70024 2.84797 4.70015 2.84794 4.7002L2.8468 4.69927C2.84676 4.69932 2.84683 4.69923 2.8468 4.69927C2.84464 4.70195 2.84244 4.7048 2.84044 4.70755C2.77287 4.80013 2.79399 4.93325 2.88591 5.00181L5.90373 7.24919C5.98607 7.31033 6.10032 7.30189 6.17031 7.226C6.47806 6.88973 6.83419 6.61988 7.21914 6.4196C7.30663 6.37322 7.3478 6.26675 7.31795 6.17082L6.18781 2.5183C6.15281 2.40235 6.02724 2.34016 5.91711 2.38654C5.04725 2.75378 4.23459 3.28197 3.52458 3.96401ZM5.50895 3.70739C5.0353 3.98484 4.58903 4.32275 4.18153 4.71983L5.96679 6.04932C6.03748 5.99241 6.10953 5.93772 6.18282 5.88527L5.50895 3.70739Z" fill="currentColor"/>
<path d="M9.37734 5.51054C9.06096 5.47888 8.73804 5.48285 8.41461 5.52496L7.43167 2.42856C8.42913 2.21349 9.43081 2.21605 10.3858 2.40839L9.37734 5.51054Z" stroke="currentColor" stroke-miterlimit="10" stroke-linejoin="round"/>
<path d="M11.0327 6.02988L12.0159 2.93899C12.9456 3.36714 13.7544 3.97381 14.4166 4.70645L11.829 6.60252C11.589 6.38453 11.3228 6.19167 11.0327 6.02988Z" stroke="currentColor" stroke-miterlimit="10" stroke-linejoin="round"/>
<mask id="path-6-inside-1_6400_111696" fill="white">
<path d="M12.4834 8.38232C12.433 8.26109 12.3764 8.14092 12.3136 8.02392C12.2642 7.93221 12.292 7.81836 12.3743 7.75723L15.3921 5.51301C15.4868 5.44238 15.6227 5.46662 15.6844 5.56887C16.3936 6.71892 16.7878 7.99124 16.8856 9.27305C16.8949 9.39427 16.7981 9.49758 16.6797 9.49652L12.9394 9.46806"/>
</mask>
<path d="M12.3136 8.02392L13.1947 7.55109L13.194 7.54964L12.3136 8.02392ZM12.3743 7.75723L12.9704 8.56011L12.971 8.55966L12.3743 7.75723ZM15.3921 5.51301L15.9889 6.31544L15.99 6.3146L15.3921 5.51301ZM15.6844 5.56887L14.8284 6.08589L14.8333 6.09375L15.6844 5.56887ZM16.8856 9.27305L15.8885 9.34911L15.8885 9.34924L16.8856 9.27305ZM16.6797 9.49652L16.6886 8.49656L16.6873 8.49655L16.6797 9.49652ZM13.4067 7.99819C13.3444 7.84852 13.2739 7.69862 13.1947 7.55109L11.4324 8.49674C11.4788 8.58323 11.5215 8.67367 11.5601 8.76644L13.4067 7.99819ZM13.194 7.54964C13.388 7.90993 13.2732 8.33528 12.9704 8.5601L11.7782 6.95435C11.3107 7.30145 11.1403 7.95449 11.4332 8.49819L13.194 7.54964ZM12.971 8.55966L15.9889 6.31544L14.7954 4.71057L11.7776 6.95479L12.971 8.55966ZM15.99 6.3146C15.6245 6.58722 15.0806 6.50343 14.8284 6.08587L16.5404 5.05188C16.1647 4.42982 15.3492 4.29753 14.7943 4.71141L15.99 6.3146ZM14.8333 6.09375C15.4557 7.1032 15.8024 8.22072 15.8885 9.34911L17.8827 9.19699C17.7732 7.76176 17.3315 6.33464 16.5356 5.044L14.8333 6.09375ZM15.8885 9.34924C15.8538 8.89559 16.2119 8.49232 16.6886 8.49656L16.6708 10.4965C17.3843 10.5028 17.9359 9.89296 17.8827 9.19685L15.8885 9.34924ZM16.6873 8.49655L12.947 8.46809L12.9318 10.468L16.6721 10.4965L16.6873 8.49655Z" fill="currentColor" mask="url(#path-6-inside-1_6400_111696)"/>
<path d="M13.2066 10.7227H16.3625C16.2547 11.7653 15.943 12.7446 15.4688 13.6181L12.915 11.6878C13.0468 11.3825 13.1455 11.0593 13.2066 10.7227Z" stroke="currentColor" stroke-miterlimit="10" stroke-linejoin="round"/>
<path fill-rule="evenodd" clip-rule="evenodd" d="M8.95662 7.42578C7.63725 7.42578 6.54688 8.52513 6.54688 9.90578C6.54688 10.448 6.71502 10.9468 6.99969 11.3538H10.9128C11.1924 10.9544 11.3594 10.4652 11.3654 9.93388L12.3653 9.94514C12.3557 10.7954 12.0479 11.5752 11.5403 12.1764C11.4453 12.2889 11.3055 12.3538 11.1582 12.3538H6.75398C6.60654 12.3538 6.46662 12.2887 6.37161 12.176C5.85731 11.5656 5.54688 10.7723 5.54688 9.90578C5.54688 7.99547 7.06261 6.42578 8.95662 6.42578C10.2113 6.42578 11.3024 7.11669 11.8925 8.13632L11.0271 8.63726C10.6044 7.90705 9.83252 7.42578 8.95662 7.42578Z" fill="currentColor"/>
<path d="M9.31737 11.279C9.89377 11.1209 12.714 9.4543 13.9326 8.72485C14.0911 8.62998 14.0263 8.38226 13.8431 8.38121C12.4319 8.37383 9.17636 8.37488 8.59894 8.533C7.8589 8.73645 7.4194 9.51544 7.61805 10.2734C7.8167 11.0313 8.57733 11.4814 9.31737 11.2779V11.279Z" stroke="currentColor" stroke-miterlimit="10" stroke-linejoin="round"/>
</svg>
