<svg width="17" height="16" viewBox="0 0 17 16" fill="none" xmlns="http://www.w3.org/2000/svg">
<path d="M2.85858 5.45922C2.80014 5.19845 2.54697 5.02974 2.2838 5.07618L1.27639 5.25396C1.14003 5.27803 1.01975 5.35756 0.944218 5.47362C0.868687 5.58967 0.844665 5.73185 0.877876 5.86628L2.12232 10.9033C2.17089 11.0999 2.33327 11.2478 2.53356 11.2779L3.71874 11.4556C3.98869 11.4961 4.24123 11.3126 4.28611 11.0434L4.58619 9.24287L4.96033 11.2882C4.99923 11.5008 5.17041 11.6644 5.38461 11.6936L6.68832 11.8714C6.94776 11.9068 7.19056 11.736 7.24496 11.4799L8.66719 4.78357C8.70112 4.62381 8.65489 4.45755 8.54336 4.33824C8.43183 4.21894 8.26906 4.16162 8.10739 4.18471L6.86294 4.36249C6.65058 4.39283 6.48123 4.55525 6.44206 4.76617L6.09485 6.63574L5.70064 5.03425C5.63856 4.78205 5.39371 4.61937 5.13715 4.65988L4.01123 4.83766C3.81442 4.86873 3.65485 5.01368 3.60507 5.2066L3.17526 6.8721L2.85858 5.45922Z" stroke="currentColor" stroke-linecap="round" stroke-linejoin="round"/>
<path d="M0.5 1.85282L8.98148 0.580594L8.98148 15.4194L0.5 14.1472L0.5 1.85282Z" stroke="currentColor"/>
<path d="M8.51953 1.64844H15.5011C15.7772 1.64844 16.0011 1.8723 16.0011 2.14844V13.9484C16.0011 14.2246 15.7772 14.4484 15.5011 14.4484H9.00104" stroke="currentColor"/>
<line x1="9.48047" y1="3.97656" x2="14.1027" y2="3.97656" stroke="currentColor"/>
<line x1="9.48047" y1="5.99219" x2="14.1027" y2="5.99219" stroke="currentColor"/>
<line x1="9.48047" y1="8.00781" x2="14.1027" y2="8.00781" stroke="currentColor"/>
<line x1="9.48047" y1="10.0234" x2="14.1027" y2="10.0234" stroke="currentColor"/>
<line x1="9.48047" y1="12.0352" x2="14.1027" y2="12.0352" stroke="currentColor"/>
</svg>
