<svg width="16" height="16" viewBox="0 0 16 16" fill="none" xmlns="http://www.w3.org/2000/svg">
<line x1="8" y1="12" x2="8" y2="15" stroke="currentColor"/>
<line x1="10.5" y1="15.5" x2="5.5" y2="15.5" stroke="currentColor" stroke-linecap="round"/>
<rect width="0.580409" height="16.2515" transform="matrix(0.710669 -0.703526 0.710669 0.703526 1.58203 1.81641)" fill="currentColor"/>
<path fill-rule="evenodd" clip-rule="evenodd" d="M10 8V3C10 1.89543 9.10457 1 8 1C6.89543 1 6 1.89543 6 3V4.55715L5 3.5672V3C5 1.34315 6.34315 0 8 0C9.65685 0 11 1.34315 11 3V8C11 8.44278 10.9041 8.86315 10.7319 9.24147L9.94602 8.46351C9.98132 8.31475 10 8.15956 10 8ZM6 5.37382V8C6 9.10457 6.89543 10 8 10C8.72229 10 9.35515 9.61712 9.70669 9.04325L10.4302 9.75944C9.88498 10.5111 8.99958 11 8 11C6.34315 11 5 9.65685 5 8V4.38387L6 5.37382ZM10.8156 10.141C10.1812 10.9623 9.16211 11.5 8 11.5C6.04834 11.5 4.5 9.98357 4.5 8.15385V7C4.5 6.72386 4.27614 6.5 4 6.5C3.72386 6.5 3.5 6.72386 3.5 7V8.15385C3.5 10.5725 5.53338 12.5 8 12.5C9.42399 12.5 10.7036 11.8576 11.5309 10.8492L10.8156 10.141ZM11.8723 10.3705C12.2706 9.7233 12.5 8.96628 12.5 8.15385V7C12.5 6.72386 12.2761 6.5 12 6.5C11.7239 6.5 11.5 6.72386 11.5 7V8.15385C11.5 8.68589 11.3691 9.19145 11.1354 9.64094L11.8723 10.3705Z" fill="currentColor"/>
</svg>
