<svg width="17" height="16" viewBox="0 0 17 16" fill="none" xmlns="http://www.w3.org/2000/svg">
<path d="M0.5 1.85282L8.98148 0.580594L8.98148 15.4194L0.5 14.1472L0.5 1.85282Z" stroke="currentColor"/>
<path d="M9.48047 1.64844H15.499C15.7751 1.64844 15.999 1.8723 15.999 2.14844V13.9484C15.999 14.2246 15.7751 14.4484 15.499 14.4484H9.48047" stroke="currentColor"/>
<path d="M2.51339 4.24351L2.05078 4.27821V4.74211V11.8532V12.3116L2.50747 12.3513L3.87043 12.4699L4.41374 12.5171V11.9717V9.92359H4.92115C5.34204 9.92359 6.0378 9.82134 6.64142 9.3732C7.27223 8.90488 7.73226 8.1105 7.73226 6.87545C7.73226 5.72145 7.25823 4.97072 6.62638 4.5369C6.02588 4.12461 5.32913 4.02911 4.88184 4.06588L2.51339 4.24351Z" stroke="currentColor"/>
<path d="M3.91406 8.23689V5.92578H4.68443C4.92147 5.92578 5.63258 5.92578 5.63258 6.99245C5.63258 7.84578 5.27703 8.23689 4.68443 8.23689H3.91406Z" stroke="currentColor"/>
<path d="M8.96486 10.0943L8.96102 10.658L9.5212 10.5945L9.46484 10.0977L9.52127 10.5945L9.52137 10.5945L9.52165 10.5944L9.52258 10.5943L9.52579 10.5939L9.53751 10.5926L9.58085 10.5874C9.61808 10.5829 9.67141 10.5762 9.7368 10.5676C9.86734 10.5504 10.0471 10.5252 10.2436 10.4932C10.6161 10.4326 11.1156 10.3378 11.4267 10.209C12.0161 9.96479 12.52 9.55131 12.8744 9.02081C13.2289 8.49031 13.4181 7.86661 13.4181 7.22859L13.4181 6.72859L12.9181 6.72859L10.6922 6.72859L10.6922 4.50266L10.6922 4.00266L10.1922 4.00266C9.70975 4.00266 9.37079 4.18567 9.1761 4.4647C9.0882 4.59067 9.04499 4.71529 9.02339 4.80814C9.01248 4.85508 9.00659 4.89599 9.00339 4.92804C9.00178 4.94416 9.00083 4.9583 9.00028 4.97015L8.99972 4.98629L8.99961 4.99307L8.99958 4.99556L8.99958 4.99612L8.99957 4.99757L8.99957 4.99827L8.96486 10.0943Z" stroke="currentColor"/>
<line x1="9.36328" y1="12" x2="13.7485" y2="12" stroke="currentColor"/>
<path d="M14.25 5.25C14.25 4.16194 13.3381 3.25 12.25 3.25L12.25 5.25H14.25Z" stroke="currentColor"/>
</svg>
