<svg width="17" height="16" viewBox="0 0 17 16" fill="none" xmlns="http://www.w3.org/2000/svg">
<path d="M0.5 1.85282L8.98148 0.580594L8.98148 15.4194L0.5 14.1472L0.5 1.85282Z" stroke="currentColor"/>
<path d="M9.48047 1.64844H15.499C15.7751 1.64844 15.999 1.8723 15.999 2.14844V13.9484C15.999 14.2246 15.7751 14.4484 15.499 14.4484H9.48047" stroke="currentColor"/>
<path d="M7.4395 4.54488L7.86279 3.68419L6.9148 3.83003L5.37406 4.06707L5.10592 4.10832L4.99433 4.35561L4.36257 5.75573L3.83464 4.53989L3.68012 4.18402L3.29702 4.24531L1.81554 4.48235L1.13118 4.59185L1.45092 5.20675L2.87619 7.94764L1.44403 10.9221L1.14578 11.5416L1.82697 11.6344L3.13068 11.8122L3.51438 11.8645L3.66101 11.5061L4.27399 10.0077L4.99001 11.6904L5.09898 11.9465L5.37406 11.9888L6.9148 12.2258L7.84151 12.3684L7.44356 11.5194L5.76769 7.94423L7.4395 4.54488Z" stroke="currentColor"/>
<rect x="12.4454" y="3.55477" width="2.01481" height="0.711111" stroke="currentColor" stroke-width="0.711111"/>
<path d="M9.5 3.69922H11V4.12144H9.5V3.69922Z" stroke="currentColor"/>
<rect x="12.4454" y="5.5704" width="2.01481" height="0.711111" stroke="currentColor" stroke-width="0.711111"/>
<path d="M9.27346 5.71484H10.9994V6.13707H9.27346V5.71484Z" stroke="currentColor"/>
<rect x="12.4454" y="7.58602" width="2.01481" height="0.711111" stroke="currentColor" stroke-width="0.711111"/>
<path d="M9.5 7.73047H11V8.15269H9.5V7.73047Z" stroke="currentColor"/>
<rect x="12.4454" y="9.60165" width="2.01481" height="0.711111" stroke="currentColor" stroke-width="0.711111"/>
<path d="M9.5 9.74609H11V10.1683H9.5V9.74609Z" stroke="currentColor"/>
<rect x="12.4454" y="11.6134" width="2.01481" height="0.711111" stroke="currentColor" stroke-width="0.711111"/>
<path d="M9.27346 11.7578H10.9994V12.18H9.27346V11.7578Z" stroke="currentColor"/>
</svg>
