<svg width="16" height="16" viewBox="0 0 16 16" fill="none" xmlns="http://www.w3.org/2000/svg">
<path d="M10.5 6C10.5 5.72386 10.2761 5.5 10 5.5L5.5 5.50002C5.22386 5.50002 5 5.72388 5 6.00002C5 6.27616 5.22386 6.50002 5.5 6.50002L9.5 6.5L9.50002 10.5C9.50002 10.7761 9.72388 11 10 11C10.2762 11 10.5 10.7761 10.5 10.5L10.5 6ZM9.64645 5.64645L1.6465 13.6464L2.35361 14.3536L10.3536 6.35355L9.64645 5.64645Z" fill="currentColor"/>
<path d="M8.85667 12.2852L14 12.2852L14 1.99849L3.71333 1.99849L3.71333 7.14182" stroke="currentColor"/>
</svg>
