<svg width="16" height="16" viewBox="0 0 16 16" fill="none" xmlns="http://www.w3.org/2000/svg">
<path d="M13.3121 11.4593C13.3121 9.67551 10.2896 5.58594 8.14868 5.58594C6.00775 5.58594 2.69141 9.15344 2.69141 11.4593C2.69141 13.6201 4.01691 15.6092 6.54448 14.8254C6.57752 14.8151 6.61234 14.8112 6.64671 14.8151C6.91354 14.8455 8.1505 14.9833 8.65243 14.9833C9.57827 14.9833 10.336 14.7801 10.5826 14.7056C10.6377 14.689 10.6966 14.6915 10.752 14.7073C11.6567 14.9657 13.3121 13.9886 13.3121 11.4593Z" stroke="currentColor"/>
<path d="M6.46394 6.07018C6.17355 5.66788 6.08934 4.86328 8.07557 4.86328C10.0618 4.86328 10.0647 5.66788 9.81787 6.07018" stroke="currentColor"/>
<path d="M6.83259 5.10345C5.32114 4.55116 4.66555 3.08954 6.29082 3.13331M6.29082 3.13331L7.33272 5.0159M6.29082 3.13331C5.95902 2.55237 6.69842 2.00139 7.43604 2.12365C7.54786 2.14219 7.66484 2.10047 7.73031 2.00795C8.07057 1.52712 8.77919 0.844164 9.58311 1.03184C10.3327 1.20684 10.4854 1.72472 10.3584 2.34527M8.91632 5.10345C9.26384 4.55582 10.1583 3.32309 10.3584 2.34527M10.3584 2.34527C10.9613 2.40364 12.0253 2.73929 11.4585 3.61491C10.8917 4.49053 9.63872 4.97211 9.08306 5.10345" stroke="currentColor"/>
</svg>
