<svg width="16" height="18" viewBox="0 0 16 18" fill="none" xmlns="http://www.w3.org/2000/svg">
<path d="M4 9L4 13C4 15.2091 5.79086 17 8 17C10.2091 17 12 15.2091 12 13L12 9C12 6.79086 10.2091 5 8 5C5.79086 5 4 6.79086 4 9Z" stroke="currentColor"/>
<path d="M9 8L9 10C9 10.5523 8.55228 11 8 11C7.44772 11 7 10.5523 7 10L7 8C7 7.44772 7.44772 7 8 7C8.55228 7 9 7.44772 9 8Z" stroke="currentColor"/>
<path d="M8.00083 5H8.50083V4.85661L8.42484 4.73501L8.00083 5ZM7.50083 6.5C7.50083 6.77614 7.72469 7 8.00083 7C8.27698 7 8.50083 6.77614 8.50083 6.5H7.50083ZM8.00086 2.5L8.18656 2.96424L8.18656 2.96424L8.00086 2.5ZM8.25809 0.0712521C8.0213 -0.0708207 7.71417 0.00596363 7.5721 0.242755C7.43003 0.479546 7.50681 0.786675 7.7436 0.928748L8.25809 0.0712521ZM7.50083 5V6.5H8.50083V5H7.50083ZM8.00083 5C8.42484 4.73501 8.42491 4.73512 8.42497 4.73522C8.42498 4.73524 8.42504 4.73534 8.42507 4.73539C8.42513 4.73548 8.42517 4.73555 8.4252 4.73558C8.42524 4.73566 8.42521 4.73561 8.42512 4.73545C8.42492 4.73513 8.42443 4.73435 8.42368 4.73312C8.42217 4.73065 8.41957 4.72639 8.41601 4.72044C8.40887 4.70853 8.39789 4.68992 8.38393 4.66544C8.35595 4.61636 8.31641 4.54437 8.27228 4.45609C8.18268 4.27688 8.08029 4.04281 8.01387 3.80369C7.94506 3.55594 7.92916 3.35286 7.96109 3.21238C7.98531 3.1058 8.03506 3.02484 8.18656 2.96424L7.81516 2.03576C7.34168 2.22516 7.07893 2.58171 6.98596 2.99075C6.9007 3.3659 6.96292 3.75657 7.05035 4.07131C7.14017 4.3947 7.27214 4.69188 7.37784 4.90329C7.43136 5.01032 7.47971 5.09849 7.51521 5.16074C7.53298 5.19192 7.54763 5.21676 7.55819 5.2344C7.56348 5.24322 7.56775 5.25025 7.57089 5.25538C7.57247 5.25795 7.57376 5.26004 7.57475 5.26164C7.57525 5.26245 7.57567 5.26313 7.57602 5.26369C7.57619 5.26397 7.57634 5.26421 7.57648 5.26443C7.57655 5.26454 7.57663 5.26468 7.57667 5.26473C7.57675 5.26487 7.57683 5.26499 8.00083 5ZM8.18656 2.96424C8.73338 2.7455 9.13552 2.45179 9.30614 2.0423C9.48699 1.60824 9.34459 1.20658 9.17485 0.934992C9.00624 0.665225 8.7685 0.448802 8.59444 0.309561C8.50395 0.237166 8.42259 0.179298 8.36316 0.139068C8.33331 0.118865 8.30864 0.102872 8.29069 0.0914801C8.2817 0.0857784 8.27437 0.0812113 8.26888 0.0778279C8.26614 0.0761356 8.26385 0.0747376 8.26204 0.0736401C8.26114 0.0730913 8.26036 0.0726174 8.2597 0.0722192C8.25937 0.0720201 8.25907 0.0718398 8.2588 0.0716786C8.25867 0.0715981 8.25849 0.0714912 8.25842 0.0714511C8.25826 0.0713493 8.25809 0.0712521 8.00085 0.5C7.7436 0.928748 7.74346 0.92866 7.74332 0.928576C7.74328 0.928555 7.74315 0.928475 7.74308 0.928431C7.74293 0.928343 7.74281 0.928272 7.74272 0.928219C7.74255 0.928112 7.74248 0.928074 7.74254 0.928105C7.74264 0.928168 7.74319 0.928503 7.74417 0.929106C7.74612 0.930312 7.74978 0.932581 7.75495 0.935863C7.76532 0.94244 7.78166 0.953009 7.8026 0.96718C7.84473 0.9957 7.904 1.03783 7.96975 1.09043C8.1082 1.20119 8.24545 1.33476 8.32685 1.46499C8.4071 1.5934 8.3897 1.64174 8.38306 1.65769C8.36618 1.6982 8.26833 1.85449 7.81516 2.03576L8.18656 2.96424Z" fill="currentColor"/>
<path d="M4 9.5H6.5" stroke="currentColor"/>
<path d="M9 9.5H11.5" stroke="currentColor"/>
</svg>
