<svg width="16" height="16" viewBox="0 0 16 16" fill="none" xmlns="http://www.w3.org/2000/svg">
<path d="M3.44256 13.5011C3.86071 13.5011 4.26399 13.4175 4.58124 13.2588C4.86858 13.1152 5.23667 12.8242 5.23667 12.3541C5.23667 11.884 4.86858 11.593 4.58124 11.4493C4.26399 11.2907 3.86071 11.207 3.44256 11.207C3.0244 11.207 2.62112 11.2907 2.30387 11.4493C2.01653 11.593 1.64844 11.884 1.64844 12.3541C1.64844 12.8242 2.01653 13.1152 2.30387 13.2588C2.62112 13.4175 3.0244 13.5011 3.44256 13.5011Z" stroke="currentColor"/>
<path d="M11.216 12.3957C11.6341 12.3957 12.0374 12.312 12.3547 12.1534C12.642 12.0097 13.0101 11.7187 13.0101 11.2486C13.0101 10.7785 12.642 10.4875 12.3547 10.3439C12.0374 10.1852 11.6341 10.1016 11.216 10.1016C10.7978 10.1016 10.3946 10.1852 10.0773 10.3439C9.78996 10.4875 9.42188 10.7785 9.42188 11.2486C9.42188 11.7187 9.78996 12.0097 10.0773 12.1534C10.3946 12.312 10.7978 12.3957 11.216 12.3957Z" stroke="currentColor"/>
<path d="M5.23438 12.5L5.23437 5.30899C5.23437 4.87856 5.5098 4.49642 5.91815 4.36031L11.6828 2.43875C12.3303 2.2229 12.999 2.70487 12.999 3.38743L12.999 11.5" stroke="currentColor"/>
<path d="M5.23438 7.17808L12.9991 4.58984" stroke="currentColor"/>
</svg>
