<svg width="17" height="16" viewBox="0 0 17 16" fill="none" xmlns="http://www.w3.org/2000/svg">
<path d="M4.35355 1.64645C4.15829 1.45118 3.84171 1.45118 3.64645 1.64645L0.464466 4.82843C0.269204 5.02369 0.269204 5.34027 0.464466 5.53553C0.659728 5.7308 0.97631 5.7308 1.17157 5.53553L4 2.70711L6.82843 5.53553C7.02369 5.7308 7.34027 5.7308 7.53553 5.53553C7.7308 5.34027 7.7308 5.02369 7.53553 4.82843L4.35355 1.64645ZM4.5 14L4.5 2L3.5 2L3.5 14L4.5 14Z" fill="currentColor"/>
<path d="M12.6464 14.3536C12.8417 14.5488 13.1583 14.5488 13.3536 14.3536L16.5355 11.1716C16.7308 10.9763 16.7308 10.6597 16.5355 10.4645C16.3403 10.2692 16.0237 10.2692 15.8284 10.4645L13 13.2929L10.1716 10.4645C9.97631 10.2692 9.65973 10.2692 9.46447 10.4645C9.2692 10.6597 9.2692 10.9763 9.46447 11.1716L12.6464 14.3536ZM12.5 2L12.5 14L13.5 14L13.5 2L12.5 2Z" fill="currentColor"/>
</svg>
