<svg width="16" height="16" viewBox="0 0 16 16" fill="none" xmlns="http://www.w3.org/2000/svg">
<path d="M1.84375 13.6562C1.84375 13.9324 2.06761 14.1562 2.34375 14.1562H6.84375C7.11989 14.1562 7.34375 13.9324 7.34375 13.6562C7.34375 13.3801 7.11989 13.1563 6.84375 13.1563H2.84375V9.15625C2.84375 8.88011 2.61989 8.65625 2.34375 8.65625C2.06761 8.65625 1.84375 8.88011 1.84375 9.15625V13.6562ZM14.1575 2.34254C14.1575 2.0664 13.9336 1.84254 13.6575 1.84254L9.15746 1.84254C8.88132 1.84254 8.65746 2.0664 8.65746 2.34254C8.65746 2.61868 8.88132 2.84254 9.15746 2.84254H13.1575V6.84254C13.1575 7.11868 13.3813 7.34254 13.6575 7.34254C13.9336 7.34254 14.1575 7.11868 14.1575 6.84254L14.1575 2.34254ZM2.6973 14.0098L14.011 2.6961L13.3039 1.98899L1.9902 13.3027L2.6973 14.0098Z" fill="currentColor"/>
</svg>
