<svg width="17" height="16" viewBox="0 0 17 16" fill="none" xmlns="http://www.w3.org/2000/svg">
<path d="M10.224 14.1328C10.0375 14.5209 9.64073 14.7888 9.18139 14.7888C8.72205 14.7888 8.32528 14.5209 8.13882 14.1328H10.224Z" stroke="currentColor"/>
<path d="M14.1393 12.5979H4.04948C3.95255 12.5979 3.89472 12.4899 3.94847 12.4092L5.26516 10.4334C5.38789 10.2493 5.45338 10.0329 5.45338 9.81159V7.31145C5.45338 4.89708 6.89819 3.02734 9.13079 3.02734C11.3508 3.02734 12.776 5.01825 12.776 7.31145V9.81609C12.776 10.0323 12.8386 10.244 12.9561 10.4255L13.3758 10.1538L12.9561 10.4255L14.2412 12.4106C14.2935 12.4914 14.2355 12.5979 14.1393 12.5979Z" stroke="currentColor"/>
<path d="M9.72303 1.35272C9.72303 1.52787 9.72302 2.26398 9.72302 2.26398H8.44748C8.44748 2.26398 8.44727 1.70502 8.44727 1.35272C8.44727 1.00043 8.73285 0.714844 9.08515 0.714844C9.43744 0.714844 9.72303 1.00043 9.72303 1.35272Z" fill="currentColor"/>
</svg>
