<svg width="17" height="16" viewBox="0 0 17 16" fill="none" xmlns="http://www.w3.org/2000/svg">
<path d="M9.972 14.1289C9.78554 14.517 9.38877 14.7849 8.92943 14.7849C8.47009 14.7849 8.07333 14.517 7.88687 14.1289H9.972Z" stroke="currentColor"/>
<path d="M9.47108 1.35272C9.47108 1.52787 9.47107 2.26398 9.47107 2.26398H8.19552C8.19552 2.26398 8.19531 1.70502 8.19531 1.35272C8.19531 1.00043 8.4809 0.714844 8.83319 0.714844C9.18549 0.714844 9.47108 1.00043 9.47108 1.35272Z" fill="currentColor"/>
<rect width="0.676198" height="18.9336" transform="matrix(0.710669 -0.703526 0.710669 0.703526 2.21875 1.95312)" fill="currentColor"/>
<path fill-rule="evenodd" clip-rule="evenodd" d="M5.55425 4.29933C5.00128 5.12791 4.70113 6.18082 4.70113 7.31145V9.81159C4.70113 9.93422 4.66484 10.0541 4.59683 10.1562L3.28015 12.132C3.00496 12.5449 3.30099 13.0979 3.79723 13.0979H13.887C14.0467 13.0979 14.1858 13.0406 14.2918 12.949L12.7606 11.4332L13.1909 12.0979H4.50453L5.42898 10.7107C5.60644 10.4444 5.70113 10.1316 5.70113 9.81159V7.31145C5.70113 6.41969 5.90965 5.63639 6.27947 5.01725L5.55425 4.29933ZM12.0238 9.7524V7.31145C12.0238 5.18545 10.7248 3.52734 8.87854 3.52734C7.99686 3.52734 7.2407 3.87191 6.68748 4.46972L5.97547 3.76486C6.68691 2.99921 7.67377 2.52734 8.87854 2.52734C11.4723 2.52734 13.0238 4.85105 13.0238 7.31145V9.81609C13.0238 9.93591 13.0584 10.0532 13.1236 10.1538L14.3625 12.0676L12.0238 9.7524Z" fill="currentColor"/>
</svg>
