<svg width="16" height="16" viewBox="0 0 16 16" fill="none" xmlns="http://www.w3.org/2000/svg">
<path d="M2.34375 1.84375C2.06761 1.84375 1.84375 2.06761 1.84375 2.34375V6.84375C1.84375 7.11989 2.06761 7.34375 2.34375 7.34375C2.61989 7.34375 2.84375 7.11989 2.84375 6.84375V2.84375H6.84375C7.11989 2.84375 7.34375 2.61989 7.34375 2.34375C7.34375 2.06761 7.11989 1.84375 6.84375 1.84375H2.34375ZM13.6575 14.1575C13.9336 14.1575 14.1575 13.9336 14.1575 13.6575L14.1575 9.15746C14.1575 8.88132 13.9336 8.65746 13.6575 8.65746C13.3813 8.65746 13.1575 8.88132 13.1575 9.15746V13.1575H9.15746C8.88132 13.1575 8.65746 13.3813 8.65746 13.6575C8.65746 13.9336 8.88132 14.1575 9.15746 14.1575L13.6575 14.1575ZM1.9902 2.6973L13.3039 14.011L14.011 13.3039L2.6973 1.9902L1.9902 2.6973Z" fill="currentColor"/>
</svg>
