<svg width="20" height="16" viewBox="0 0 20 16" fill="none" xmlns="http://www.w3.org/2000/svg">
<rect x="1.27194" y="7.09672" width="14.1676" height="6" rx="0.5" transform="rotate(-4 1.27194 7.09672)" stroke="currentColor"/>
<circle cx="8.12741" cy="3.61234" r="1" transform="rotate(-4 8.12741 3.61234)" stroke="currentColor"/>
<path d="M7.12966 3.67828L2.84525 6.91848M13.8185 6.15116L9.12479 3.53877" stroke="currentColor"/>
<path d="M14.9266 4.54008L15.0152 3.34348M16.4241 5.12454L17.8716 3.42567M17.2327 6.3837L19.0545 6.0057" stroke="currentColor" stroke-linecap="round"/>
<path d="M2.75427 10.1922C2.74247 10.0233 2.75535 9.84358 2.79293 9.65299C2.84164 9.39767 2.9271 9.17306 3.04929 8.97917C3.17277 8.78519 3.33406 8.62772 3.53314 8.50677C3.73212 8.38452 3.96346 8.31417 4.22714 8.29573C4.58044 8.27103 4.87323 8.36085 5.10549 8.5652C5.33906 8.76945 5.46852 9.05278 5.49386 9.41518C5.51493 9.71652 5.46453 10.0131 5.34266 10.3048C5.22079 10.5966 5.04372 10.827 4.81145 10.9959C4.57918 11.1649 4.30977 11.2601 4.00323 11.2815C3.73695 11.3001 3.50931 11.2554 3.32032 11.1472C3.13132 11.039 2.99294 10.8986 2.90515 10.7259C2.81728 10.5519 2.76699 10.374 2.75427 10.1922ZM3.33407 10.1399C3.34779 10.336 3.41902 10.4961 3.54779 10.6203C3.67655 10.7444 3.83835 10.7997 4.03319 10.786C4.19166 10.7749 4.34 10.7124 4.47821 10.5983C4.61763 10.4828 4.72735 10.3159 4.80736 10.0975C4.88859 9.87779 4.92216 9.66726 4.90808 9.46593C4.89237 9.24121 4.81966 9.06944 4.68996 8.95059C4.56017 8.83044 4.40175 8.77691 4.21471 8.78999C3.92765 8.81006 3.7032 8.9602 3.54136 9.2404C3.38082 9.52051 3.31173 9.82033 3.33407 10.1399ZM6.33967 11.0672L5.75127 11.1084L6.14968 8.21024L7.31091 8.12904C7.51744 8.1146 7.68218 8.12788 7.80513 8.16888C7.92929 8.20849 8.03039 8.28235 8.10843 8.39045C8.18639 8.49725 8.23081 8.62859 8.24171 8.78446C8.25179 8.92864 8.23368 9.07087 8.18736 9.21116C8.14104 9.35146 8.07983 9.46538 8.00372 9.55293C7.92891 9.64039 7.84624 9.70883 7.75572 9.75823C7.6651 9.80634 7.54134 9.84697 7.38441 9.88013C7.2931 9.89957 7.1208 9.91815 6.86751 9.93586L6.49147 9.96215L6.33967 11.0672ZM6.55579 9.48189L6.73698 9.46922C7.04742 9.44751 7.25324 9.41354 7.35443 9.3673C7.45561 9.32107 7.53309 9.253 7.58684 9.16309C7.6406 9.07319 7.66389 8.97693 7.65671 8.87431C7.6519 8.80547 7.63236 8.75006 7.5981 8.70807C7.56513 8.666 7.52004 8.63717 7.46283 8.6216C7.40682 8.60463 7.28335 8.60282 7.09241 8.61617L6.67156 8.6456L6.55579 9.48189ZM8.41469 10.9221L8.81115 8.02413L10.929 7.87604L10.863 8.36034L9.33357 8.46729L9.24256 9.12563L10.7214 9.02222L10.6554 9.50652L9.17657 9.60993L9.05154 10.3979L10.7135 10.2817L10.6456 10.7661L8.41469 10.9221ZM13.3596 10.5763L12.8122 10.6146L11.9064 8.74944L11.6392 10.6966L11.0917 10.7349L11.4882 7.83694L12.0377 7.79852L12.9448 9.65577L13.2106 7.7165L13.7561 7.67835L13.3596 10.5763Z" fill="currentColor"/>
</svg>
