<svg width="16" height="16" viewBox="0 0 16 16" fill="none" xmlns="http://www.w3.org/2000/svg">
<path d="M13.9625 0.588099L0.759944 8.90083C0.428346 9.10961 0.454874 9.60136 0.807008 9.77326L11.8254 15.1521C12.1273 15.2994 12.4856 15.1132 12.5385 14.7815L14.7227 1.08998C14.7904 0.665468 14.3263 0.359052 13.9625 0.588099Z" stroke="currentColor"/>
<path d="M4.96484 12.3434V14.573C4.96484 15.0456 5.56002 15.2544 5.85528 14.8853L6.9128 13.5634C7.06021 13.3792 7.04549 13.1135 6.87862 12.9467C6.72698 12.7951 6.69927 12.5591 6.81166 12.3765L11.0338 5.51562L5.5165 11.5846L5.11127 11.9899C5.01751 12.0836 4.96484 12.2108 4.96484 12.3434Z" stroke="currentColor" stroke-linejoin="round"/>
</svg>
