<svg width="16" height="16" viewBox="0 0 16 16" fill="none" xmlns="http://www.w3.org/2000/svg">
<path d="M9.5 2.53125H11.125C11.5737 2.53125 11.9375 2.89502 11.9375 3.34375V4.5M5.4375 2.53125H3.8125C3.36377 2.53125 3 2.89502 3 3.34375V12.6875C3 13.1362 3.36377 13.5 3.8125 13.5H4.5" stroke="currentColor"/>
<path d="M8.6875 1.71875C8.6875 1.04565 8.14185 0.5 7.46875 0.5C6.79565 0.5 6.25 1.04565 6.25 1.71875" stroke="currentColor"/>
<path d="M5.2551 3.65625L5.59051 2.21875H9.34699L9.6824 3.65625H5.2551ZM9.33008 2.1463L9.33014 2.14655C9.33012 2.14647 9.3301 2.14639 9.33008 2.1463L9.42138 2.125L9.33008 2.1463Z" stroke="currentColor"/>
<path d="M6 15C6 15.2761 6.22386 15.5 6.5 15.5H13C13.2761 15.5 13.5 15.2761 13.5 15V8.27253C13.5 8.15272 13.457 8.03689 13.3788 7.94613L11.4204 5.6736C11.3254 5.56338 11.1872 5.5 11.0417 5.5H6.5C6.22386 5.5 6 5.72386 6 6V15Z" stroke="currentColor"/>
<path d="M13.5 8H10.5V5" stroke="currentColor" stroke-linejoin="round"/>
</svg>
