<svg width="16" height="16" viewBox="0 0 16 16" fill="none" xmlns="http://www.w3.org/2000/svg">
<path d="M3.5 14C3.5 14.2761 3.72386 14.5 4 14.5H12C12.2761 14.5 12.5 14.2761 12.5 14V5.13767C12.5 4.99593 12.4398 4.86084 12.3345 4.76602L8.84818 1.62835C8.75637 1.54572 8.63722 1.5 8.5137 1.5H4C3.72386 1.5 3.5 1.72386 3.5 2V14Z" stroke="currentColor"/>
<path d="M12 5H8V1" stroke="currentColor" stroke-linejoin="round"/>
<path d="M7.55838 7.0578C8.39936 6.61476 8.19474 8.80134 7.07374 10.7878C5.84791 12.9601 5.37413 13.278 5.06394 12.8172C4.67909 12.2456 6.08373 11.2066 7.87196 10.9022C9.38288 10.6449 11.3357 10.7878 10.9508 11.5882C10.5061 12.513 8.90293 10.6645 8.49913 10.2448C7.70165 9.41587 6.7174 7.50083 7.55838 7.0578Z" stroke="currentColor" stroke-width="0.5"/>
</svg>
