<svg width="16" height="16" viewBox="0 0 16 16" fill="none" xmlns="http://www.w3.org/2000/svg">
<path d="M5.43034 7.22532L5.43034 8.90906C5.43033 9.51527 4.92531 10.0195 4.31819 10.0195C3.74347 10.0195 3.28905 9.5658 3.28905 8.99195L3.28905 7.3082C3.28905 6.70199 3.79408 6.19772 4.40121 6.19772C4.97593 6.19772 5.43035 6.65146 5.43034 7.22532Z" stroke="currentColor"/>
<path d="M7.55144 7.22532L7.55143 8.90906C7.55143 9.51527 7.0464 10.0195 6.43928 10.0195C5.86456 10.0195 5.41015 9.5658 5.41015 8.99195L5.41015 7.3082C5.41015 6.70199 5.91518 6.19772 6.5223 6.19772C7.09702 6.19772 7.55144 6.65146 7.55144 7.22532Z" stroke="currentColor"/>
<path d="M3.28807 9.08799L3.78836 9.07083L3.78836 9.07941L3.78807 9.08799H3.28807ZM11.4676 12.6374L11.9174 12.8406L11.9058 12.8647L11.8918 12.8875L11.4676 12.6374ZM10.4871 2.55349L10.9804 2.61987L10.98 2.62191L10.4871 2.55349ZM9.65513 7.37175L10.1481 7.44017C10.1063 7.68227 9.8962 7.86465 9.65151 7.87127C9.40682 7.8779 9.19932 7.70682 9.161 7.46689L9.65513 7.37175ZM8.76447 1.79362L9.25209 1.6652L9.25592 1.68171L9.25859 1.69848L8.76447 1.79362ZM6.84262 2.04363L6.348 2.13642L6.34659 2.12575L6.84262 2.04363ZM8.24337 7.81023C8.28532 8.08141 8.09792 8.34278 7.82482 8.39402C7.55172 8.44525 7.29632 8.26695 7.25438 7.99577L8.24337 7.81023ZM12.3739 2.69987L12.8673 2.76537L12.8671 2.76639L12.3739 2.69987ZM10.3313 10.3153C10.5741 10.4385 10.6641 10.7386 10.5323 10.9855C10.4005 11.2325 10.0968 11.3327 9.85395 11.2095L10.3313 10.3153ZM8.03009 9.71548L7.79141 10.1626L7.77918 10.1564L7.76733 10.1495L8.03009 9.71548ZM8.97066 8.27336L8.78502 8.74348L8.78502 8.74348L8.97066 8.27336ZM11.789 9.15451C11.7428 9.42803 11.4846 9.61998 11.2121 9.58324C10.9397 9.54651 10.7563 9.29499 10.8025 9.02147L11.789 9.15451ZM8.99448 8.28252L9.19531 7.81823L9.19533 7.81824L8.99448 8.28252ZM10.9604 9.08799L11.1693 8.62704L11.1779 8.63066L11.1862 8.6346L10.9604 9.08799ZM3.78807 9.08799C3.77896 9.35307 3.84467 9.83501 4.01133 10.4299C4.17529 11.0152 4.42717 11.6747 4.76505 12.2905C5.45902 13.5553 6.42331 14.4814 7.60656 14.4814L7.5722 15.4808C5.83042 15.4808 4.62079 14.137 3.88373 12.7936C3.50609 12.1054 3.22818 11.3762 3.04705 10.7296C2.8686 10.0926 2.77392 9.4996 2.78807 9.08799H3.78807ZM7.60656 14.4814C8.47382 14.4814 9.01302 14.4103 9.48144 14.1511C9.95254 13.8903 10.4236 13.3981 11.0434 12.3872L11.8918 12.8875C11.2413 13.9485 10.6535 14.6282 9.94314 15.0214C9.23013 15.416 8.46537 15.4808 7.5722 15.4808L7.60656 14.4814ZM10.98 2.62191L10.1481 7.44017L9.16219 7.30334L9.99416 2.48508L10.98 2.62191ZM3.78836 7.35459L3.78836 9.07083L2.78777 9.10514L2.78777 7.38891L3.78836 7.35459ZM9.161 7.46689L8.27034 1.88875L9.25859 1.69848L10.1493 7.27662L9.161 7.46689ZM7.33711 1.95086L8.24337 7.81023L7.25438 7.99577L6.34812 2.13639L7.33711 1.95086ZM8.27684 1.92203C8.22984 1.71916 8.1375 1.62403 8.05593 1.57645C7.96624 1.52412 7.84681 1.50513 7.71897 1.53004C7.44047 1.58433 7.31386 1.77421 7.33864 1.9615L6.34659 2.12575C6.23076 1.25051 6.91665 0.674762 7.56002 0.549359C7.89311 0.484434 8.26196 0.522077 8.58241 0.709015C8.91099 0.900695 9.15067 1.22744 9.25209 1.6652L8.27684 1.92203ZM11.8804 2.63436C11.9081 2.46847 11.8642 2.37703 11.8148 2.32118C11.7564 2.25496 11.6544 2.20101 11.524 2.1889C11.3945 2.17686 11.2697 2.20948 11.1777 2.27353C11.0949 2.3312 11.012 2.43202 10.9804 2.61987L9.99381 2.48711C10.0696 2.03721 10.3017 1.68509 10.6246 1.4602C10.9382 1.24169 11.3098 1.16209 11.6505 1.19375C11.9903 1.22532 12.3324 1.37096 12.5751 1.64574C12.8269 1.93089 12.9412 2.32188 12.8673 2.76537L11.8804 2.63436ZM9.85395 11.2095L7.79141 10.1626L8.26877 9.26838L10.3313 10.3153L9.85395 11.2095ZM7.76733 10.1495C7.11666 9.77091 6.9416 9.00997 7.23066 8.4185C7.3775 8.11805 7.64079 7.87007 7.99499 7.75053C8.34588 7.6321 8.74375 7.65282 9.1563 7.80324L8.78502 8.74348C8.53051 8.65069 8.3702 8.66777 8.2858 8.69626C8.20471 8.72363 8.15562 8.77312 8.12699 8.8317C8.06512 8.95829 8.08683 9.16162 8.29286 9.28149L7.76733 10.1495ZM10.8025 9.02147L11.8806 2.63335L12.8671 2.76639L11.789 9.15451L10.8025 9.02147ZM9.19533 7.81824C9.32532 7.87066 10.5819 8.37769 11.1693 8.62704L10.7515 9.54893C10.174 9.30379 8.92694 8.80057 8.79363 8.74681L9.19533 7.81824ZM11.0178 12.4341C11.2324 11.987 11.403 11.3331 11.3791 10.7432C11.3553 10.1559 11.1509 9.73731 10.7346 9.54137L11.1862 8.6346C12.0529 9.04251 12.3473 9.88772 12.3789 10.6686C12.4104 11.4471 12.1932 12.2659 11.9174 12.8406L11.0178 12.4341ZM9.1563 7.80324C9.17032 7.80835 9.1831 7.81331 9.19531 7.81823L8.79365 8.74682C8.78981 8.74527 8.78727 8.7443 8.78502 8.74348L9.1563 7.80324Z" fill="currentColor"/>
</svg>
