<svg width="16" height="17" viewBox="0 0 16 17" fill="none" xmlns="http://www.w3.org/2000/svg">
<path d="M6.6337 3.06583L6.70086 1.40032" stroke="currentColor" stroke-linecap="round"/>
<path d="M8.12969 4.06922L9.6594 2.62684" stroke="currentColor" stroke-linecap="round"/>
<path d="M9.35547 5.72656L10.9252 5.6873" stroke="currentColor" stroke-linecap="round"/>
<path d="M4.75089 3.84708L3.52571 2.71687" stroke="currentColor" stroke-linecap="round"/>
<path d="M4.40313 5.61219L2.30154 5.67394" stroke="currentColor" stroke-linecap="round"/>
<path d="M4.70703 7.65234L3.56932 8.73453" stroke="currentColor" stroke-linecap="round"/>
<path d="M6.36264 5.62876L6.29829 13.8864C6.29655 14.1098 6.5664 14.2231 6.7247 14.0655L7.97345 12.8218C8.09954 12.6962 8.31274 12.7388 8.38084 12.9032L9.70863 16.1088C9.76147 16.2364 9.90771 16.2969 10.0353 16.2441L11.6973 15.5557C11.8248 15.5028 11.8854 15.3566 11.8326 15.229L10.5048 12.0235C10.4367 11.8591 10.5573 11.6782 10.7352 11.6778L12.4977 11.6742C12.7211 11.6738 12.8317 11.4028 12.6725 11.2461L6.78803 5.45256C6.63065 5.29761 6.36436 5.40791 6.36264 5.62876Z" stroke="currentColor"/>
</svg>
