<svg width="16" height="16" viewBox="0 0 16 16" fill="none" xmlns="http://www.w3.org/2000/svg">
<path d="M3.26186 12.4598L2.82015 12.699L3.06147 13.1396L4.01948 14.8886L4.24372 15.298L4.66754 15.1024C5.19505 14.859 5.54438 14.7056 5.72774 14.6349C5.98795 14.5456 6.21389 14.5068 6.40918 14.5068C6.61921 14.5068 6.82272 14.5264 7.02024 14.5651C7.14363 14.5964 7.30595 14.6442 7.50991 14.7104L8.00888 14.8767L8.00887 14.8767L8.01399 14.8784C8.35319 14.9874 8.67183 15.0764 8.96937 15.1446C9.28298 15.2165 9.5901 15.2539 9.88965 15.2539C10.4389 15.2539 11.0008 15.1513 11.573 14.9542C12.1197 14.7659 12.5737 14.5622 12.916 14.3363L13.2466 14.1181L13.1099 13.7464L12.3892 11.7864L12.1848 11.2304L11.671 11.5254C11.3635 11.7019 11.1202 11.8253 10.9366 11.9017L10.9355 11.9022C10.6076 12.0397 10.3596 12.0918 10.1797 12.0918C10.1299 12.0918 10.0601 12.0881 9.96703 12.0786C9.89765 12.066 9.79736 12.0398 9.66104 11.9944L9.66106 11.9944L9.65405 11.9921L9.2937 11.8779L9.28604 11.8754L9.27831 11.8733C9.03564 11.8048 8.80202 11.7509 8.57781 11.7125C8.34911 11.6722 8.11534 11.6523 7.87695 11.6523C7.72778 11.6523 7.57784 11.6603 7.42721 11.676C7.4598 11.6351 7.48975 11.5958 7.51702 11.5583L7.51705 11.5583L7.52051 11.5534C7.91714 10.9926 8.12207 10.3711 8.12207 9.7002C8.12207 9.53179 8.11253 9.36353 8.09351 9.19549C8.0929 9.18771 8.09229 9.17983 8.09165 9.17188H9.6875H10.1875V8.67188V7.6875V7.1875H9.6875H7.48264C7.17361 6.52653 6.97636 6.0831 6.88478 5.84722C6.79145 5.60116 6.75098 5.38372 6.75098 5.19141C6.75098 4.88636 6.85558 4.62104 7.08856 4.37512L7.08858 4.37514L7.09153 4.37196C7.29683 4.15145 7.5852 4.02148 8.01758 4.02148C8.63123 4.02148 8.96806 4.21815 9.16366 4.52851C9.19066 4.57416 9.21479 4.61377 9.23551 4.64769L9.24132 4.6572C9.26077 4.68902 9.2756 4.7133 9.28886 4.7358C9.31652 4.78275 9.32716 4.80516 9.33447 4.82436C9.35125 4.86845 9.37132 4.94812 9.40097 5.24166L9.4464 5.69141H9.89844H12.2803H12.798L12.78 5.17397C12.7526 4.38807 12.6467 3.78347 12.4034 3.27821C12.1556 2.76359 11.7888 2.40056 11.3331 2.05864C10.3951 1.34898 9.29106 1 8.04395 1C6.57675 1 5.37038 1.38052 4.49976 2.21033L4.49976 2.21033L4.49834 2.21169C3.67146 3.00601 3.22852 3.93964 3.22852 4.99805C3.22852 5.50782 3.29958 5.99306 3.4455 6.45072L3.4455 6.45072L3.44615 6.45274C3.52028 6.68185 3.61459 6.92691 3.7282 7.1875H3.51758H3.01758V7.6875V8.67188V9.17188H3.51758H4.73586C4.79303 9.33047 4.83549 9.4604 4.86437 9.56311L4.86494 9.56509C4.94979 9.86205 4.98633 10.1075 4.98633 10.3066C4.98633 10.6295 4.83788 11.014 4.43606 11.4684C4.00917 11.945 3.61682 12.2675 3.26186 12.4598Z" stroke="currentColor"/>
</svg>
