<svg width="16" height="16" viewBox="0 0 16 16" fill="none" xmlns="http://www.w3.org/2000/svg">
<path d="M13.52 12.9854C12.9752 14.8217 11.6635 15.4674 10.1907 15.4674C9.06044 15.4674 7.74876 15.0031 6.90135 14.2363C6.27593 14.9022 5.44826 15.4674 4.37885 15.4674C3.14775 15.4674 2.54261 14.8217 2.54261 13.8734C2.54261 12.844 3.45086 12.0974 4.86339 12.0974C5.52937 12.0974 6.05393 12.1983 6.63933 12.4406C6.80102 10.9475 6.15479 10.0189 5.42851 9.07066H2.90602C2.62372 9.07066 2.50259 8.90897 2.54261 8.68751L2.64347 8.12239C2.68402 7.92068 2.8249 7.79954 3.08745 7.79954H4.54054C4.07628 7.03271 3.73315 6.14474 3.73315 4.89389C3.73315 2.57311 5.48881 0.535156 8.9393 0.535156C11.2398 0.535156 12.8135 1.30199 12.8743 2.18996L13.0157 4.6116C13.036 4.95473 12.8743 5.09561 12.6929 5.09561C11.6838 5.09561 11.5627 1.76625 8.77814 1.76625C7.50702 1.76625 6.82077 2.47225 6.82077 3.64305C6.82077 4.97501 7.74876 6.32671 8.37472 7.80007H11.0386C11.3209 7.80007 11.4421 7.96177 11.402 8.18322L11.3012 8.74835C11.2606 8.95006 11.1197 9.07119 10.8572 9.07119H8.79896C9.08125 10.2617 9.00067 11.5329 7.99157 12.9454C8.71784 13.1674 9.42438 13.2277 10.2312 13.2277C11.1192 13.2277 12.0472 13.0462 12.8343 12.4406C13.2986 12.0772 13.6817 12.4406 13.5206 12.9854H13.52Z" stroke="currentColor" stroke-linecap="round" stroke-linejoin="round"/>
</svg>
