<svg width="16" height="16" viewBox="0 0 16 16" fill="none" xmlns="http://www.w3.org/2000/svg">
<path d="M10.616 1.62379L6.43732 1.62379C6.31405 1.62379 6.20918 1.71365 6.19028 1.83546L5.085 8.95898C5.06149 9.11052 5.17869 9.24731 5.33205 9.24731L6.67096 9.24731C6.81814 9.24731 6.93347 9.37382 6.91989 9.52038L6.46123 14.4705C6.43659 14.7365 6.7902 14.8506 6.92564 14.6203L12.114 5.80131C12.2121 5.63465 12.0919 5.42454 11.8985 5.42454L10.0665 5.42454C9.89655 5.42454 9.77613 5.25866 9.82877 5.09709L10.8537 1.95124C10.9064 1.78967 10.7859 1.62379 10.616 1.62379Z" stroke="currentColor" stroke-linejoin="round"/>
</svg>
