<svg width="16" height="17" viewBox="0 0 16 17" fill="none" xmlns="http://www.w3.org/2000/svg">
<path d="M8.184 2.42494C8.85732 2.42494 9.40315 1.8821 9.40315 1.21247C9.40315 0.542842 8.85732 0 8.184 0C7.51068 0 6.96484 0.542842 6.96484 1.21247C6.96484 1.8821 7.51068 2.42494 8.184 2.42494Z" fill="currentColor"/>
<path d="M4.69962 3.35072C5.37294 3.35072 5.91877 2.80788 5.91877 2.13825C5.91877 1.46862 5.37294 0.925781 4.69962 0.925781C4.0263 0.925781 3.48047 1.46862 3.48047 2.13825C3.48047 2.80788 4.0263 3.35072 4.69962 3.35072Z" fill="currentColor"/>
<path d="M2.15275 5.88588C2.82607 5.88588 3.3719 5.34304 3.3719 4.67341C3.3719 4.00378 2.82607 3.46094 2.15275 3.46094C1.47943 3.46094 0.933594 4.00378 0.933594 4.67341C0.933594 5.34304 1.47943 5.88588 2.15275 5.88588Z" fill="currentColor"/>
<path d="M1.21915 9.35072C1.89247 9.35072 2.43831 8.80788 2.43831 8.13825C2.43831 7.46862 1.89247 6.92578 1.21915 6.92578C0.545833 6.92578 0 7.46862 0 8.13825C0 8.80788 0.545833 9.35072 1.21915 9.35072Z" fill="currentColor"/>
<path d="M2.15275 12.8117C2.82607 12.8117 3.3719 12.2688 3.3719 11.5992C3.3719 10.9296 2.82607 10.3867 2.15275 10.3867C1.47943 10.3867 0.933594 10.9296 0.933594 11.5992C0.933594 12.2688 1.47943 12.8117 2.15275 12.8117Z" fill="currentColor"/>
<path opacity="0.9" d="M4.69962 15.3468C5.37294 15.3468 5.91877 14.804 5.91877 14.1343C5.91877 13.4647 5.37294 12.9219 4.69962 12.9219C4.0263 12.9219 3.48047 13.4647 3.48047 14.1343C3.48047 14.804 4.0263 15.3468 4.69962 15.3468Z" fill="currentColor"/>
<path opacity="0.8" d="M8.184 16.2765C8.85732 16.2765 9.40315 15.7337 9.40315 15.064C9.40315 14.3944 8.85732 13.8516 8.184 13.8516C7.51068 13.8516 6.96484 14.3944 6.96484 15.064C6.96484 15.7337 7.51068 16.2765 8.184 16.2765Z" fill="currentColor"/>
<path opacity="0.7" d="M11.6631 15.2282C12.2688 15.2282 12.7598 14.7399 12.7598 14.1375C12.7598 13.5352 12.2688 13.0469 11.6631 13.0469C11.0574 13.0469 10.5664 13.5352 10.5664 14.1375C10.5664 14.7399 11.0574 15.2282 11.6631 15.2282Z" fill="currentColor"/>
<path opacity="0.6" d="M14.2134 12.5724C14.752 12.5724 15.1886 12.1382 15.1886 11.6026C15.1886 11.067 14.752 10.6328 14.2134 10.6328C13.6749 10.6328 13.2383 11.067 13.2383 11.6026C13.2383 12.1382 13.6749 12.5724 14.2134 12.5724Z" fill="currentColor"/>
<path opacity="0.5" d="M15.1456 8.98506C15.6166 8.98506 15.9983 8.6054 15.9983 8.13706C15.9983 7.66872 15.6166 7.28906 15.1456 7.28906C14.6747 7.28906 14.293 7.66872 14.293 8.13706C14.293 8.6054 14.6747 8.98506 15.1456 8.98506Z" fill="currentColor"/>
<path opacity="0.3" d="M11.6643 2.74763C12.0009 2.74763 12.2738 2.47621 12.2738 2.14139C12.2738 1.80658 12.0009 1.53516 11.6643 1.53516C11.3276 1.53516 11.0547 1.80658 11.0547 2.14139C11.0547 2.47621 11.3276 2.74763 11.6643 2.74763Z" fill="currentColor"/>
<path opacity="0.4" d="M14.2155 5.40345C14.6193 5.40345 14.9466 5.07791 14.9466 4.67633C14.9466 4.27476 14.6193 3.94922 14.2155 3.94922C13.8117 3.94922 13.4844 4.27476 13.4844 4.67633C13.4844 5.07791 13.8117 5.40345 14.2155 5.40345Z" fill="currentColor"/>
</svg>
