<svg width="16" height="16" viewBox="0 0 16 16" fill="none" xmlns="http://www.w3.org/2000/svg">
<path d="M6.87968 12.8355C6.87968 12.1923 7.41207 11.6709 8.05523 11.6709V11.6709C8.69838 11.6709 9.23077 12.1923 9.23077 12.8355V12.8355C9.23077 13.4786 8.69838 14 8.05523 14V14C7.41207 14 6.87968 13.4786 6.87968 12.8355V12.8355ZM4.52103 5.86837C4.23681 5.86837 4.0073 5.63107 4.0411 5.34886C4.19197 4.08911 4.70162 3.17699 5.57002 2.61249C6.19066 2.20416 6.95332 2 7.85799 2C9.04668 2 10.0329 2.29013 10.8166 2.87038C11.6055 3.45064 12 4.31028 12 5.44929C12 6.14775 11.8291 6.73606 11.4872 7.21424C11.2873 7.50437 10.9034 7.87508 10.3353 8.32639L9.77515 8.76964C9.47009 9.01142 9.26759 9.29349 9.16765 9.61585C9.13177 9.73193 9.10523 9.88448 9.08805 10.0735C9.06327 10.3461 8.84493 10.5668 8.57117 10.5668H7.45259C7.16964 10.5668 6.94177 10.3319 6.96057 10.0496C7.00273 9.41675 7.07834 8.96323 7.18738 8.68905C7.32413 8.33983 7.67653 7.93956 8.24458 7.48825L8.82051 7.02888C9.00986 6.88381 9.16239 6.72532 9.27811 6.55339C9.48849 6.25789 9.59369 5.93284 9.59369 5.57824C9.59369 5.16991 9.47535 4.79919 9.23866 4.46608C9.00723 4.1276 8.5812 3.95836 7.96055 3.95836C7.35043 3.95836 6.9165 4.16521 6.65878 4.57891C6.50123 4.83707 6.39285 5.1015 6.33361 5.37221C6.27459 5.64197 6.05622 5.86837 5.78008 5.86837H4.52103Z" stroke="currentColor"/>
</svg>
