<svg width="16" height="16" viewBox="0 0 16 16" fill="none" xmlns="http://www.w3.org/2000/svg">
<path d="M3.73482 7.86935L4.23387 7.90014L3.73482 7.86935C3.71237 8.23304 4.00861 8.5 4.33077 8.5H6.46154C6.73768 8.5 6.96154 8.72386 6.96154 9V13C6.96154 13.2761 6.73768 13.5 6.46154 13.5H2C1.72386 13.5 1.5 13.2761 1.5 13V9.00001C1.5 6.71212 2.59118 5.22371 3.89637 4.24227C5.19025 3.26933 6.68587 2.80534 7.5 2.61099V3.69928C7.5 3.69993 7.49993 3.70155 7.49823 3.70446C7.49638 3.70761 7.49296 3.71148 7.48753 3.71464L7.73887 4.14688L7.48753 3.71464C7.05737 3.96477 6.17407 4.51116 5.37917 5.2149C4.98156 5.5669 4.5932 5.96947 4.29424 6.40562C3.99699 6.83928 3.76773 7.33591 3.73482 7.86935Z" stroke="currentColor"/>
<path d="M10.7348 7.86935L11.2339 7.90014L10.7348 7.86935C10.7124 8.23304 11.0086 8.5 11.3308 8.5H13.4615C13.7377 8.5 13.9615 8.72386 13.9615 9V13C13.9615 13.2761 13.7377 13.5 13.4615 13.5H9C8.72386 13.5 8.5 13.2761 8.5 13V9.00001C8.5 6.71212 9.59118 5.22371 10.8964 4.24227C12.1903 3.26933 13.6859 2.80534 14.5 2.61099V3.69928C14.5 3.69993 14.4999 3.70155 14.4982 3.70446C14.4964 3.70761 14.493 3.71148 14.4875 3.71464L14.7389 4.14688L14.4875 3.71464C14.0574 3.96477 13.1741 4.51116 12.3792 5.2149C11.9816 5.5669 11.5932 5.96947 11.2942 6.40562C10.997 6.83928 10.7677 7.33591 10.7348 7.86935Z" stroke="currentColor"/>
</svg>
