<svg width="18" height="16" viewBox="0 0 18 16" fill="none" xmlns="http://www.w3.org/2000/svg">
<circle cx="5.38537" cy="9.38147" r="2.38537" stroke="currentColor"/>
<circle cx="12.6158" cy="9.38147" r="2.38537" stroke="currentColor"/>
<path d="M7.82812 8.96054C7.82812 8.96054 8.06732 8.09375 8.99219 8.09375C9.91706 8.09375 10.1563 8.96054 10.1563 8.96054" stroke="currentColor" stroke-linecap="round"/>
<path d="M2.9375 9.9264H3.4375V8.9264H2.9375V9.9264ZM4.09375 5.05762C4.09375 5.33376 4.31761 5.55762 4.59375 5.55762C4.86989 5.55762 5.09375 5.33376 5.09375 5.05762L4.09375 5.05762ZM1.27564 8.90474L1.71772 9.13833L1.27564 8.90474ZM1.59001 9.9264H2.9375V8.9264H1.59001V9.9264ZM1.71772 9.13833L4.36591 4.12646L3.48174 3.65929L0.833557 8.67115L1.71772 9.13833ZM4.09375 4.05898L4.09375 5.05762L5.09375 5.05762L5.09375 4.05898L4.09375 4.05898ZM4.36591 4.12646C4.35435 4.14833 4.32802 4.17605 4.28956 4.19166C4.25583 4.20534 4.22567 4.2047 4.20343 4.19918C4.18119 4.19367 4.15423 4.18015 4.13079 4.15229C4.10408 4.12053 4.09375 4.08372 4.09375 4.05898L5.09375 4.05898C5.09375 3.16655 3.89867 2.87022 3.48174 3.65929L4.36591 4.12646ZM1.59001 8.9264C1.69881 8.9264 1.76855 9.04213 1.71772 9.13833L0.833557 8.67115C0.532497 9.24092 0.945584 9.9264 1.59001 9.9264V8.9264Z" fill="currentColor"/>
<path d="M15.0625 9.9264H14.5625V8.9264H15.0625V9.9264ZM13.9063 5.05762C13.9063 5.33376 13.6824 5.55762 13.4063 5.55762C13.1301 5.55762 12.9063 5.33376 12.9063 5.05762L13.9063 5.05762ZM16.7244 8.90474L16.2823 9.13833L16.7244 8.90474ZM16.41 9.9264H15.0625V8.9264H16.41V9.9264ZM16.2823 9.13833L13.6341 4.12646L14.5183 3.65929L17.1664 8.67115L16.2823 9.13833ZM13.9063 4.05898L13.9063 5.05762L12.9063 5.05762L12.9063 4.05898L13.9063 4.05898ZM13.6341 4.12646C13.6456 4.14833 13.672 4.17605 13.7104 4.19166C13.7442 4.20534 13.7743 4.2047 13.7966 4.19918C13.8188 4.19367 13.8458 4.18015 13.8692 4.15229C13.8959 4.12053 13.9063 4.08372 13.9063 4.05898L12.9063 4.05898C12.9063 3.16655 14.1013 2.87022 14.5183 3.65929L13.6341 4.12646ZM16.41 8.9264C16.3012 8.9264 16.2315 9.04213 16.2823 9.13833L17.1664 8.67115C17.4675 9.24092 17.0544 9.9264 16.41 9.9264V8.9264Z" fill="currentColor"/>
</svg>
