<svg width="18" height="16" viewBox="0 0 18 16" fill="none" xmlns="http://www.w3.org/2000/svg">
<path d="M15.9936 6.11408C15.9607 6.11408 15.9278 6.11408 15.8995 6.10938C15.876 6.10938 15.8478 6.10938 15.8242 6.10938C15.7866 6.10938 15.7631 6.11408 15.7395 6.11879C15.7113 6.1282 15.6831 6.1282 15.6548 6.12349C15.6548 6.12349 15.636 6.12349 15.6031 6.12349C15.5654 6.12349 15.5278 6.12349 15.4901 6.1282C15.3866 6.13761 15.2831 6.15643 15.1842 6.18937C14.596 6.3729 14.1866 6.93761 14.1866 7.55879V9.2529C14.1866 9.38467 14.0784 9.49761 13.9419 9.49761H4.05483C3.92306 9.49761 3.81012 9.38937 3.81012 9.2529V7.55879C3.81012 6.93761 3.40071 6.3729 2.81247 6.18937C2.71365 6.15643 2.61012 6.13761 2.50659 6.1282C2.46894 6.12349 2.4313 6.12349 2.39365 6.12349C2.36071 6.12349 2.34188 6.12349 2.34188 6.12349C2.31365 6.1282 2.28541 6.12349 2.25718 6.11879C2.23835 6.11408 2.21012 6.10938 2.17247 6.10938C2.14894 6.10938 2.12541 6.10938 2.09718 6.10938C2.06424 6.10938 2.036 6.11408 2.00306 6.11408C1.45718 6.11408 1.01953 6.55643 1.01953 7.09761C1.01953 7.59173 1.38659 8.01055 1.876 8.07643C1.99835 8.09055 2.08777 8.19408 2.08777 8.31643V11.4364C2.08777 11.8176 2.39836 12.1282 2.77953 12.1282H15.2266C15.6078 12.1282 15.9184 11.8176 15.9184 11.4364V8.31643C15.9184 8.19408 16.0078 8.09055 16.1301 8.07643C16.6148 8.01055 16.9866 7.59173 16.9866 7.09761C16.9819 6.55643 16.5395 6.11408 15.9936 6.11408Z" stroke="currentColor"/>
<path d="M5.22099 8.00006V7.57182C5.22099 6.95533 4.96658 5.71017 3.96845 5.21257C3.47418 4.96616 3.00082 4.43948 3.50092 4.20513C3.93854 4.00006 4.59937 4.00006 5.22099 4.00006H12.7786C13.331 4.00006 13.8346 3.99302 14.2101 4.13189C14.779 4.34225 14.2766 4.96239 13.7627 5.2844C12.9044 5.82212 12.7786 6.98647 12.7786 7.57182V8.04694L5.22099 8.00006Z" stroke="currentColor"/>
</svg>
