<svg width="16" height="16" viewBox="0 0 16 16" fill="none" xmlns="http://www.w3.org/2000/svg">
<path d="M2.94531 3C2.94531 3.55228 2.4976 4 1.94531 4C1.39303 4 0.945312 3.55228 0.945312 3C0.945312 2.44772 1.39303 2 1.94531 2C2.4976 2 2.94531 2.44772 2.94531 3Z" fill="currentColor" stroke="currentColor"/>
<path d="M9.49219 3C9.49219 3.55228 9.04447 4 8.49219 4C7.9399 4 7.49219 3.55228 7.49219 3C7.49219 2.44772 7.9399 2 8.49219 2C9.04447 2 9.49219 2.44772 9.49219 3Z" stroke="currentColor"/>
<path d="M9.49219 8C9.49219 8.55228 9.04447 9 8.49219 9C7.9399 9 7.49219 8.55228 7.49219 8C7.49219 7.44772 7.9399 7 8.49219 7C9.04447 7 9.49219 7.44772 9.49219 8Z" stroke="currentColor"/>
<path d="M15.0547 8C15.0547 8.55228 14.607 9 14.0547 9C13.5024 9 13.0547 8.55228 13.0547 8C13.0547 7.44772 13.5024 7 14.0547 7C14.607 7 15.0547 7.44772 15.0547 8Z" stroke="currentColor"/>
<path d="M9.49219 13C9.49219 13.5523 9.04447 14 8.49219 14C7.9399 14 7.49219 13.5523 7.49219 13C7.49219 12.4477 7.9399 12 8.49219 12C9.04447 12 9.49219 12.4477 9.49219 13Z" stroke="currentColor"/>
<path d="M3.24219 3H7.24219" stroke="currentColor"/>
<path d="M7.24219 13H6.24219C5.6899 13 5.24219 12.5523 5.24219 12V4C5.24219 3.44772 4.79447 3 4.24219 3H3.24219" stroke="currentColor"/>
<path d="M9.74219 8H12.7422" stroke="currentColor"/>
<path d="M7.24219 8H6.24219C5.6899 8 5.24219 7.55228 5.24219 7V5.5" stroke="currentColor"/>
</svg>
