<svg width="16" height="16" viewBox="0 0 16 16" fill="none" xmlns="http://www.w3.org/2000/svg">
<path d="M0.646447 9.64645C0.451184 9.84171 0.451184 10.1583 0.646447 10.3536L3.82843 13.5355C4.02369 13.7308 4.34027 13.7308 4.53553 13.5355C4.7308 13.3403 4.7308 13.0237 4.53553 12.8284L1.70711 10L4.53553 7.17157C4.7308 6.97631 4.7308 6.65973 4.53553 6.46447C4.34027 6.2692 4.02369 6.2692 3.82843 6.46447L0.646447 9.64645ZM10.1067 3.83458C9.83056 3.83089 9.60373 4.05174 9.60004 4.32786C9.59636 4.60397 9.8172 4.8308 10.0933 4.83449L10.1067 3.83458ZM14.0144 4.38683L14.0211 3.88688L14.0211 3.88688L14.0144 4.38683ZM14 9.5L1 9.5L1 10.5L14 10.5L14 9.5ZM10.0933 4.83449L14.0077 4.88679L14.0211 3.88688L10.1067 3.83458L10.0933 4.83449ZM14.5 5.38673L14.5 9L15.5 9L15.5 5.38673L14.5 5.38673ZM14.0077 4.88679C14.2806 4.89043 14.5 5.1125 14.5 5.38673L15.5 5.38673C15.5 4.5668 14.8423 3.89785 14.0211 3.88688L14.0077 4.88679ZM14 10.5C14.8284 10.5 15.5 9.82843 15.5 9L14.5 9C14.5 9.27614 14.2761 9.5 14 9.5L14 10.5Z" fill="currentColor"/>
</svg>
