<svg width="16" height="16" viewBox="0 0 16 16" fill="none" xmlns="http://www.w3.org/2000/svg">
<path d="M12.7477 8.62556L12.2513 8.56599L12.2179 8.84412L12.4377 9.01782L12.7477 8.62556ZM12.7397 7.37756L12.4319 6.98352L12.1994 7.16516L12.246 7.45656L12.7397 7.37756ZM14.0917 6.32156L14.3995 6.71564L14.404 6.712L14.0917 6.32156ZM14.1717 5.91356L14.6136 5.67962L14.6093 5.67146L14.6047 5.66348L14.1717 5.91356ZM12.8917 3.69756L12.4546 3.94042L12.4587 3.94765L12.8917 3.69756ZM12.4997 3.55356L12.3416 3.07922L12.3272 3.084L12.3132 3.08965L12.4997 3.55356ZM10.9077 4.19356L10.6047 4.59128L10.8306 4.76343L11.0942 4.65748L10.9077 4.19356ZM9.8277 3.56956L9.33263 3.63962L9.37287 3.92396L9.63875 4.03249L9.8277 3.56956ZM9.5877 1.87356L10.0828 1.8035L10.0822 1.79939L9.5877 1.87356ZM6.3957 1.87356L5.90122 1.79939L5.90063 1.80351L6.3957 1.87356ZM6.1557 3.56956L6.34465 4.03249L6.61053 3.92396L6.65077 3.63962L6.1557 3.56956ZM5.0757 4.19356L4.8892 4.65748L5.15164 4.76298L5.37726 4.59239L5.0757 4.19356ZM3.4837 3.55356L3.67021 3.08962L3.66492 3.08756L3.4837 3.55356ZM3.0917 3.69756L3.52472 3.94768L3.52878 3.94038L3.0917 3.69756ZM1.8117 5.91356L1.37868 5.66344L1.37462 5.67074L1.8117 5.91356ZM1.8917 6.32156L2.19954 5.92744L2.1917 5.92156L1.8917 6.32156ZM3.2437 7.37756L3.73742 7.45656L3.78404 7.16516L3.55148 6.98351L3.2437 7.37756ZM3.2357 8.62556L3.54348 9.01961L3.77604 8.83796L3.72942 8.54657L3.2357 8.62556ZM1.8837 9.68156L1.5759 9.28749L1.57135 9.29113L1.8837 9.68156ZM1.8037 10.0896L1.36181 10.3235L1.36612 10.3317L1.37074 10.3397L1.8037 10.0896ZM3.0837 12.3056L3.52084 12.0627L3.51666 12.0555L3.0837 12.3056ZM3.4757 12.4496L3.63382 12.9239L3.64817 12.9191L3.6622 12.9135L3.4757 12.4496ZM5.0677 11.8096L5.37072 11.4118L5.14477 11.2397L4.8812 11.3456L5.0677 11.8096ZM6.1477 12.4336L6.64277 12.3635L6.60253 12.0792L6.33665 11.9706L6.1477 12.4336ZM6.3877 14.1296L5.89263 14.1996L5.89462 14.2137L5.89741 14.2276L6.3877 14.1296ZM9.5797 14.1296L9.08463 14.0595L9.0832 14.0696L9.08218 14.0798L9.5797 14.1296ZM9.8197 12.4336L9.63075 11.9706L9.36487 12.0792L9.32463 12.3635L9.8197 12.4336ZM10.8997 11.8096L11.0862 11.3456L10.8238 11.2401L10.5981 11.4107L10.8997 11.8096ZM12.4917 12.4496L12.3052 12.9135L12.3105 12.9156L12.4917 12.4496ZM12.8837 12.3056L12.4507 12.0554L12.4466 12.0627L12.8837 12.3056ZM14.1637 10.0896L14.5967 10.3397L14.6008 10.3324L14.1637 10.0896ZM14.0837 9.68156L13.7736 10.0739L13.7837 10.0816L14.0837 9.68156ZM13.2441 8.68514C13.2699 8.47064 13.2877 8.24216 13.2877 8.00156H12.2877C12.2877 8.19296 12.2735 8.38048 12.2513 8.56599L13.2441 8.68514ZM13.2877 8.00156C13.2877 7.76085 13.2699 7.52635 13.2334 7.29857L12.246 7.45656C12.2735 7.62877 12.2877 7.81028 12.2877 8.00156H13.2877ZM13.0475 7.77161L14.3995 6.71561L13.7839 5.92752L12.4319 6.98352L13.0475 7.77161ZM14.404 6.712C14.7217 6.4579 14.7918 6.0162 14.6136 5.67962L13.7298 6.14751C13.7099 6.10984 13.7063 6.07139 13.7127 6.03839C13.7191 6.0048 13.7386 5.96376 13.7794 5.93113L14.404 6.712ZM14.6047 5.66348L13.3247 3.44748L12.4587 3.94765L13.7387 6.16365L14.6047 5.66348ZM13.3288 3.45474C13.1152 3.07037 12.6796 2.96655 12.3416 3.07922L12.6578 4.0279C12.6287 4.03762 12.5941 4.03907 12.5575 4.02654C12.5174 4.01276 12.478 3.98253 12.4546 3.94038L13.3288 3.45474ZM12.3132 3.08965L10.7212 3.72965L11.0942 4.65748L12.6862 4.01748L12.3132 3.08965ZM11.2107 3.79585C10.8436 3.51613 10.4536 3.285 10.0167 3.10664L9.63875 4.03249C9.98576 4.17412 10.2998 4.35899 10.6047 4.59128L11.2107 3.79585ZM10.3228 3.49951L10.0828 1.80351L9.09263 1.94362L9.33263 3.63962L10.3228 3.49951ZM10.0822 1.79939C10.02 1.38507 9.66541 1.10156 9.2677 1.10156V2.10156C9.19 2.10156 9.10738 2.04205 9.09323 1.94773L10.0822 1.79939ZM9.2677 1.10156H6.7077V2.10156H9.2677V1.10156ZM6.7077 1.10156C6.29443 1.10156 5.96108 1.40039 5.90123 1.79939L6.89017 1.94773C6.88507 1.98176 6.86631 2.02212 6.82947 2.05428C6.79234 2.08668 6.74719 2.10156 6.7077 2.10156V1.10156ZM5.90063 1.80351L5.66063 3.49951L6.65077 3.63962L6.89077 1.94362L5.90063 1.80351ZM5.96675 3.10664C5.52826 3.28562 5.13082 3.52505 4.77415 3.79473L5.37726 4.59239C5.67658 4.36607 5.99915 4.17351 6.34465 4.03249L5.96675 3.10664ZM5.2622 3.72965L3.6702 3.08965L3.2972 4.01748L4.8892 4.65748L5.2622 3.72965ZM3.66492 3.08756C3.2908 2.94207 2.85744 3.08968 2.65462 3.45474L3.52878 3.94038C3.48597 4.01745 3.3886 4.05306 3.30248 4.01956L3.66492 3.08756ZM2.65874 3.44748L1.37874 5.66348L2.24466 6.16365L3.52466 3.94765L2.65874 3.44748ZM1.37462 5.67074C1.18111 6.01906 1.25117 6.46616 1.5917 6.72156L2.1917 5.92156C2.22665 5.94778 2.2548 5.99022 2.26451 6.04013C2.274 6.08894 2.2633 6.13025 2.24878 6.15638L1.37462 5.67074ZM1.58392 6.71561L2.93592 7.77161L3.55148 6.98351L2.19948 5.92752L1.58392 6.71561ZM2.74998 7.29857C2.71561 7.51336 2.6877 7.75768 2.6877 8.00156H3.6877C3.6877 7.82944 3.70779 7.64177 3.73742 7.45656L2.74998 7.29857ZM2.6877 8.00156C2.6877 8.23378 2.70546 8.47631 2.74198 8.70456L3.72942 8.54657C3.70194 8.37482 3.6877 8.18535 3.6877 8.00156H2.6877ZM2.92792 8.23151L1.57592 9.28751L2.19148 10.0756L3.54348 9.01961L2.92792 8.23151ZM1.57135 9.29113C1.25373 9.54523 1.18362 9.98693 1.36181 10.3235L2.2456 9.85562C2.26554 9.89329 2.26908 9.93173 2.26275 9.96474C2.25631 9.99833 2.23684 10.0394 2.19605 10.072L1.57135 9.29113ZM1.37074 10.3397L2.65074 12.5556L3.51666 12.0555L2.23666 9.83948L1.37074 10.3397ZM2.64662 12.5484C2.86016 12.9328 3.2958 13.0366 3.63382 12.9239L3.31759 11.9752C3.34674 11.9655 3.38131 11.9641 3.41786 11.9766C3.45805 11.9904 3.49736 12.0206 3.52078 12.0627L2.64662 12.5484ZM3.6622 12.9135L5.2542 12.2735L4.8812 11.3456L3.2892 11.9856L3.6622 12.9135ZM4.76468 12.2073C5.13181 12.487 5.52176 12.7181 5.95875 12.8965L6.33665 11.9706C5.98964 11.829 5.6756 11.6441 5.37072 11.4118L4.76468 12.2073ZM5.65263 12.5036L5.89263 14.1996L6.88277 14.0595L6.64277 12.3635L5.65263 12.5036ZM5.89741 14.2276C5.9724 14.6025 6.29071 14.9016 6.7077 14.9016V13.9016C6.748 13.9016 6.79119 13.9169 6.8251 13.9459C6.85791 13.9741 6.87309 14.007 6.87799 14.0315L5.89741 14.2276ZM6.7077 14.9016H9.2677V13.9016H6.7077V14.9016ZM9.2677 14.9016C9.66 14.9016 10.0333 14.6187 10.0772 14.1793L9.08218 14.0798C9.09412 13.9605 9.1954 13.9016 9.2677 13.9016V14.9016ZM10.0748 14.1996L10.3148 12.5036L9.32463 12.3635L9.08463 14.0595L10.0748 14.1996ZM10.0087 12.8965C10.4471 12.7175 10.8446 12.4781 11.2013 12.2084L10.5981 11.4107C10.2988 11.6371 9.97626 11.8296 9.63075 11.9706L10.0087 12.8965ZM10.7132 12.2735L12.3052 12.9135L12.6782 11.9856L11.0862 11.3456L10.7132 12.2735ZM12.3105 12.9156C12.6846 13.0611 13.118 12.9135 13.3208 12.5484L12.4466 12.0627C12.4894 11.9857 12.5868 11.9501 12.6729 11.9836L12.3105 12.9156ZM13.3167 12.5556L14.5967 10.3397L13.7307 9.83948L12.4507 12.0555L13.3167 12.5556ZM14.6008 10.3324C14.7943 9.98406 14.7242 9.53696 14.3837 9.28156L13.7837 10.0816C13.7488 10.0553 13.7206 10.0129 13.7109 9.963C13.7014 9.91418 13.7121 9.87288 13.7266 9.84674L14.6008 10.3324ZM14.3938 9.2893L13.0578 8.2333L12.4377 9.01782L13.7737 10.0738L14.3938 9.2893ZM7.98594 9.90156C6.94208 9.90156 6.08594 9.04542 6.08594 8.00156H5.08594C5.08594 9.5977 6.38979 10.9016 7.98594 10.9016V9.90156ZM6.08594 8.00156C6.08594 6.9577 6.94208 6.10156 7.98594 6.10156V5.10156C6.38979 5.10156 5.08594 6.40542 5.08594 8.00156H6.08594ZM7.98594 6.10156C9.02979 6.10156 9.88594 6.9577 9.88594 8.00156H10.8859C10.8859 6.40542 9.58208 5.10156 7.98594 5.10156V6.10156ZM9.88594 8.00156C9.88594 9.04542 9.02979 9.90156 7.98594 9.90156V10.9016C9.58208 10.9016 10.8859 9.5977 10.8859 8.00156H9.88594Z" fill="currentColor"/>
</svg>
