<svg width="16" height="16" viewBox="0 0 16 16" fill="none" xmlns="http://www.w3.org/2000/svg">
<path d="M10.5 5.94922H12.0523C12.5355 5.94922 12.9273 6.34097 12.9273 6.82422V14.1265C12.9273 14.6097 12.5355 15.0015 12.0523 15.0015H3.875C3.39175 15.0015 3 14.6097 3 14.1265V6.82422C3 6.34097 3.39175 5.94922 3.875 5.94922H5.5" stroke="currentColor"/>
<path d="M7.35156 9.60547C7.35156 9.88161 7.57542 10.1055 7.85156 10.1055C8.1277 10.1055 8.35156 9.88161 8.35156 9.60547L7.35156 9.60547ZM8.20512 0.648295C8.00985 0.453033 7.69327 0.453033 7.49801 0.648295L4.31603 3.83028C4.12077 4.02554 4.12077 4.34212 4.31603 4.53738C4.51129 4.73265 4.82787 4.73265 5.02314 4.53738L7.85156 1.70896L10.68 4.53738C10.8753 4.73264 11.1918 4.73264 11.3871 4.53738C11.5824 4.34212 11.5824 4.02554 11.3871 3.83028L8.20512 0.648295ZM8.35156 9.60547L8.35156 1.00185L7.35156 1.00185L7.35156 9.60547L8.35156 9.60547Z" fill="currentColor"/>
</svg>
