<svg width="16" height="16" viewBox="0 0 16 16" fill="none" xmlns="http://www.w3.org/2000/svg">
<path fill-rule="evenodd" clip-rule="evenodd" d="M16 3.2L8 0L0 3.2C0 10.88 6.66667 16 8 16C9.33333 16 16 10.88 16 3.2ZM8 1.04L14.9837 3.83348C14.8141 7.12269 13.3468 9.89147 11.7137 11.8869C10.8465 12.9464 9.94698 13.7695 9.20279 14.3191C8.82967 14.5946 8.50956 14.7911 8.26451 14.9136C8.13064 14.9806 8.04459 15.0126 8 15.0276C8 15.0276 7.96889 2.67163 8 1.04Z" fill="currentColor"/>
<path d="M8 0.538517L15.4956 3.53674C15.4019 7.08 13.8425 10.0502 12.1131 12.1633C11.222 13.252 10.2937 14.1031 9.51548 14.6778C9.12591 14.9655 8.78082 15.1788 8.5029 15.3178C8.20508 15.4668 8.0435 15.5 8 15.5C7.9565 15.5 7.79492 15.4668 7.4971 15.3178C7.21919 15.1788 6.87409 14.9655 6.48452 14.6778C5.70631 14.1031 4.778 13.252 3.88693 12.1633C2.15747 10.0502 0.598128 7.08 0.504449 3.53674L8 0.538517Z" stroke="currentColor"/>
</svg>
