<svg width="16" height="16" viewBox="0 0 16 16" fill="none" xmlns="http://www.w3.org/2000/svg">
<path fill-rule="evenodd" clip-rule="evenodd" d="M15 7.77601C15 9.17249 11.866 12.3958 8 12.3958C4.13401 12.3958 1 9.17249 1 7.77601C1 6.37953 4.13401 3.15625 8 3.15625C11.866 3.15625 15 6.37953 15 7.77601ZM11 7.77453C11 9.41473 9.65685 10.7444 8 10.7444C6.34315 10.7444 5 9.41473 5 7.77453C5 6.13433 6.34315 4.80469 8 4.80469C9.65685 4.80469 11 6.13433 11 7.77453ZM8 9.50779C8.9665 9.50779 9.75 8.73216 9.75 7.77538C9.75 6.8186 8.9665 6.04297 8 6.04297C7.0335 6.04297 6.25 6.8186 6.25 7.77538C6.25 8.73216 7.0335 9.50779 8 9.50779Z" fill="currentColor"/>
</svg>
