<svg width="16" height="16" viewBox="0 0 16 16" fill="none" xmlns="http://www.w3.org/2000/svg">
<path d="M15.3536 12.3536C15.5488 12.1583 15.5488 11.8417 15.3536 11.6464L12.1716 8.46447C11.9763 8.2692 11.6597 8.2692 11.4645 8.46447C11.2692 8.65973 11.2692 8.97631 11.4645 9.17157L14.2929 12L11.4645 14.8284C11.2692 15.0237 11.2692 15.3403 11.4645 15.5355C11.6597 15.7308 11.9763 15.7308 12.1716 15.5355L15.3536 12.3536ZM9.7 11.6L10.1 11.3V11.3L9.7 11.6ZM4.3 4.4L4.7 4.1L4.7 4.1L4.3 4.4ZM1 3.5C0.723858 3.5 0.5 3.72386 0.5 4C0.5 4.27614 0.723858 4.5 1 4.5V3.5ZM10.5 12.5H15V11.5H10.5V12.5ZM10.1 11.3L4.7 4.1L3.9 4.7L9.3 11.9L10.1 11.3ZM3.5 3.5H1V4.5H3.5V3.5ZM4.7 4.1C4.41672 3.72229 3.97214 3.5 3.5 3.5V4.5C3.65738 4.5 3.80557 4.5741 3.9 4.7L4.7 4.1ZM10.5 11.5C10.3426 11.5 10.1944 11.4259 10.1 11.3L9.3 11.9C9.58328 12.2777 10.0279 12.5 10.5 12.5V11.5Z" fill="currentColor"/>
<path d="M15.3536 3.64645C15.5488 3.84171 15.5488 4.15829 15.3536 4.35355L12.1716 7.53553C11.9763 7.7308 11.6597 7.7308 11.4645 7.53553C11.2692 7.34027 11.2692 7.02369 11.4645 6.82843L14.2929 4L11.4645 1.17157C11.2692 0.976311 11.2692 0.659728 11.4645 0.464466C11.6597 0.269204 11.9763 0.269204 12.1716 0.464466L15.3536 3.64645ZM9.7 4.4L10.1 4.7V4.7L9.7 4.4ZM4.3 11.6L4.7 11.9L4.7 11.9L4.3 11.6ZM1 12.5C0.723858 12.5 0.5 12.2761 0.5 12C0.5 11.7239 0.723858 11.5 1 11.5V12.5ZM10.5 3.5H15V4.5H10.5V3.5ZM10.1 4.7L4.7 11.9L3.9 11.3L9.3 4.1L10.1 4.7ZM3.5 12.5H1V11.5H3.5V12.5ZM4.7 11.9C4.41672 12.2777 3.97214 12.5 3.5 12.5V11.5C3.65738 11.5 3.80557 11.4259 3.9 11.3L4.7 11.9ZM10.5 4.5C10.3426 4.5 10.1944 4.5741 10.1 4.7L9.3 4.1C9.58328 3.72229 10.0279 3.5 10.5 3.5V4.5Z" fill="currentColor"/>
</svg>
