<svg width="16" height="16" viewBox="0 0 16 16" fill="none" xmlns="http://www.w3.org/2000/svg">
<path d="M8.89453 13.375L4.64453 13.375C4.09225 13.375 3.64453 12.9273 3.64453 12.375L3.64453 3C3.64453 2.44771 4.09225 2 4.64453 2L8.89453 2" stroke="currentColor" stroke-linecap="square"/>
<path d="M5.98047 6.875C5.70433 6.875 5.48047 7.09886 5.48047 7.375C5.48047 7.65114 5.70433 7.875 5.98047 7.875L5.98047 6.875ZM13.334 7.72855C13.5293 7.53329 13.5293 7.21671 13.334 7.02145L10.152 3.83947C9.95678 3.6442 9.6402 3.6442 9.44493 3.83947C9.24967 4.03473 9.24967 4.35131 9.44493 4.54657L12.2734 7.375L9.44493 10.2034C9.24967 10.3987 9.24967 10.7153 9.44493 10.9105C9.6402 11.1058 9.95678 11.1058 10.152 10.9105L13.334 7.72855ZM5.98047 7.875L12.9805 7.875L12.9805 6.875L5.98047 6.875L5.98047 7.875Z" fill="currentColor"/>
</svg>
