<svg width="16" height="18" viewBox="0 0 16 18" fill="none" xmlns="http://www.w3.org/2000/svg">
<path d="M4.01953 16.9683L8.01516 5.48828L12.0277 16.9683" stroke="currentColor" stroke-miterlimit="10" stroke-linejoin="round"/>
<path d="M7.16531 7.92578L9.61031 10.0508L5.57031 12.5077L11.5709 15.6614" stroke="currentColor" stroke-miterlimit="10" stroke-linejoin="round"/>
<path d="M8.86266 7.92578L6.41828 10.0508L10.4577 12.5077L4.45703 15.6614" stroke="currentColor" stroke-miterlimit="10" stroke-linejoin="round"/>
<path d="M8.01406 5.92266C8.26777 5.92266 8.47344 5.71699 8.47344 5.46328C8.47344 5.20958 8.26777 5.00391 8.01406 5.00391C7.76036 5.00391 7.55469 5.20958 7.55469 5.46328C7.55469 5.71699 7.76036 5.92266 8.01406 5.92266Z" stroke="currentColor" stroke-miterlimit="10" stroke-linejoin="round"/>
<path d="M9.395 7.09313C9.85625 6.70125 10.1488 6.11687 10.1488 5.465C10.1488 4.6475 9.69 3.9375 9.01562 3.57812" stroke="currentColor" stroke-miterlimit="10" stroke-linejoin="round"/>
<path d="M7.01266 3.57812C6.33828 3.9375 5.87891 4.6475 5.87891 5.465C5.87891 6.1175 6.17141 6.70188 6.63266 7.09375" stroke="currentColor" stroke-miterlimit="10" stroke-linejoin="round"/>
<path d="M10.96 9.54984C12.2269 8.63547 13.0512 7.14609 13.0512 5.46422C13.0512 3.57984 12.0163 1.93734 10.4844 1.07422" stroke="currentColor" stroke-miterlimit="10" stroke-linejoin="round"/>
<path d="M5.61219 1.03516C4.04219 1.88828 2.97656 3.55141 2.97656 5.46328C2.97656 7.14516 3.80094 8.63453 5.06781 9.54953" stroke="currentColor" stroke-miterlimit="10" stroke-linejoin="round"/>
<path d="M10.1492 8.33609C11.0248 7.68359 11.5923 6.63984 11.5923 5.46359C11.5923 4.12172 10.8542 2.95297 9.76172 2.33984" stroke="currentColor" stroke-miterlimit="10" stroke-linejoin="round"/>
<path d="M6.30672 2.31641C5.19109 2.92266 4.43359 4.10453 4.43359 5.46391C4.43359 6.62641 4.98734 7.65891 5.84609 8.31266" stroke="currentColor" stroke-miterlimit="10" stroke-linejoin="round"/>
</svg>
