<svg width="16" height="16" viewBox="0 0 16 16" fill="none" xmlns="http://www.w3.org/2000/svg">
<path d="M6.73047 13.375L10.9805 13.375C11.5328 13.375 11.9805 12.9273 11.9805 12.375L11.9805 3C11.9805 2.44771 11.5328 2 10.9805 2L6.73047 2" stroke="currentColor" stroke-linecap="square"/>
<path d="M2.64453 6.875C2.36839 6.875 2.14453 7.09886 2.14453 7.375C2.14453 7.65114 2.36839 7.875 2.64453 7.875L2.64453 6.875ZM9.99808 7.72855C10.1933 7.53329 10.1933 7.21671 9.99808 7.02145L6.8161 3.83947C6.62084 3.6442 6.30426 3.6442 6.109 3.83947C5.91374 4.03473 5.91374 4.35131 6.109 4.54657L8.93742 7.375L6.109 10.2034C5.91374 10.3987 5.91374 10.7153 6.109 10.9105C6.30426 11.1058 6.62084 11.1058 6.8161 10.9105L9.99808 7.72855ZM2.64453 7.875L9.64453 7.875L9.64453 6.875L2.64453 6.875L2.64453 7.875Z" fill="currentColor"/>
</svg>
