<svg width="18" height="16" viewBox="0 0 18 16" fill="none" xmlns="http://www.w3.org/2000/svg">
<path d="M8.74406 11.304C9.20415 12.7344 10.6391 13.8368 12.0862 14.0407C14.4201 14.3688 16.5565 12.578 16.8587 10.0391C17.2368 6.86699 15.1808 3.9325 12.2593 3.55074C8.44036 3.05246 4.92969 5.37981 4.92969 9.8674C4.92969 9.8674 5.22275 14.3703 9.11304 12.0936" stroke="currentColor" stroke-miterlimit="10" stroke-linecap="round" stroke-linejoin="round"/>
<path d="M11.9488 8.86438C11.3596 8.89811 10.6369 9.33353 10.567 9.92074C10.4683 10.7517 10.851 11.5582 12.1249 11.621C13.0892 11.6701 13.9562 11.0216 14.0792 9.98206C14.2341 8.68194 13.3974 7.42167 12.1948 7.32508C10.3559 7.17636 8.80407 8.36304 8.61123 9.9882C8.59149 10.1522 8.58541 10.3148 8.59301 10.4742" stroke="currentColor" stroke-miterlimit="10" stroke-linecap="round" stroke-linejoin="round"/>
<path d="M4.704 9.70041C4.704 9.70041 4.20746 10.0224 4.20746 8.78358V5.60992C4.20746 5.60992 4.13002 4.26993 3.05799 4.26993C1.98595 4.26993 1.09766 4.2224 1.09766 5.17143C1.09766 6.12046 1.56838 6.81499 2.72544 6.81499" stroke="currentColor" stroke-miterlimit="10" stroke-linecap="round" stroke-linejoin="round"/>
<path d="M2.10156 6.73047V10.0988C2.10156 12.4354 4.20766 15.1384 7.60597 15.1384H16.0881C16.3538 15.1384 16.5694 14.9207 16.5694 14.6524C16.5694 14.496 16.495 14.3488 16.3675 14.2568L15.1907 13.4074" stroke="currentColor" stroke-miterlimit="10" stroke-linecap="round" stroke-linejoin="round"/>
<path d="M1.75 2.5C2.16421 2.5 2.5 2.16421 2.5 1.75C2.5 1.33579 2.16421 1 1.75 1C1.33579 1 1 1.33579 1 1.75C1 2.16421 1.33579 2.5 1.75 2.5Z" fill="currentColor"/>
<path d="M3.75 2.5C4.16421 2.5 4.5 2.16421 4.5 1.75C4.5 1.33579 4.16421 1 3.75 1C3.33579 1 3 1.33579 3 1.75C3 2.16421 3.33579 2.5 3.75 2.5Z" fill="currentColor"/>
<path d="M3.73088 1.95703L3.15234 4.26905" stroke="currentColor" stroke-miterlimit="10" stroke-linecap="round" stroke-linejoin="round"/>
<path d="M1.82031 1.95703L2.43529 4.26905" stroke="currentColor" stroke-miterlimit="10" stroke-linecap="round" stroke-linejoin="round"/>
</svg>
