<svg width="16" height="16" viewBox="0 0 16 16" fill="none" xmlns="http://www.w3.org/2000/svg">
<path d="M3.64645 14.3536C3.84171 14.5488 4.15829 14.5488 4.35355 14.3536L7.53553 11.1716C7.7308 10.9763 7.7308 10.6597 7.53553 10.4645C7.34027 10.2692 7.02369 10.2692 6.82843 10.4645L4 13.2929L1.17157 10.4645C0.97631 10.2692 0.659728 10.2692 0.464466 10.4645C0.269204 10.6597 0.269204 10.9763 0.464466 11.1716L3.64645 14.3536ZM3.5 2L3.5 14L4.5 14L4.5 2L3.5 2Z" fill="currentColor"/>
<path d="M14.6416 7H13.6982L13.3232 6.02441H11.6064L11.252 7H10.332L12.0049 2.70508H12.9219L14.6416 7ZM13.0449 5.30078L12.4531 3.70703L11.873 5.30078H13.0449ZM10.7305 13V12.2178L12.9863 9.43164H10.9854V8.70508H14.1289V9.37891L11.7764 12.2764H14.2197V13H10.7305Z" fill="currentColor"/>
</svg>
