<svg width="16" height="16" viewBox="0 0 16 16" fill="none" xmlns="http://www.w3.org/2000/svg">
<path d="M3.64645 1.64645C3.84171 1.45118 4.15829 1.45118 4.35355 1.64645L7.53553 4.82843C7.7308 5.02369 7.7308 5.34027 7.53553 5.53553C7.34027 5.7308 7.02369 5.7308 6.82843 5.53553L4 2.70711L1.17157 5.53553C0.97631 5.7308 0.659728 5.7308 0.464466 5.53553C0.269204 5.34027 0.269204 5.02369 0.464466 4.82843L3.64645 1.64645ZM3.5 14L3.5 2L4.5 2L4.5 14L3.5 14Z" fill="currentColor"/>
<rect x="10" y="12" width="2" height="1" fill="currentColor"/>
<rect x="10" y="7" width="4" height="1" fill="currentColor"/>
<rect x="10" y="2" width="6" height="1" fill="currentColor"/>
</svg>
