<svg width="16" height="16" viewBox="0 0 16 16" fill="none" xmlns="http://www.w3.org/2000/svg">
<path d="M3.64645 1.64645C3.84171 1.45118 4.15829 1.45118 4.35355 1.64645L7.53553 4.82843C7.7308 5.02369 7.7308 5.34027 7.53553 5.53553C7.34027 5.7308 7.02369 5.7308 6.82843 5.53553L4 2.70711L1.17157 5.53553C0.97631 5.7308 0.659728 5.7308 0.464466 5.53553C0.269204 5.34027 0.269204 5.02369 0.464466 4.82843L3.64645 1.64645ZM3.5 14L3.5 2L4.5 2L4.5 14L3.5 14Z" fill="currentColor"/>
<path d="M14.6416 7H13.6982L13.3232 6.02441H11.6064L11.252 7H10.332L12.0049 2.70508H12.9219L14.6416 7ZM13.0449 5.30078L12.4531 3.70703L11.873 5.30078H13.0449ZM10.7305 13V12.2178L12.9863 9.43164H10.9854V8.70508H14.1289V9.37891L11.7764 12.2764H14.2197V13H10.7305Z" fill="currentColor"/>
</svg>
