<svg width="16" height="16" viewBox="0 0 16 16" fill="none" xmlns="http://www.w3.org/2000/svg">
<path d="M13.5402 6.63092L13.1902 6.27388L13.1902 6.27389L13.5402 6.63092ZM10.7464 7.37205L10.6116 7.85788L10.7464 7.37205ZM14.2385 4.26839L14.7251 4.17587L14.7251 4.17587L14.2385 4.26839ZM13.6016 4.10205L13.9517 4.45908L13.6016 4.10205ZM12.7724 4.94784L12.4224 4.5908L12.7724 4.94784ZM12.4732 5.07426L12.4732 4.56933L12.4732 4.56933L12.4732 5.07426ZM11.4598 5.07427L11.4598 5.57919L11.4598 5.07427ZM11.0366 4.64263L10.5416 4.64263L11.0366 4.64263ZM11.0366 3.60892L10.5416 3.60891L10.5416 3.60891L11.0366 3.60892ZM11.1606 3.30371L11.5106 3.66075L11.5106 3.66075L11.1606 3.30371ZM11.9898 2.45792L11.6397 2.10088L11.6397 2.10088L11.9898 2.45792ZM11.8267 1.80836L11.736 2.30474L11.8267 1.80836ZM9.51047 2.52057L9.16044 2.16353L9.51047 2.52057ZM8.78387 5.37023L8.30757 5.50779L8.30757 5.50779L8.78387 5.37023ZM8.67638 5.83757L8.32634 5.48054L8.67638 5.83757ZM6.29861 8.2629L6.64864 8.61993L6.29861 8.2629ZM6.27504 8.28897L6.62507 8.64601L6.63927 8.63152L6.65227 8.61591L6.27504 8.28897ZM5.48367 8.73847L5.34881 9.2243L5.34881 9.2243L5.48367 8.73847ZM2.68988 9.4796L3.03991 9.83664L2.68988 9.4796ZM1.99164 11.8421L1.50499 11.9347L1.50499 11.9347L1.99164 11.8421ZM2.62846 12.0085L2.9785 12.3655L2.62846 12.0085ZM3.45766 11.1627L3.8077 11.5197L3.45766 11.1627ZM3.75689 11.0363L3.75688 10.5313L3.75688 10.5313L3.75689 11.0363ZM4.77033 11.0363L4.77033 10.5313L4.77033 10.5313L4.77033 11.0363ZM5.19351 11.4679L5.68853 11.4679L5.68853 11.4679L5.19351 11.4679ZM5.1935 12.5016L5.68852 12.5016L5.68852 12.5016L5.1935 12.5016ZM5.06955 12.8068L5.41959 13.1638L5.06955 12.8068ZM4.24035 13.6526L3.89031 13.2956L4.24035 13.6526ZM4.40343 14.3022L4.49414 13.8058H4.49414L4.40343 14.3022ZM6.71964 13.59L7.06967 13.947L6.71964 13.59ZM7.44624 10.7403L6.96994 10.8778L6.96994 10.8778L7.44624 10.7403ZM7.55373 10.2729L7.2037 9.91591L7.55373 10.2729ZM9.9315 7.84763L10.2815 8.20466L9.9315 7.84763ZM9.95508 7.82155L9.60504 7.46451L9.59084 7.479L9.57784 7.49461L9.95508 7.82155ZM10.2883 7.4817L9.93823 7.12466L10.2883 7.4817ZM13.1902 6.27389C12.5655 6.91102 11.6769 7.11599 10.8813 6.88623L10.6116 7.85788C11.7383 8.18327 13.0018 7.89415 13.8903 6.98796L13.1902 6.27389ZM13.7518 4.36091C13.8797 5.06057 13.7227 5.73077 13.1902 6.27388L13.8903 6.98796C14.6789 6.18354 14.9059 5.16516 14.7251 4.17587L13.7518 4.36091ZM13.9517 4.45908C13.9364 4.47467 13.9046 4.48884 13.8638 4.47881C13.8427 4.47362 13.8165 4.46108 13.7929 4.43657C13.7677 4.41044 13.7555 4.3811 13.7518 4.36091L14.7251 4.17587C14.6588 3.81303 14.3969 3.57123 14.0962 3.49717C13.8049 3.42543 13.4826 3.50939 13.2516 3.74501L13.9517 4.45908ZM13.1225 5.30487L13.9517 4.45908L13.2516 3.74501L12.4224 4.5908L13.1225 5.30487ZM12.4732 5.57919C12.7167 5.57918 12.9503 5.48051 13.1225 5.30487L12.4224 4.5908C12.4359 4.57706 12.4542 4.56933 12.4732 4.56933L12.4732 5.57919ZM11.4598 5.57919L12.4732 5.57919L12.4732 4.56933L11.4598 4.56934L11.4598 5.57919ZM10.5416 4.64263C10.5416 5.15988 10.9527 5.5792 11.4598 5.57919L11.4598 4.56934C11.4995 4.56934 11.5316 4.60215 11.5316 4.64263L10.5416 4.64263ZM10.5416 3.60891L10.5416 4.64263L11.5316 4.64263L11.5316 3.60892L10.5416 3.60891ZM10.8105 2.94667C10.6383 3.12231 10.5416 3.36053 10.5416 3.60891L11.5316 3.60892C11.5316 3.62836 11.5241 3.647 11.5106 3.66075L10.8105 2.94667ZM11.6397 2.10088L10.8105 2.94667L11.5106 3.66075L12.3398 2.81496L11.6397 2.10088ZM11.736 2.30474C11.7162 2.30098 11.6874 2.28856 11.6618 2.26284C11.6378 2.23872 11.6255 2.21202 11.6204 2.19053C11.6105 2.14896 11.6244 2.11647 11.6397 2.10088L12.3398 2.81496C12.5708 2.57933 12.6531 2.25057 12.5828 1.95348C12.5102 1.64681 12.2731 1.37962 11.9174 1.31199L11.736 2.30474ZM9.86051 2.8776C10.393 2.33449 11.05 2.17433 11.736 2.30474L11.9174 1.31199C10.9475 1.12759 9.94908 1.35911 9.16044 2.16353L9.86051 2.8776ZM9.26017 5.23268C9.03492 4.42118 9.23586 3.51474 9.86051 2.8776L9.16044 2.16353C8.27201 3.06973 7.98856 4.35854 8.30757 5.50779L9.26017 5.23268ZM9.02641 6.19461C9.2906 5.92514 9.34732 5.54662 9.26017 5.23268L8.30757 5.50779C8.309 5.51294 8.30789 5.51435 8.30877 5.51031C8.30991 5.50511 8.31433 5.49279 8.32634 5.48054L9.02641 6.19461ZM6.64864 8.61993L9.02641 6.19461L8.32634 5.48054L5.94857 7.90586L6.64864 8.61993ZM6.65227 8.61591C6.65106 8.61737 6.64984 8.61871 6.64864 8.61993L5.94857 7.90586C5.93083 7.92396 5.9139 7.9427 5.8978 7.96203L6.65227 8.61591ZM6.29188 8.98586L6.62507 8.64601L5.925 7.93193L5.59181 8.27179L6.29188 8.98586ZM5.34881 9.2243C5.65659 9.31318 6.02769 9.25533 6.29188 8.98586L5.59181 8.27179C5.60382 8.25953 5.61591 8.25503 5.621 8.25387C5.62496 8.25296 5.62358 8.2541 5.61852 8.25264L5.34881 9.2243ZM3.03991 9.83664C3.66456 9.1995 4.55322 8.99453 5.34881 9.2243L5.61853 8.25264C4.49181 7.92725 3.22827 8.21637 2.33984 9.12256L3.03991 9.83664ZM2.47828 11.7496C2.35043 11.05 2.50745 10.3797 3.03991 9.83664L2.33984 9.12256C1.5512 9.92699 1.32421 10.9454 1.50499 11.9347L2.47828 11.7496ZM2.27842 11.6514C2.2937 11.6359 2.32556 11.6217 2.36632 11.6317C2.38738 11.6369 2.41356 11.6494 2.43721 11.6739C2.46242 11.7001 2.47459 11.7294 2.47828 11.7496L1.50499 11.9347C1.5713 12.2975 1.83325 12.5393 2.13392 12.6134C2.42518 12.6851 2.74749 12.6011 2.9785 12.3655L2.27842 11.6514ZM3.10763 10.8056L2.27842 11.6514L2.9785 12.3655L3.8077 11.5197L3.10763 10.8056ZM3.75688 10.5313C3.51337 10.5313 3.27982 10.63 3.10763 10.8056L3.8077 11.5197C3.79423 11.5335 3.77595 11.5412 3.75689 11.5412L3.75688 10.5313ZM4.77033 10.5313L3.75688 10.5313L3.75689 11.5412L4.77034 11.5412L4.77033 10.5313ZM5.68853 11.4679C5.68853 10.9506 5.27744 10.5313 4.77033 10.5313L4.77034 11.5412C4.73065 11.5412 4.69848 11.5084 4.69848 11.4679L5.68853 11.4679ZM5.68852 12.5016L5.68853 11.4679L4.69848 11.4679L4.69847 12.5016L5.68852 12.5016ZM5.41959 13.1638C5.59178 12.9882 5.68852 12.75 5.68852 12.5016L4.69847 12.5016C4.69847 12.4822 4.70604 12.4635 4.71952 12.4498L5.41959 13.1638ZM4.59039 14.0096L5.41959 13.1638L4.71952 12.4498L3.89031 13.2956L4.59039 14.0096ZM4.49414 13.8058C4.51393 13.8095 4.5427 13.822 4.56832 13.8477C4.59234 13.8718 4.60463 13.8985 4.60972 13.92C4.61956 13.9616 4.60566 13.9941 4.59039 14.0096L3.89031 13.2956C3.65931 13.5312 3.577 13.8599 3.64733 14.157C3.71994 14.4637 3.95699 14.7309 4.31272 14.7985L4.49414 13.8058ZM6.3696 13.2329C5.83714 13.776 5.18008 13.9362 4.49414 13.8058L4.31272 14.7985C5.28261 14.9829 6.28102 14.7514 7.06967 13.947L6.3696 13.2329ZM6.96994 10.8778C7.1952 11.6893 6.99425 12.5958 6.3696 13.2329L7.06967 13.947C7.9581 13.0408 8.24155 11.752 7.92254 10.6027L6.96994 10.8778ZM7.2037 9.91591C6.93951 10.1854 6.88279 10.5639 6.96994 10.8778L7.92254 10.6027C7.92111 10.5976 7.92222 10.5962 7.92134 10.6002C7.9202 10.6054 7.91578 10.6177 7.90377 10.63L7.2037 9.91591ZM9.58147 7.49059L7.2037 9.91591L7.90377 10.63L10.2815 8.20466L9.58147 7.49059ZM9.57784 7.49461C9.57905 7.49316 9.58026 7.49182 9.58147 7.49059L10.2815 8.20466C10.2993 8.18656 10.3162 8.16782 10.3323 8.14849L9.57784 7.49461ZM9.93823 7.12466L9.60504 7.46451L10.3051 8.17859L10.6383 7.83874L9.93823 7.12466ZM10.8813 6.88623C10.5735 6.79734 10.2024 6.85519 9.93823 7.12466L10.6383 7.83874C10.6263 7.85099 10.6142 7.85549 10.6091 7.85665C10.6051 7.85756 10.6065 7.85642 10.6116 7.85788L10.8813 6.88623Z" fill="currentColor"/>
</svg>
