<svg width="18" height="16" viewBox="0 0 18 16" fill="none" xmlns="http://www.w3.org/2000/svg">
<path d="M7.90557 4.38527C7.62595 4.26544 6.05632 3.90982 5.50061 3.99841C4.36794 4.17898 2.89438 5.27688 2.00061 5.99841C1.73149 6.21567 1.29652 6.72464 1.32133 6.97374C1.35225 7.28419 1.48761 7.8073 2.00691 7.70077" stroke="currentColor"/>
<path d="M5.00408 8.87046C5.14973 8.83763 5.30124 8.82031 5.4568 8.82031C6.42422 8.82031 7.23517 9.49026 7.45102 10.3915M3.43766 10.5114C3.41702 10.6281 3.40625 10.7482 3.40625 10.8709C3.40625 12.0034 4.32431 12.9214 5.4568 12.9214C6.19359 12.9214 6.83963 12.5328 7.20113 11.9494" stroke="currentColor"/>
<path d="M16.1332 5.99688C17.0503 6.10882 17.5088 10.8436 16.1332 10.4442C14.7576 10.0447 11.6292 8.94882 11.2731 8.8064C11.1666 8.76379 10.6606 9.48548 10.0348 10.2844C9.64068 10.7875 8.72547 11.323 8.29051 11.5893C6.88442 12.7184 6.46053 11.2431 7.39839 10.4442C8.33624 9.64527 8.95627 8.85942 9.16932 8.55341C9.38236 8.2474 9.13235 7.28556 8.67665 7.16863C8.1015 7.02104 7.31849 6.98221 6.93235 7.16863C6.52465 7.36545 5.93371 7.80776 5.56088 8.12732C5.18805 8.44689 4.78859 9.24581 4.28261 10.0447C3.77663 10.8436 2.84456 10.4442 2.97772 10.0447C3.11087 9.64526 3.80326 8.07407 4.28261 7.38167C4.76196 6.68928 5.61414 5.94362 6.2799 5.4909C6.78588 5.14684 8.13072 4.74525 9.70193 4.66536C11.2731 4.58546 12.3117 5.45096 13.2038 5.5708C13.5062 5.61141 15.2161 5.88495 16.1332 5.99688Z" stroke="currentColor"/>
<path d="M9.54238 4.67736C9.11186 4.5664 8.57037 4.23795 7.86466 4.3711C7.15895 4.50426 4.74889 5.47627 4.30948 5.80915C3.87008 6.14204 2.01926 7.62802 1.75295 7.92628C1.42007 8.29911 1.67306 8.97819 2.80486 8.61867L4.00323 7.81976" stroke="currentColor"/>
<path d="M6.17348 11.9071H4.63327V11.5649H6.17202L6.17348 11.9071ZM5.74734 11.0574H4.62891V10.7254H5.74734V11.0574ZM5.28048 10.3876L5.31684 11.2724C5.31781 11.3689 5.29793 11.4518 5.25721 11.521C5.21648 11.5892 5.14667 11.6453 5.04777 11.6892L4.77289 11.5649C4.80295 11.5571 4.82525 11.5395 4.83979 11.5122C4.85531 11.4839 4.865 11.4503 4.86888 11.4113C4.87276 11.3723 4.8747 11.3338 4.8747 11.2958L4.84707 10.3876C4.84707 10.2531 4.87421 10.1385 4.92851 10.0439C4.98378 9.9484 5.06038 9.87577 5.15831 9.82605C5.25721 9.77535 5.3721 9.75 5.503 9.75C5.64456 9.75 5.76431 9.77535 5.86224 9.82605C5.96114 9.87674 6.03579 9.94743 6.08621 10.0381C6.1376 10.1288 6.1633 10.2345 6.1633 10.3554H5.74879C5.74879 10.2901 5.73764 10.2384 5.71534 10.2004C5.69304 10.1614 5.66347 10.1336 5.62662 10.1171C5.58978 10.0995 5.54906 10.0907 5.50445 10.0907C5.46082 10.0907 5.42204 10.102 5.3881 10.1244C5.35514 10.1468 5.32896 10.18 5.30956 10.2238C5.29017 10.2677 5.28048 10.3223 5.28048 10.3876Z" fill="currentColor"/>
</svg>
