<svg width="18" height="16" viewBox="0 0 18 16" fill="none" xmlns="http://www.w3.org/2000/svg">
<path d="M8.91589 2.781L1.27977 5.5545C1.06023 5.63423 1.06023 5.94472 1.27977 6.02446L8.91589 8.79795C8.97103 8.81798 9.03145 8.81798 9.08659 8.79795L16.7227 6.02446C16.9422 5.94472 16.9422 5.63423 16.7227 5.5545L9.08659 2.781C9.03145 2.76097 8.97103 2.76097 8.91589 2.781Z" stroke="currentColor" stroke-linejoin="round"/>
<path d="M4.44141 7.17188V10.3622C4.44141 10.7716 4.69101 11.1397 5.0714 11.2912L8.63062 12.7087C8.86821 12.8034 9.13303 12.8034 9.37062 12.7087L12.9298 11.2912C13.3102 11.1397 13.5598 10.7716 13.5598 10.3622V7.17188" stroke="currentColor"/>
<path d="M15.8711 6.22266V9.81476" stroke="currentColor" stroke-linejoin="round"/>
<path d="M15.8705 10.0648L16.4363 10.3896V12.7482H15.3047V10.3896L15.8705 10.0648Z" stroke="currentColor"/>
</svg>
