<svg width="16" height="16" viewBox="0 0 16 16" fill="none" xmlns="http://www.w3.org/2000/svg">
<path d="M10.0792 7.61306C13.3967 5.56713 11.8697 1.59109 10.786 0C10.786 1.28898 10.5426 1.45816 7.19164 3.02105C3.00293 4.97467 2.26455 7.75404 2.02223 8.80134C1.77992 9.84864 1.88089 15.206 7.41376 15.8706C11.8764 16.4067 14.165 12.0439 14.4409 9.8285C13.5121 14.058 9.55332 16.4895 6.32334 14.7629C3.23381 13.1114 3.38638 10.9067 3.53671 9.54653C3.81941 6.98871 6.22237 5.90113 8.01955 5.21635C9.45729 4.66854 10.3552 3.86024 10.6244 3.52456C10.2206 4.3906 9.15036 5.32975 8.1609 5.78028C4.44539 7.47207 3.92037 9.52639 4.16269 11.3793C5.11176 8.62007 7.43396 9.24443 10.0792 7.61306Z" fill="currentColor"/>
</svg>
