<svg width="16" height="16" viewBox="0 0 16 16" fill="none" xmlns="http://www.w3.org/2000/svg">
<path d="M2.5 0.5L0.5 2.42188L2.5 4.5M13.5 4.5L15.4333 2.5L13.5 0.5M2.23333 9.35937C2.51516 10.0144 3.46303 11.7127 4.39853 13.2094C5.32476 14.6912 6.97169 15.4687 8.71918 15.4688C9.49567 15.4688 10.3096 15.4688 11.3 15.4688C12.6333 15.4688 13.9005 11.4908 13.7 9.09375C13.4885 6.56573 12.3667 5.90625 11.5667 6.96875C11.5667 5.64063 9.7 5.64063 9.7 6.4375C9.69999 4.84375 7.83333 5.10938 7.83333 5.90625C7.83333 5.02083 7.83333 3.09063 7.83333 2.45313C7.83333 1.65625 7.56666 0.59375 6.23333 0.59375C5.16666 0.59375 4.9 1.65625 4.9 2.1875C4.9 4.57812 4.9 8.29687 4.9 8.29687C3.91459 6.70312 3.39333 6.2582 2.5 6.70312C1.60667 7.14804 1.77619 8.29687 2.23333 9.35937Z" stroke="currentColor" stroke-linecap="round" stroke-linejoin="round"/>
</svg>
