<svg width="17" height="18" viewBox="0 0 17 18" fill="none" xmlns="http://www.w3.org/2000/svg">
<path d="M7.18333 7.43012C7.95829 7.05866 8.97278 7.46766 9.44916 8.344C9.92554 9.22034 9.68332 10.2321 8.90836 10.6036C8.13341 10.975 7.11892 10.5653 6.64254 9.68968C6.16616 8.81402 6.40837 7.80157 7.18333 7.43012V7.43012Z" stroke="currentColor" stroke-miterlimit="10"/>
<path d="M6.03775 5.32321C7.84129 4.45827 10.2024 5.41104 11.3115 7.45069C12.4199 9.49033 11.8563 11.8444 10.0528 12.7094C8.24856 13.5743 5.88746 12.6222 4.77904 10.5826C3.67061 8.54292 4.23355 6.18815 6.03775 5.32321V5.32321Z" stroke="currentColor" stroke-miterlimit="10"/>
<path d="M4.89995 3.22344C7.72871 1.86703 11.4311 3.3609 13.1695 6.55915C14.908 9.75741 14.0243 13.4498 11.1956 14.8062C8.3668 16.1626 4.66445 14.6688 2.926 11.4705C1.18754 8.27227 2.0712 4.57985 4.89995 3.22344Z" stroke="currentColor" stroke-miterlimit="10"/>
<path d="M8.04688 9.0171L14.0011 2" stroke="currentColor" stroke-miterlimit="10" stroke-linecap="round"/>
<path d="M4.40596 13.3906C4.40596 13.3906 2.5539 15.4993 1.36719 16.8505M1.36719 16.8505C1.41934 15.7373 1.50073 14 1.50073 14M1.36719 16.8505C2.5539 16.561 4.40596 16.1094 4.40596 16.1094" stroke="currentColor" stroke-miterlimit="10" stroke-linecap="round" stroke-linejoin="round"/>
<path d="M12.5 1.5L12.75 3.51227H14.5" stroke="currentColor" stroke-miterlimit="10"/>
<path d="M14 0.5V2H15.5" stroke="currentColor" stroke-miterlimit="10"/>
<path d="M4.40625 2.21094L11.819 15.9574" stroke="currentColor" stroke-linecap="round" stroke-linejoin="round"/>
<path d="M14.3069 6.08594L2.05859 11.9923" stroke="currentColor" stroke-linecap="round" stroke-linejoin="round"/>
</svg>
