<svg width="16" height="17" viewBox="0 0 16 17" fill="none" xmlns="http://www.w3.org/2000/svg">
<path d="M1.9375 6.375V14.9002C1.9375 15.2275 2.0995 15.5319 2.39882 15.6643C3.03652 15.9465 4.35768 16.375 6.5 16.375C8.64232 16.375 9.96348 15.9465 10.6012 15.6643C10.9005 15.5319 11.0625 15.2275 11.0625 14.9002V6.375" stroke="currentColor"/>
<path d="M6.5 7.88281C7.64538 7.88281 8.69669 7.78674 9.4743 7.62524C9.85899 7.54534 10.2033 7.44411 10.4636 7.3163C10.5928 7.25288 10.7274 7.17044 10.8361 7.06003C10.9465 6.94801 11.0625 6.7722 11.0625 6.53906C11.0625 6.30592 10.9465 6.13012 10.8361 6.0181C10.7274 5.90769 10.5928 5.82524 10.4636 5.76183C10.2033 5.63401 9.85899 5.53279 9.4743 5.45289C8.69669 5.29139 7.64538 5.19531 6.5 5.19531C5.35462 5.19531 4.30331 5.29139 3.5257 5.45289C3.14101 5.53279 2.79666 5.63401 2.53637 5.76183C2.40722 5.82524 2.27265 5.90769 2.16387 6.0181C2.0535 6.13012 1.9375 6.30592 1.9375 6.53906C1.9375 6.7722 2.0535 6.94801 2.16387 7.06003C2.27265 7.17044 2.40722 7.25288 2.53637 7.3163C2.79666 7.44411 3.14101 7.54534 3.5257 7.62524C4.30331 7.78674 5.35462 7.88281 6.5 7.88281Z" stroke="currentColor"/>
<path d="M11.5625 8.0625C13.4819 8.0625 14.5625 9.28125 14.5625 11C14.5625 12.7187 13.4616 14.0117 11.5742 14.0117" stroke="currentColor"/>
<path d="M11.0625 9.53708C11.0625 9.53708 13.0625 9.31052 13.0625 11.0371C13.0625 12.7636 11.0625 12.5371 11.0625 12.5371" stroke="currentColor"/>
<path d="M5.88873 6.375C5.88873 5.46227 4.8125 5.46227 4.8125 4.54955C4.8125 3.63682 5.88873 3.63682 5.88873 2.72409C5.88873 1.81137 4.8125 1.81116 4.8125 0.898438" stroke="currentColor" stroke-miterlimit="10" stroke-linecap="round"/>
<path d="M7.87311 6.375C7.87311 5.46227 6.79688 5.46227 6.79688 4.54955C6.79688 3.63682 7.87311 3.63682 7.87311 2.72409C7.87311 1.81137 6.79688 1.81116 6.79688 0.898438" stroke="currentColor" stroke-miterlimit="10" stroke-linecap="round"/>
</svg>
