<svg width="16" height="16" viewBox="0 0 16 16" fill="none" xmlns="http://www.w3.org/2000/svg">
<path d="M2.68821 1.42672L3.0898 1.72459L2.68821 1.42672ZM3.99387 10.1906L4.28065 10.6002L4.67718 10.3225L4.41251 9.91723L3.99387 10.1906ZM3.98926 10.1938L3.70247 9.78426L3.29289 10.0711L3.57968 10.4806L3.98926 10.1938ZM4.09216 10.339L4.50717 10.0601L4.50286 10.0537L4.49836 10.0474L4.09216 10.339ZM4.24116 10.5562L3.83159 10.843L4.11838 11.2526L4.52795 10.9658L4.24116 10.5562ZM4.24765 10.5517L4.64864 10.253L4.3586 9.86358L3.96086 10.1421L4.24765 10.5517ZM12.037 14.7756L11.8945 14.2964L12.037 14.7756ZM10.1959 9.07432L10.1225 8.57973L10.1959 9.07432ZM9.2413 10.0741L8.78807 9.86298L8.78807 9.86298L9.2413 10.0741ZM8.64439 10.6984L8.55757 11.1908L8.55757 11.1908L8.64439 10.6984ZM6.61869 8.57034L6.20355 8.84902L6.20843 8.85629L6.21357 8.86338L6.61869 8.57034ZM5.35918 6.00923L5.85159 6.09605L5.85159 6.09605L5.35918 6.00923ZM6.14997 5.66183L6.10658 5.16372L6.10658 5.16372L6.14997 5.66183ZM7.41595 5.1068L7.85562 5.34488L7.41595 5.1068ZM3.0898 1.72459C3.37771 1.33642 3.92836 1.12262 4.5513 1.1033C4.85351 1.09393 5.14529 1.13239 5.38677 1.20347C5.63669 1.27704 5.79227 1.37327 5.86417 1.44804L6.58496 0.754876C6.34783 0.508304 6.01058 0.344674 5.66915 0.244169C5.31928 0.141178 4.92119 0.0913517 4.5203 0.103785C3.73703 0.128077 2.82852 0.398253 2.28662 1.12885L3.0898 1.72459ZM4.41251 9.91723C3.18316 8.03469 2.68202 6.19769 2.58004 4.71419C2.52899 3.97156 2.57828 3.32195 2.68347 2.803C2.79055 2.27481 2.94876 1.91473 3.0898 1.72459L2.28662 1.12885C2.02526 1.48121 1.82615 1.99885 1.70341 2.60433C1.57879 3.21906 1.52578 3.95907 1.5824 4.78277C1.69576 6.43192 2.24983 8.43438 3.57522 10.464L4.41251 9.91723ZM3.70708 9.78104L3.70247 9.78426L4.27604 10.6034L4.28065 10.6002L3.70708 9.78104ZM3.57968 10.4806C3.615 10.5311 3.65043 10.581 3.68596 10.6305L4.49836 10.0474C4.4651 10.0011 4.43192 9.95431 4.39883 9.90705L3.57968 10.4806ZM4.65074 10.2694C4.60186 10.1996 4.55401 10.1298 4.50717 10.0601L3.67715 10.6179C3.72756 10.6929 3.77904 10.7679 3.83159 10.843L4.65074 10.2694ZM3.96086 10.1421L3.95438 10.1466L4.52795 10.9658L4.53444 10.9612L3.96086 10.1421ZM3.84666 10.8503C5.36509 12.8889 7.05739 14.0978 8.5588 14.7452C10.0386 15.3834 11.3786 15.4931 12.1796 15.2549L11.8945 14.2964C11.3986 14.4438 10.3116 14.412 8.95477 13.827C7.61953 13.2512 6.06555 12.1552 4.64864 10.253L3.84666 10.8503ZM12.1796 15.2549C13.0514 14.9955 13.6161 14.2342 13.9068 13.5065C14.0556 13.134 14.1449 12.7429 14.1678 12.3789C14.1901 12.0237 14.1517 11.6508 14.0011 11.3436L13.1032 11.7839C13.1489 11.877 13.1861 12.0561 13.1698 12.3161C13.154 12.5674 13.0903 12.8547 12.9781 13.1355C12.7469 13.7142 12.3577 14.1586 11.8945 14.2964L12.1796 15.2549ZM14.0011 11.3436C13.8717 11.0798 13.6361 10.7737 13.3689 10.4801C13.0945 10.1788 12.7601 9.86171 12.4066 9.57585C12.0548 9.29139 11.6714 9.02755 11.2989 8.84214C10.944 8.6655 10.5217 8.52053 10.1225 8.57973L10.2692 9.56892C10.3571 9.55588 10.5489 9.5859 10.8533 9.73739C11.1401 9.88011 11.4613 10.0976 11.7778 10.3534C12.0925 10.6079 12.3899 10.8902 12.6294 11.1533C12.876 11.4242 13.0363 11.6475 13.1032 11.7839L14.0011 11.3436ZM10.1225 8.57973C9.69925 8.6425 9.40607 8.87857 9.20401 9.13356C9.0128 9.37487 8.88205 9.66123 8.78807 9.86298L9.69453 10.2853C9.79847 10.0621 9.88246 9.88753 9.98778 9.75462C10.0822 9.63541 10.1674 9.58401 10.2692 9.56892L10.1225 8.57973ZM8.78807 9.86298C8.74456 9.95638 8.70899 10.0325 8.67386 10.0992C8.63849 10.1665 8.61234 10.207 8.59369 10.2305C8.57482 10.2543 8.579 10.241 8.61088 10.2251C8.65223 10.2046 8.69866 10.2003 8.73122 10.206L8.55757 11.1908C8.94832 11.2597 9.22137 11.0484 9.37714 10.852C9.51452 10.6788 9.61861 10.4482 9.69453 10.2853L8.78807 9.86298ZM8.73122 10.206C8.75989 10.2111 8.74981 10.2158 8.69196 10.179C8.64022 10.146 8.57303 10.0945 8.49144 10.0221C8.32833 9.8772 8.14055 9.6782 7.94794 9.45559C7.56431 9.01222 7.197 8.51672 7.02381 8.27729L6.21357 8.86338C6.3925 9.11075 6.7797 9.63373 7.19172 10.1099C7.39693 10.3471 7.61726 10.5831 7.82739 10.7698C7.93241 10.863 8.04312 10.9514 8.15493 11.0225C8.26062 11.0898 8.39972 11.163 8.55757 11.1908L8.73122 10.206ZM4.86678 5.9224C4.84003 6.07413 4.85861 6.22318 4.88348 6.3412C4.90967 6.46546 4.95137 6.59378 4.99932 6.7183C5.0952 6.96732 5.23172 7.24119 5.37573 7.50393C5.66489 8.03145 6.01129 8.56261 6.20355 8.84902L7.03382 8.29166C6.84727 8.01376 6.52032 7.5116 6.25263 7.02326C6.11823 6.77806 6.00545 6.54836 5.93254 6.35899C5.89609 6.26432 5.87352 6.18973 5.86199 6.13499C5.84914 6.074 5.85654 6.06794 5.85159 6.09605L4.86678 5.9224ZM6.10658 5.16372C5.92746 5.17932 5.67519 5.19827 5.46546 5.26813C5.22765 5.34735 4.93568 5.53165 4.86678 5.9224L5.85159 6.09605C5.84585 6.12861 5.82586 6.17075 5.79243 6.20258C5.76666 6.22713 5.75268 6.22648 5.78148 6.21689C5.80996 6.2074 5.85699 6.1967 5.93228 6.18646C6.00704 6.17629 6.09071 6.16889 6.19336 6.15995L6.10658 5.16372ZM6.97627 4.86872C6.92725 4.95923 6.84984 5.02166 6.70551 5.06965C6.5446 5.12316 6.3518 5.14236 6.10658 5.16372L6.19336 6.15995C6.41509 6.14063 6.72889 6.11571 7.02105 6.01856C7.32978 5.9159 7.65188 5.72114 7.85562 5.34488L6.97627 4.86872ZM5.86417 1.44804C5.96949 1.55756 6.12447 1.78455 6.29464 2.10891C6.45995 2.42401 6.62352 2.80002 6.75502 3.18279C6.88724 3.56766 6.9817 3.94391 7.01774 4.26219C7.05598 4.60005 7.01859 4.79056 6.97627 4.86872L7.85562 5.34488C8.0478 4.98998 8.05598 4.54362 8.01139 4.1497C7.96458 3.7362 7.84776 3.28575 7.70077 2.85788C7.55306 2.42792 7.36947 2.00516 7.18018 1.64434C6.99574 1.29278 6.78866 0.966697 6.58496 0.754876L5.86417 1.44804Z" fill="currentColor"/>
</svg>
