<svg width="16" height="16" viewBox="0 0 16 16" fill="none" xmlns="http://www.w3.org/2000/svg">
<path d="M1.70711 7.36328L7.36396 1.70643L8.33386 2.67632L7.63958 3.76733C7.38795 4.16275 7.44472 4.67989 7.77614 5.01131L9.23178 6.46696C9.46834 6.70352 9.78764 6.79129 10.0767 6.76938C10.6295 6.72746 12.1675 6.75359 13.7148 8.08354L8.08422 13.7141C6.75427 12.1668 6.72814 10.6289 6.77006 10.076C6.79197 9.78696 6.7042 9.46766 6.46764 9.2311L5.01199 7.77546C4.68057 7.44404 4.16343 7.38727 3.76801 7.6389L2.677 8.33318L1.70711 7.36328Z" stroke="currentColor"/>
<mask id="path-2-inside-1_336_108" fill="white">
<path d="M10.1914 10.8984L10.8985 10.1913L13.929 13.2218L14.0805 14.0804L13.2219 13.9289L10.1914 10.8984Z"/>
</mask>
<path d="M10.1914 10.8984L10.8985 10.1913L13.929 13.2218L14.0805 14.0804L13.2219 13.9289L10.1914 10.8984Z" fill="currentColor"/>
<path d="M10.1914 10.8984L9.4843 10.1913L8.77719 10.8984L9.4843 11.6055L10.1914 10.8984ZM10.8985 10.1913L11.6056 9.48422L10.8985 8.77712L10.1914 9.48422L10.8985 10.1913ZM13.929 13.2218L14.9138 13.048L14.859 12.7376L14.6361 12.5147L13.929 13.2218ZM13.2219 13.9289L12.5148 14.636L12.7377 14.8589L13.0481 14.9137L13.2219 13.9289ZM14.0805 14.0804L13.9067 15.0652L15.3135 15.3135L15.0653 13.9066L14.0805 14.0804ZM10.8985 11.6055L11.6056 10.8984L10.1914 9.48422L9.4843 10.1913L10.8985 11.6055ZM10.1914 10.8984L13.2219 13.9289L14.6361 12.5147L11.6056 9.48422L10.1914 10.8984ZM13.929 13.2218L10.8985 10.1913L9.4843 11.6055L12.5148 14.636L13.929 13.2218ZM12.9442 13.3956L13.0957 14.2542L15.0653 13.9066L14.9138 13.048L12.9442 13.3956ZM14.2543 13.0956L13.3956 12.9441L13.0481 14.9137L13.9067 15.0652L14.2543 13.0956Z" fill="currentColor" mask="url(#path-2-inside-1_336_108)"/>
</svg>
