<svg xmlns="http://www.w3.org/2000/svg" viewBox="0 0 16 16" fill="currentColor"><path d="m6.117 15.074-1.98-1.98.353-.354c.366-.366.414-.914.108-1.22-.307-.308-.854-.258-1.22.107l-.354.353L1.043 10l8.818-8.818 1.98 1.981-.353.354a1.02 1.02 0 0 0-.307.66.72.72 0 0 0 .2.56.72.72 0 0 0 .56.199c.24-.013.475-.123.66-.307l.353-.354 1.982 1.981zm-.609-2.023.61.61 7.403-7.405-.609-.609c-.28.17-.593.27-.915.288a1.73 1.73 0 0 1-1.323-.492 1.7 1.7 0 0 1-.491-1.322 2 2 0 0 1 .287-.916l-.609-.609L2.457 10l.61.61c.728-.442 1.654-.382 2.237.203.585.583.645 1.51.204 2.238"/><path d="M7.054 12.266 3.852 9.063l5.074-5.075 3.203 3.203zM5.266 9.063l1.788 1.789 3.66-3.661-1.788-1.789z"/></svg>
