<svg width="16" height="16" viewBox="0 0 16 16" fill="none" xmlns="http://www.w3.org/2000/svg">
<path d="M3.8345 1C3.8345 7.11711 7.39316 6.67567 7.39316 8.44145C7.39316 10.2072 3.8345 9.82882 3.8345 14.937M12.5405 1C12.5405 7.11711 8.98184 6.67567 8.98184 8.44145C8.98184 10.2072 12.5405 9.82882 12.5405 14.937M2.5 1H13.875M2.5 15H13.875" stroke="currentColor" stroke-linecap="round"/>
<path d="M9.39686 5.17981C9.02801 5.52901 8.59117 5.9426 8.2499 6.37451C7.90867 5.94261 7.47188 5.52904 7.10308 5.17985C7.04182 5.12184 6.98243 5.06561 6.92566 5.01137C6.83888 4.92844 6.75853 4.85056 6.68526 4.77734H9.81468C9.74141 4.85056 9.66105 4.92843 9.57427 5.01135C9.51751 5.06559 9.45812 5.12181 9.39686 5.17981Z" stroke="currentColor" stroke-linecap="round"/>
<path d="M10.4512 12.2188C10.7412 12.6179 10.9038 13.0819 10.9764 13.4902H5.46103C5.53975 13.058 5.72149 12.5863 6.03687 12.188C6.46503 11.6472 7.16185 11.2109 8.28208 11.2109C9.38849 11.2109 10.0502 11.6667 10.4512 12.2188Z" stroke="currentColor" stroke-linecap="round"/>
</svg>
