<svg width="17" height="16" viewBox="0 0 17 16" fill="none" xmlns="http://www.w3.org/2000/svg">
<path d="M16.4961 3.63672C16.4961 3.36058 16.2722 3.13672 15.9961 3.13672L11.4961 3.13672C11.22 3.13672 10.9961 3.36058 10.9961 3.63672C10.9961 3.91286 11.22 4.13672 11.4961 4.13672L15.4961 4.13672L15.4961 8.13672C15.4961 8.41286 15.72 8.63672 15.9961 8.63672C16.2722 8.63672 16.4961 8.41286 16.4961 8.13672L16.4961 3.63672ZM10.7246 8.90817L10.3711 9.26172L10.7246 9.61528L11.0782 9.26172L10.7246 8.90817ZM7.36222 5.54574L7.71577 5.19219L7.36222 4.83864L7.00866 5.19219L7.36222 5.54574ZM15.6425 3.28317L10.3711 8.55462L11.0782 9.26172L16.3496 3.99027L15.6425 3.28317ZM11.0782 8.55462L7.71577 5.19219L7.00866 5.8993L10.3711 9.26172L11.0782 8.55462ZM7.00866 5.19219L0.644703 11.5562L1.35181 12.2633L7.71577 5.8993L7.00866 5.19219Z" fill="currentColor"/>
</svg>
