<svg width="16" height="16" viewBox="0 0 16 16" fill="none" xmlns="http://www.w3.org/2000/svg">
<path fill-rule="evenodd" clip-rule="evenodd" d="M8.00089 3.67965C8.69124 3.67965 9.25087 3.12001 9.25087 2.42967C9.25087 1.73932 8.69124 1.17969 8.00089 1.17969C7.31055 1.17969 6.75091 1.73932 6.75091 2.42967C6.75091 3.12001 7.31055 3.67965 8.00089 3.67965ZM2.31254 2.67904C1.97611 2.43741 1.89926 1.9688 2.14089 1.63237C2.38251 1.29594 2.85112 1.21909 3.18755 1.46072L6.83303 4.07894C6.91803 4.13999 7.02004 4.17283 7.12469 4.17283L8.87548 4.17282C8.98014 4.17282 9.08216 4.13998 9.16716 4.07893L12.8124 1.46073C13.1489 1.21909 13.6175 1.29593 13.8591 1.63236C14.1007 1.96878 14.0239 2.43739 13.6875 2.67902L9.95917 5.35686C9.8284 5.45079 9.75086 5.60195 9.75086 5.76296V8.22417C9.75086 8.25423 9.75357 8.28423 9.75896 8.31381L10.8793 14.4616C10.9535 14.8691 10.6834 15.2596 10.2759 15.3338C9.86837 15.4081 9.47783 15.138 9.40357 14.7305L8.4455 9.47293C8.40574 9.25469 8.21563 9.09609 7.9938 9.09609C7.77493 9.09609 7.58649 9.25058 7.54356 9.4652L6.48801 14.7431C6.40678 15.1492 6.01167 15.4126 5.60551 15.3314C5.19934 15.2502 4.93593 14.8551 5.01716 14.4489L6.2412 8.32857C6.24766 8.29628 6.25091 8.26344 6.25091 8.23051V5.7641C6.25091 5.60308 6.17337 5.45192 6.04259 5.35799L2.31254 2.67904Z" fill="currentColor"/>
</svg>
