<svg width="16" height="16" viewBox="0 0 16 16" fill="none" xmlns="http://www.w3.org/2000/svg">
<path d="M14 8.75L14 13C14 13.5523 13.5523 14 13 14L3.625 14C3.07271 14 2.625 13.5523 2.625 13L2.625 8.75" stroke="currentColor" stroke-linecap="square"/>
<path d="M7.6875 11.5195C7.6875 11.7957 7.91136 12.0195 8.1875 12.0195C8.46364 12.0195 8.6875 11.7957 8.6875 11.5195L7.6875 11.5195ZM8.54105 1.30764C8.34579 1.11238 8.02921 1.11238 7.83395 1.30764L4.65197 4.48962C4.4567 4.68489 4.4567 5.00147 4.65197 5.19673C4.84723 5.39199 5.16381 5.39199 5.35907 5.19673L8.1875 2.3683L11.0159 5.19673C11.2112 5.39199 11.5278 5.39199 11.723 5.19673C11.9183 5.00147 11.9183 4.68489 11.723 4.48962L8.54105 1.30764ZM8.6875 11.5195L8.6875 1.6612L7.6875 1.6612L7.6875 11.5195L8.6875 11.5195Z" fill="currentColor"/>
</svg>
