<svg width="16" height="16" viewBox="0 0 16 16" fill="none" xmlns="http://www.w3.org/2000/svg">
<path d="M14 4.80985L14 11.1902C14 11.3773 13.802 11.4981 13.6356 11.4124L10.2844 9.68756C10.118 9.60193 9.92 9.72272 9.92 9.90985L9.92 11.75C9.92 11.8881 9.80807 12 9.67 12L2.25 12C2.11193 12 2 11.8881 2 11.75L2 4.25C2 4.11193 2.11193 4 2.25 4L9.67 4C9.80807 4 9.92 4.11193 9.92 4.25L9.92 6.09015C9.92 6.27728 10.118 6.39807 10.2844 6.31244L13.6356 4.58756C13.802 4.50193 14 4.62272 14 4.80985Z" fill="currentColor" stroke="currentColor" stroke-linecap="round"/>
</svg>
