<svg width="16" height="16" viewBox="0 0 16 16" fill="none" xmlns="http://www.w3.org/2000/svg">
<path d="M9 10C10.1046 10 11 9.10457 11 8C11 6.89543 10.1046 6 9 6" stroke="currentColor" stroke-linecap="round"/>
<path d="M9 12C11.2091 12 13 10.2091 13 8C13 5.79086 11.2091 4 9 4" stroke="currentColor" stroke-linecap="round"/>
<path d="M9 14C12.3137 14 15 11.3137 15 8C15 4.68629 12.3137 2 9 2" stroke="currentColor" stroke-linecap="round"/>
<path d="M2.5 6.5H4.81897C5.05291 6.5 5.27944 6.41798 5.45916 6.26822L7.5 4.56752L7.5 11.4325L5.45916 9.73178C5.27944 9.58202 5.05291 9.5 4.81897 9.5H2.5L2.5 6.5Z" stroke="currentColor"/>
</svg>
