<svg width="16" height="16" viewBox="0 0 16 16" fill="none" xmlns="http://www.w3.org/2000/svg">
<path d="M7.75022 3.79357C7.85249 4.05008 7.73043 4.34802 7.4776 4.45905C7.22476 4.57007 6.93688 4.45214 6.8346 4.19563L7.75022 3.79357ZM6.07942 4.01712L6.25252 4.45124L5.3369 4.8533L5.16381 4.41918L6.07942 4.01712ZM6.8346 4.19563L6.66151 3.76152L7.57712 3.35946L7.75022 3.79357L6.8346 4.19563ZM6.25274 3.59406C6.092 3.66464 6.01441 3.85405 6.07942 4.01712L5.16381 4.41918C4.89424 3.7431 5.21595 2.95781 5.88237 2.66517L6.25274 3.59406ZM5.88237 2.66517C6.54879 2.37254 7.30756 2.68338 7.57712 3.35946L6.66151 3.76152C6.59649 3.59845 6.41348 3.52347 6.25274 3.59406L5.88237 2.66517Z" fill="currentColor"/>
<path d="M5.85853 9.21674L4.38724 5.52675C4.21995 5.10717 4.4196 4.61982 4.83318 4.43821V4.43821C5.24676 4.2566 5.71765 4.44951 5.88494 4.86908L7.35623 8.55908" stroke="currentColor" stroke-linecap="round"/>
<path d="M4.77418 6.50136L4.73091 6.39283C4.56361 5.97326 4.09272 5.78035 3.67914 5.96196V5.96196C3.26557 6.14357 3.06563 6.63021 3.23292 7.04979C3.68729 8.18936 4.52541 10.2914 4.83431 11.0661C5.26704 12.1514 7.6117 14.4376 9.92243 13.4229C11.3132 12.8122 11.7615 12.3603 12.0981 10.6821C12.4107 9.12329 13.3321 7.18705 13.4616 6.91961C13.472 6.89807 13.4831 6.87814 13.4939 6.85677C13.7519 6.3439 13.1973 5.60834 12.3588 5.97649C11.6564 6.28495 11.5194 7.19324 11.2526 7.75519C11.0649 8.1506 10.631 7.94868 10.4716 7.54886L8.87782 3.5516C8.71053 3.13203 8.23964 2.93912 7.82606 3.12073C7.41248 3.30234 7.21283 3.78969 7.38012 4.20927L8.80814 7.79073" stroke="currentColor" stroke-linecap="round"/>
<path d="M2.49053 4.46969C2.4314 4.10937 2.49037 3.72721 2.68445 3.38482C2.87854 3.04243 3.17615 2.79555 3.51568 2.6612" stroke="currentColor" stroke-width="0.5" stroke-linecap="round"/>
<path d="M1.66461 4.92856C1.47511 4.28513 1.5367 3.56861 1.89359 2.939C2.25049 2.30939 2.83365 1.88851 3.48305 1.72062" stroke="currentColor" stroke-width="0.5" stroke-linecap="round"/>
<path d="M13.6281 11.8403C13.6844 12.2011 13.6224 12.5828 13.4256 12.9236C13.2288 13.2644 12.9293 13.509 12.5887 13.6406" stroke="currentColor" stroke-width="0.5" stroke-linecap="round"/>
<path d="M14.4556 11.3903C14.64 12.0352 14.5728 12.7512 14.2109 13.378C13.8491 14.0048 13.2626 14.421 12.6119 14.5838" stroke="currentColor" stroke-width="0.5" stroke-linecap="round"/>
</svg>
