<svg width="16" height="16" viewBox="0 0 16 16" fill="none" xmlns="http://www.w3.org/2000/svg">
<g clip-path="url(#clip0_6414_111166)">
<path d="M7.83411 0.00246654C14.1383 -0.150741 18.1428 6.86491 14.7802 12.2428C11.7719 17.0541 4.8378 17.2923 1.51859 12.6815C-2.25227 7.44351 1.42965 0.158333 7.83411 0.00246654ZM7.42261 1.72597H6.78379C6.78047 1.72597 6.71244 1.74226 6.72804 1.76452L6.84983 2.0068L7.42261 1.72597ZM3.35773 4.56746C3.39158 4.59239 3.55983 4.37304 3.58936 4.3428C3.7294 4.19923 3.88936 4.04602 4.0377 3.91109C4.61147 3.38833 5.24465 2.93036 5.9057 2.52391C5.79852 2.32617 5.72318 2.11647 5.66478 1.89912C5.15439 2.00746 4.65329 2.17828 4.17608 2.38799C3.82299 2.54319 3.56082 2.66815 3.27443 2.9307C3.18782 3.01013 2.98705 3.19358 2.92632 3.27998C2.8772 3.34977 2.90176 3.40893 2.91437 3.49102C2.97543 3.88052 3.16857 4.23014 3.35773 4.56746ZM8.31696 3.13708L8.60036 2.42388L7.6715 2.78979C7.66188 2.82767 7.6788 2.81704 7.69241 2.82767C7.7538 2.87553 7.87028 2.93601 7.94229 2.97523C7.99274 3.00281 8.28775 3.15868 8.31696 3.13741V3.13708ZM10.2264 3.58706C10.2125 3.5073 9.70643 2.62428 9.66263 2.65652L9.3311 3.46244C9.34206 3.48138 9.35467 3.48138 9.37292 3.48637C9.48077 3.51628 9.67325 3.53887 9.78906 3.5515C9.93442 3.56746 10.0857 3.56048 10.2264 3.58673V3.58706ZM11.7367 3.28763C11.7427 3.26237 11.7331 3.26104 11.7191 3.24708C11.678 3.2062 11.5449 3.13409 11.4865 3.09786C11.4453 3.07227 11.0896 2.85559 11.073 2.8722L11.3548 3.4302L11.7364 3.2873L11.7367 3.28763ZM6.82461 7.05933L7.90247 4.14539C7.69374 4.03074 7.47372 3.93735 7.26797 3.81638C7.03401 3.67879 6.82395 3.50896 6.60127 3.35476C5.65814 3.89448 4.79897 4.58242 4.07121 5.38966C4.67419 5.96627 5.40261 6.43487 6.15559 6.79147C6.32052 6.86957 6.59132 7.00682 6.7589 7.05169C6.7808 7.05767 6.80171 7.06465 6.82461 7.05933ZM12.5664 7.57512C12.6052 7.615 13.3097 7.33982 13.4073 7.29529C13.7212 7.15205 14.1586 6.89017 14.3919 6.63626C14.4997 6.51895 14.4307 6.45414 14.3726 6.32254C13.9771 5.42456 13.3552 4.61698 12.6387 3.95496C12.4947 4.03938 12.3652 4.14639 12.2182 4.22681C12.0765 4.30458 11.9242 4.37138 11.7699 4.41791C12.1515 5.4342 12.432 6.49436 12.5664 7.57512ZM2.09602 4.41791C2.05653 4.4086 2.06914 4.42522 2.05918 4.43951C1.68219 4.98454 1.35532 5.92506 1.22191 6.57478C1.17545 6.8011 1.07756 7.28598 1.10045 7.50034C1.11837 7.66585 1.27368 7.86691 1.33308 8.02344L1.66162 7.1813C1.93772 6.56514 2.27223 5.97691 2.66979 5.4322C2.45741 5.10784 2.22577 4.78647 2.09602 4.41758V4.41791ZM10.7229 4.63559C10.1169 4.67813 9.503 4.61831 8.91629 4.46743L7.82747 7.40961C9.02182 7.75358 10.2795 7.88253 11.521 7.77452C11.3932 6.69675 11.0989 5.64822 10.7229 4.63559ZM6.47583 8.07462C5.35848 7.65754 4.28725 7.0467 3.41547 6.22948C2.82742 7.06166 2.398 8.01314 2.17898 9.01182C2.32367 9.18895 2.52809 9.35014 2.71194 9.49271C3.59832 10.18 4.64499 10.6998 5.69664 11.0813C5.78159 10.6492 5.88646 10.2209 5.99663 9.7948C6.13734 9.25143 6.34906 8.67615 6.46886 8.14076C6.47384 8.11882 6.48114 8.09722 6.4755 8.07462H6.47583ZM12.4668 11.729C12.9835 11.6021 13.5038 11.4229 13.9522 11.1311C14.0448 11.071 14.1901 10.9726 14.2668 10.8978C14.3962 10.7709 14.5734 10.2139 14.6321 10.0175C14.7918 9.4854 14.9003 8.90414 14.9225 8.34747C14.9321 8.10055 14.9059 7.89483 14.8396 7.6582C14.2147 8.1607 13.4587 8.46512 12.6848 8.65754L12.7001 9.64459C12.6742 10.0809 12.6523 10.5193 12.5975 10.9543C12.5647 11.2139 12.5206 11.4734 12.4671 11.7293L12.4668 11.729ZM11.6206 8.83767C10.6051 8.93006 9.58099 8.87024 8.58078 8.68313C8.21276 8.61434 7.84871 8.52295 7.48898 8.42225C7.1933 9.39068 6.93644 10.3714 6.71244 11.3598L6.71609 11.4143C8.06508 11.8071 9.4738 11.9876 10.8829 11.9457L11.3395 11.9045C11.459 11.415 11.5436 10.9111 11.5874 10.408C11.6216 10.0145 11.6255 9.61999 11.6199 9.22883C11.6179 9.09856 11.6226 8.96762 11.6206 8.83767ZM5.46268 12.1301C4.50296 11.7985 3.58339 11.3518 2.7282 10.8058L1.9802 10.2837L1.96726 11.4013C2.59413 12.5366 3.57343 13.503 4.71767 14.1139C4.76545 14.1395 5.11622 14.3219 5.13282 14.3046L5.46268 12.1298V12.1301ZM11.0232 13.0088C10.2795 13.0338 9.53387 13.0108 8.7935 12.9234C8.01597 12.8317 7.24706 12.6649 6.49342 12.4602L6.14464 14.6865C7.29883 15.0095 8.54992 15.0212 9.71241 14.7287C9.85842 14.6918 10.2029 14.6087 10.3217 14.5426C10.3652 14.5183 10.636 13.9583 10.6778 13.8676C10.8062 13.5871 10.9144 13.2973 11.0232 13.0092V13.0088ZM13.1305 12.6599L12.1884 12.8796L11.8861 13.74C12.351 13.4425 12.7575 13.0647 13.1302 12.6602L13.1305 12.6599Z" fill="currentColor"/>
</g>
<defs>
<clipPath id="clip0_6414_111166">
<rect width="16" height="16" fill="white"/>
</clipPath>
</defs>
</svg>
