<svg width="16" height="16" viewBox="0 0 16 16" fill="none" xmlns="http://www.w3.org/2000/svg">
<g clip-path="url(#clip0_6398_111262)">
<path d="M7.99799 15.0194C11.8758 15.0194 15.0194 11.8758 15.0194 7.99799C15.0194 4.12016 11.8758 0.976562 7.99799 0.976562C4.12016 0.976562 0.976562 4.12016 0.976562 7.99799C0.976562 11.8758 4.12016 15.0194 7.99799 15.0194Z" stroke="currentColor" stroke-miterlimit="10" stroke-linejoin="round"/>
<path d="M1.81954 11.3348C1.44531 4.50587 8.25818 2.08653 9.39515 2.05078C9.39515 2.05078 14.0294 2.99408 15.0216 8.00019" stroke="currentColor" stroke-miterlimit="10" stroke-linejoin="round"/>
<path d="M5.70703 14.6379C6.3655 8.69858 8.35578 4.70728 9.39562 2.05078C10.5749 2.81591 13.7194 9.05374 10.5242 14.5819" stroke="currentColor" stroke-miterlimit="10" stroke-linejoin="round"/>
<path d="M9.39486 2.05043C9.39486 2.05043 7.02498 0.719199 3.53125 2.58316" stroke="currentColor" stroke-miterlimit="10" stroke-linejoin="round"/>
<path d="M6.62555 1.13281C6.46526 1.28536 6.35323 1.46532 6.30139 1.66912C6.05886 2.62374 7.22741 3.74522 8.912 4.17307C10.5966 4.60152 12.159 4.17426 12.4016 3.21964C12.4623 2.98068 12.4349 2.7316 12.333 2.48609" stroke="currentColor" stroke-miterlimit="10" stroke-linejoin="round"/>
<path d="M2.67972 3.41797C2.66959 5.2426 4.88275 7.20965 7.96233 7.99265C11.1033 8.79115 14.0399 8.07727 14.8372 6.39923" stroke="currentColor" stroke-miterlimit="10" stroke-linejoin="round"/>
<path d="M0.976562 7.55469C1.46281 9.23749 3.86367 10.9853 7.02788 11.7897C10.1623 12.5864 13.0804 12.2128 14.3318 10.9948" stroke="currentColor" stroke-miterlimit="10" stroke-linejoin="round"/>
</g>
<defs>
<clipPath id="clip0_6398_111262">
<rect width="16" height="16" fill="white"/>
</clipPath>
</defs>
</svg>
