<svg width="15" height="17" viewBox="0 0 15 17" fill="none" xmlns="http://www.w3.org/2000/svg">
<path d="M8.49829 7.19141C8.77443 7.19141 8.99829 6.96755 8.99829 6.69141C8.99829 6.41526 8.77443 6.19141 8.49829 6.19141V7.19141ZM5.38281 7.19141H8.49829V6.19141H5.38281V7.19141Z" fill="currentColor"/>
<circle cx="5.38432" cy="4.15386" r="1.15386" fill="currentColor"/>
<path d="M6.22897 9.22927L5.73577 9.31147C5.77595 9.55256 5.98455 9.72927 6.22897 9.72927V9.22927ZM9.61358 9.22927L10.0608 9.00566C9.9761 8.83627 9.80297 8.72927 9.61358 8.72927V9.22927ZM11.3059 12.6139L10.8587 12.8375C10.9822 13.0845 11.2825 13.1846 11.5295 13.0611L11.3059 12.6139ZM13.2218 12.2149C13.4688 12.0914 13.5689 11.7911 13.4454 11.5441C13.3219 11.2971 13.0216 11.197 12.7746 11.3205L13.2218 12.2149ZM4.88962 4.23454L5.73577 9.31147L6.72216 9.14707L5.87601 4.07014L4.88962 4.23454ZM6.22897 9.72927H9.61358V8.72927H6.22897V9.72927ZM9.16637 9.45287L10.8587 12.8375L11.7531 12.3903L10.0608 9.00566L9.16637 9.45287ZM11.5295 13.0611L13.2218 12.2149L12.7746 11.3205L11.0823 12.1667L11.5295 13.0611Z" fill="currentColor"/>
<path d="M3.6919 6.69141C2.66452 7.46329 2 8.69205 2 10.076C2 12.4126 3.89418 14.3068 6.23077 14.3068C7.29954 14.3068 8.27574 13.9105 9.02046 13.2568" stroke="currentColor" stroke-linecap="round"/>
</svg>
